M48
;DRILL file {KiCad 5.0.2+dfsg1-1} date mar. 27 avril 2021 11:45:12 CEST
;FORMAT={-:-/ absolute / metric / decimal}
FMAT,2
METRIC,TZ
T1C0.400
T2C0.950
T3C1.200
T4C2.400
T5C2.540
%
G90
G05
T1
X67.65Y-60.126
X70.698Y-68.
X70.698Y-73.588
X75.15Y-64.158
X76.794Y-65.968
X82.128Y-75.62
X84.16Y-64.19
T2
X79.842Y-65.5
X79.842Y-68.
X79.842Y-70.5
T3
X86.34Y-59.322
X86.34Y-62.2
X86.34Y-65.164
X86.34Y-68.
X86.34Y-70.9
X86.34Y-73.8
X86.34Y-76.848
X63.692Y-65.036
X63.692Y-68.
X63.692Y-70.878
T4
X89.24Y-62.2
X89.24Y-68.
X60.792Y-68.
T5
X89.24Y-73.8
T0
M30
