%TF.GenerationSoftware,KiCad,Pcbnew,5.0.2+dfsg1-1*%
%TF.CreationDate,2021-04-27T11:46:40+02:00*%
%TF.ProjectId,eTprox,65547072-6f78-42e6-9b69-6361645f7063,v02*%
%TF.SameCoordinates,Original*%
%TF.FileFunction,Paste,Top*%
%TF.FilePolarity,Positive*%
%FSLAX46Y46*%
G04 Gerber Fmt 4.6, Leading zero omitted, Abs format (unit mm)*
G04 Created by KiCad (PCBNEW 5.0.2+dfsg1-1) date mar. 27 avril 2021 11:46:40 CEST*
%MOMM*%
%LPD*%
G01*
G04 APERTURE LIST*
%ADD10O,4.050000X4.050000*%
%ADD11C,1.770000*%
%ADD12C,0.100000*%
%ADD13R,1.300000X2.000000*%
%ADD14R,2.000000X2.000000*%
%ADD15R,1.560000X0.650000*%
%ADD16C,1.150000*%
%ADD17C,1.175000*%
%ADD18C,1.200000*%
G04 APERTURE END LIST*
D10*
%TO.C,Antenna*%
X60792000Y-68000000D03*
D11*
X63692000Y-68000000D03*
D12*
G36*
X61443441Y-66172868D02*
X61447709Y-66158799D01*
X61454640Y-66145832D01*
X61463967Y-66134467D01*
X61475332Y-66125140D01*
X61488299Y-66118209D01*
X61502368Y-66113941D01*
X61517000Y-66112500D01*
X61531632Y-66113941D01*
X61546544Y-66118564D01*
X64053571Y-67193004D01*
X64070386Y-67199969D01*
X64072666Y-67201188D01*
X64084044Y-67206064D01*
X64096925Y-67213152D01*
X64100191Y-67215900D01*
X64146981Y-67240910D01*
X64219194Y-67289161D01*
X64286330Y-67344258D01*
X64347742Y-67405670D01*
X64402839Y-67472806D01*
X64451090Y-67545019D01*
X64492031Y-67621614D01*
X64525266Y-67701852D01*
X64550478Y-67784963D01*
X64567421Y-67870144D01*
X64575934Y-67956575D01*
X64575934Y-68043425D01*
X64567421Y-68129856D01*
X64550478Y-68215037D01*
X64525266Y-68298148D01*
X64492031Y-68378386D01*
X64451090Y-68454981D01*
X64402839Y-68527194D01*
X64347742Y-68594330D01*
X64286330Y-68655742D01*
X64219194Y-68710839D01*
X64146981Y-68759090D01*
X64100045Y-68784178D01*
X64096168Y-68787360D01*
X64084044Y-68793936D01*
X64072666Y-68798812D01*
X64070386Y-68800031D01*
X64053571Y-68806996D01*
X61546544Y-69881436D01*
X61532528Y-69885875D01*
X61517914Y-69887494D01*
X61503266Y-69886232D01*
X61489146Y-69882136D01*
X61476096Y-69875364D01*
X61464618Y-69866176D01*
X61455152Y-69854925D01*
X61448064Y-69842044D01*
X61443625Y-69828028D01*
X61442000Y-69812500D01*
X61442000Y-66187500D01*
X61443441Y-66172868D01*
X61443441Y-66172868D01*
G37*
%TD*%
D13*
%TO.C,RV1*%
X75150000Y-64158000D03*
D14*
X74000000Y-60158000D03*
D13*
X72850000Y-64158000D03*
%TD*%
D11*
%TO.C,J1*%
X86340000Y-73800000D03*
D12*
G36*
X88588559Y-75627132D02*
X88584291Y-75641201D01*
X88577360Y-75654168D01*
X88568033Y-75665533D01*
X88556668Y-75674860D01*
X88543701Y-75681791D01*
X88529632Y-75686059D01*
X88515000Y-75687500D01*
X88500368Y-75686059D01*
X88485456Y-75681436D01*
X85978429Y-74606996D01*
X85961614Y-74600031D01*
X85959334Y-74598812D01*
X85947956Y-74593936D01*
X85935075Y-74586848D01*
X85931809Y-74584100D01*
X85885019Y-74559090D01*
X85812806Y-74510839D01*
X85745670Y-74455742D01*
X85684258Y-74394330D01*
X85629161Y-74327194D01*
X85580910Y-74254981D01*
X85539969Y-74178386D01*
X85506734Y-74098148D01*
X85481522Y-74015037D01*
X85464579Y-73929856D01*
X85456066Y-73843425D01*
X85456066Y-73756575D01*
X85464579Y-73670144D01*
X85481522Y-73584963D01*
X85506734Y-73501852D01*
X85539969Y-73421614D01*
X85580910Y-73345019D01*
X85629161Y-73272806D01*
X85684258Y-73205670D01*
X85745670Y-73144258D01*
X85812806Y-73089161D01*
X85885019Y-73040910D01*
X85931955Y-73015822D01*
X85935832Y-73012640D01*
X85947956Y-73006064D01*
X85959334Y-73001188D01*
X85961614Y-72999969D01*
X85978429Y-72993004D01*
X88485456Y-71918564D01*
X88499472Y-71914125D01*
X88514086Y-71912506D01*
X88528734Y-71913768D01*
X88542854Y-71917864D01*
X88555904Y-71924636D01*
X88567382Y-71933824D01*
X88576848Y-71945075D01*
X88583936Y-71957956D01*
X88588375Y-71971972D01*
X88590000Y-71987500D01*
X88590000Y-75612500D01*
X88588559Y-75627132D01*
X88588559Y-75627132D01*
G37*
D11*
X86340000Y-68000000D03*
D12*
G36*
X88588559Y-69827132D02*
X88584291Y-69841201D01*
X88577360Y-69854168D01*
X88568033Y-69865533D01*
X88556668Y-69874860D01*
X88543701Y-69881791D01*
X88529632Y-69886059D01*
X88515000Y-69887500D01*
X88500368Y-69886059D01*
X88485456Y-69881436D01*
X85978429Y-68806996D01*
X85961614Y-68800031D01*
X85959334Y-68798812D01*
X85947956Y-68793936D01*
X85935075Y-68786848D01*
X85931809Y-68784100D01*
X85885019Y-68759090D01*
X85812806Y-68710839D01*
X85745670Y-68655742D01*
X85684258Y-68594330D01*
X85629161Y-68527194D01*
X85580910Y-68454981D01*
X85539969Y-68378386D01*
X85506734Y-68298148D01*
X85481522Y-68215037D01*
X85464579Y-68129856D01*
X85456066Y-68043425D01*
X85456066Y-67956575D01*
X85464579Y-67870144D01*
X85481522Y-67784963D01*
X85506734Y-67701852D01*
X85539969Y-67621614D01*
X85580910Y-67545019D01*
X85629161Y-67472806D01*
X85684258Y-67405670D01*
X85745670Y-67344258D01*
X85812806Y-67289161D01*
X85885019Y-67240910D01*
X85931955Y-67215822D01*
X85935832Y-67212640D01*
X85947956Y-67206064D01*
X85959334Y-67201188D01*
X85961614Y-67199969D01*
X85978429Y-67193004D01*
X88485456Y-66118564D01*
X88499472Y-66114125D01*
X88514086Y-66112506D01*
X88528734Y-66113768D01*
X88542854Y-66117864D01*
X88555904Y-66124636D01*
X88567382Y-66133824D01*
X88576848Y-66145075D01*
X88583936Y-66157956D01*
X88588375Y-66171972D01*
X88590000Y-66187500D01*
X88590000Y-69812500D01*
X88588559Y-69827132D01*
X88588559Y-69827132D01*
G37*
D11*
X86340000Y-62200000D03*
D12*
G36*
X88588559Y-64027132D02*
X88584291Y-64041201D01*
X88577360Y-64054168D01*
X88568033Y-64065533D01*
X88556668Y-64074860D01*
X88543701Y-64081791D01*
X88529632Y-64086059D01*
X88515000Y-64087500D01*
X88500368Y-64086059D01*
X88485456Y-64081436D01*
X85978429Y-63006996D01*
X85961614Y-63000031D01*
X85959334Y-62998812D01*
X85947956Y-62993936D01*
X85935075Y-62986848D01*
X85931809Y-62984100D01*
X85885019Y-62959090D01*
X85812806Y-62910839D01*
X85745670Y-62855742D01*
X85684258Y-62794330D01*
X85629161Y-62727194D01*
X85580910Y-62654981D01*
X85539969Y-62578386D01*
X85506734Y-62498148D01*
X85481522Y-62415037D01*
X85464579Y-62329856D01*
X85456066Y-62243425D01*
X85456066Y-62156575D01*
X85464579Y-62070144D01*
X85481522Y-61984963D01*
X85506734Y-61901852D01*
X85539969Y-61821614D01*
X85580910Y-61745019D01*
X85629161Y-61672806D01*
X85684258Y-61605670D01*
X85745670Y-61544258D01*
X85812806Y-61489161D01*
X85885019Y-61440910D01*
X85931955Y-61415822D01*
X85935832Y-61412640D01*
X85947956Y-61406064D01*
X85959334Y-61401188D01*
X85961614Y-61399969D01*
X85978429Y-61393004D01*
X88485456Y-60318564D01*
X88499472Y-60314125D01*
X88514086Y-60312506D01*
X88528734Y-60313768D01*
X88542854Y-60317864D01*
X88555904Y-60324636D01*
X88567382Y-60333824D01*
X88576848Y-60345075D01*
X88583936Y-60357956D01*
X88588375Y-60371972D01*
X88590000Y-60387500D01*
X88590000Y-64012500D01*
X88588559Y-64027132D01*
X88588559Y-64027132D01*
G37*
D10*
X89240000Y-68000000D03*
X89240000Y-73800000D03*
X89240000Y-62200000D03*
%TD*%
D15*
%TO.C,U1*%
X75350000Y-68950000D03*
X75350000Y-68000000D03*
X75350000Y-67050000D03*
X72650000Y-67050000D03*
X72650000Y-68950000D03*
X72650000Y-68000000D03*
%TD*%
D12*
%TO.C,D1*%
G36*
X68779505Y-67301204D02*
X68803773Y-67304804D01*
X68827572Y-67310765D01*
X68850671Y-67319030D01*
X68872850Y-67329520D01*
X68893893Y-67342132D01*
X68913599Y-67356747D01*
X68931777Y-67373223D01*
X68948253Y-67391401D01*
X68962868Y-67411107D01*
X68975480Y-67432150D01*
X68985970Y-67454329D01*
X68994235Y-67477428D01*
X69000196Y-67501227D01*
X69003796Y-67525495D01*
X69005000Y-67549999D01*
X69005000Y-68450001D01*
X69003796Y-68474505D01*
X69000196Y-68498773D01*
X68994235Y-68522572D01*
X68985970Y-68545671D01*
X68975480Y-68567850D01*
X68962868Y-68588893D01*
X68948253Y-68608599D01*
X68931777Y-68626777D01*
X68913599Y-68643253D01*
X68893893Y-68657868D01*
X68872850Y-68670480D01*
X68850671Y-68680970D01*
X68827572Y-68689235D01*
X68803773Y-68695196D01*
X68779505Y-68698796D01*
X68755001Y-68700000D01*
X68104999Y-68700000D01*
X68080495Y-68698796D01*
X68056227Y-68695196D01*
X68032428Y-68689235D01*
X68009329Y-68680970D01*
X67987150Y-68670480D01*
X67966107Y-68657868D01*
X67946401Y-68643253D01*
X67928223Y-68626777D01*
X67911747Y-68608599D01*
X67897132Y-68588893D01*
X67884520Y-68567850D01*
X67874030Y-68545671D01*
X67865765Y-68522572D01*
X67859804Y-68498773D01*
X67856204Y-68474505D01*
X67855000Y-68450001D01*
X67855000Y-67549999D01*
X67856204Y-67525495D01*
X67859804Y-67501227D01*
X67865765Y-67477428D01*
X67874030Y-67454329D01*
X67884520Y-67432150D01*
X67897132Y-67411107D01*
X67911747Y-67391401D01*
X67928223Y-67373223D01*
X67946401Y-67356747D01*
X67966107Y-67342132D01*
X67987150Y-67329520D01*
X68009329Y-67319030D01*
X68032428Y-67310765D01*
X68056227Y-67304804D01*
X68080495Y-67301204D01*
X68104999Y-67300000D01*
X68755001Y-67300000D01*
X68779505Y-67301204D01*
X68779505Y-67301204D01*
G37*
D16*
X68430000Y-68000000D03*
D12*
G36*
X66729505Y-67301204D02*
X66753773Y-67304804D01*
X66777572Y-67310765D01*
X66800671Y-67319030D01*
X66822850Y-67329520D01*
X66843893Y-67342132D01*
X66863599Y-67356747D01*
X66881777Y-67373223D01*
X66898253Y-67391401D01*
X66912868Y-67411107D01*
X66925480Y-67432150D01*
X66935970Y-67454329D01*
X66944235Y-67477428D01*
X66950196Y-67501227D01*
X66953796Y-67525495D01*
X66955000Y-67549999D01*
X66955000Y-68450001D01*
X66953796Y-68474505D01*
X66950196Y-68498773D01*
X66944235Y-68522572D01*
X66935970Y-68545671D01*
X66925480Y-68567850D01*
X66912868Y-68588893D01*
X66898253Y-68608599D01*
X66881777Y-68626777D01*
X66863599Y-68643253D01*
X66843893Y-68657868D01*
X66822850Y-68670480D01*
X66800671Y-68680970D01*
X66777572Y-68689235D01*
X66753773Y-68695196D01*
X66729505Y-68698796D01*
X66705001Y-68700000D01*
X66054999Y-68700000D01*
X66030495Y-68698796D01*
X66006227Y-68695196D01*
X65982428Y-68689235D01*
X65959329Y-68680970D01*
X65937150Y-68670480D01*
X65916107Y-68657868D01*
X65896401Y-68643253D01*
X65878223Y-68626777D01*
X65861747Y-68608599D01*
X65847132Y-68588893D01*
X65834520Y-68567850D01*
X65824030Y-68545671D01*
X65815765Y-68522572D01*
X65809804Y-68498773D01*
X65806204Y-68474505D01*
X65805000Y-68450001D01*
X65805000Y-67549999D01*
X65806204Y-67525495D01*
X65809804Y-67501227D01*
X65815765Y-67477428D01*
X65824030Y-67454329D01*
X65834520Y-67432150D01*
X65847132Y-67411107D01*
X65861747Y-67391401D01*
X65878223Y-67373223D01*
X65896401Y-67356747D01*
X65916107Y-67342132D01*
X65937150Y-67329520D01*
X65959329Y-67319030D01*
X65982428Y-67310765D01*
X66006227Y-67304804D01*
X66030495Y-67301204D01*
X66054999Y-67300000D01*
X66705001Y-67300000D01*
X66729505Y-67301204D01*
X66729505Y-67301204D01*
G37*
D16*
X66380000Y-68000000D03*
%TD*%
D12*
%TO.C,C1*%
G36*
X73324504Y-72864204D02*
X73348773Y-72867804D01*
X73372571Y-72873765D01*
X73395671Y-72882030D01*
X73417849Y-72892520D01*
X73438893Y-72905133D01*
X73458598Y-72919747D01*
X73476777Y-72936223D01*
X73493253Y-72954402D01*
X73507867Y-72974107D01*
X73520480Y-72995151D01*
X73530970Y-73017329D01*
X73539235Y-73040429D01*
X73545196Y-73064227D01*
X73548796Y-73088496D01*
X73550000Y-73113000D01*
X73550000Y-74063000D01*
X73548796Y-74087504D01*
X73545196Y-74111773D01*
X73539235Y-74135571D01*
X73530970Y-74158671D01*
X73520480Y-74180849D01*
X73507867Y-74201893D01*
X73493253Y-74221598D01*
X73476777Y-74239777D01*
X73458598Y-74256253D01*
X73438893Y-74270867D01*
X73417849Y-74283480D01*
X73395671Y-74293970D01*
X73372571Y-74302235D01*
X73348773Y-74308196D01*
X73324504Y-74311796D01*
X73300000Y-74313000D01*
X72625000Y-74313000D01*
X72600496Y-74311796D01*
X72576227Y-74308196D01*
X72552429Y-74302235D01*
X72529329Y-74293970D01*
X72507151Y-74283480D01*
X72486107Y-74270867D01*
X72466402Y-74256253D01*
X72448223Y-74239777D01*
X72431747Y-74221598D01*
X72417133Y-74201893D01*
X72404520Y-74180849D01*
X72394030Y-74158671D01*
X72385765Y-74135571D01*
X72379804Y-74111773D01*
X72376204Y-74087504D01*
X72375000Y-74063000D01*
X72375000Y-73113000D01*
X72376204Y-73088496D01*
X72379804Y-73064227D01*
X72385765Y-73040429D01*
X72394030Y-73017329D01*
X72404520Y-72995151D01*
X72417133Y-72974107D01*
X72431747Y-72954402D01*
X72448223Y-72936223D01*
X72466402Y-72919747D01*
X72486107Y-72905133D01*
X72507151Y-72892520D01*
X72529329Y-72882030D01*
X72552429Y-72873765D01*
X72576227Y-72867804D01*
X72600496Y-72864204D01*
X72625000Y-72863000D01*
X73300000Y-72863000D01*
X73324504Y-72864204D01*
X73324504Y-72864204D01*
G37*
D17*
X72962500Y-73588000D03*
D12*
G36*
X75399504Y-72864204D02*
X75423773Y-72867804D01*
X75447571Y-72873765D01*
X75470671Y-72882030D01*
X75492849Y-72892520D01*
X75513893Y-72905133D01*
X75533598Y-72919747D01*
X75551777Y-72936223D01*
X75568253Y-72954402D01*
X75582867Y-72974107D01*
X75595480Y-72995151D01*
X75605970Y-73017329D01*
X75614235Y-73040429D01*
X75620196Y-73064227D01*
X75623796Y-73088496D01*
X75625000Y-73113000D01*
X75625000Y-74063000D01*
X75623796Y-74087504D01*
X75620196Y-74111773D01*
X75614235Y-74135571D01*
X75605970Y-74158671D01*
X75595480Y-74180849D01*
X75582867Y-74201893D01*
X75568253Y-74221598D01*
X75551777Y-74239777D01*
X75533598Y-74256253D01*
X75513893Y-74270867D01*
X75492849Y-74283480D01*
X75470671Y-74293970D01*
X75447571Y-74302235D01*
X75423773Y-74308196D01*
X75399504Y-74311796D01*
X75375000Y-74313000D01*
X74700000Y-74313000D01*
X74675496Y-74311796D01*
X74651227Y-74308196D01*
X74627429Y-74302235D01*
X74604329Y-74293970D01*
X74582151Y-74283480D01*
X74561107Y-74270867D01*
X74541402Y-74256253D01*
X74523223Y-74239777D01*
X74506747Y-74221598D01*
X74492133Y-74201893D01*
X74479520Y-74180849D01*
X74469030Y-74158671D01*
X74460765Y-74135571D01*
X74454804Y-74111773D01*
X74451204Y-74087504D01*
X74450000Y-74063000D01*
X74450000Y-73113000D01*
X74451204Y-73088496D01*
X74454804Y-73064227D01*
X74460765Y-73040429D01*
X74469030Y-73017329D01*
X74479520Y-72995151D01*
X74492133Y-72974107D01*
X74506747Y-72954402D01*
X74523223Y-72936223D01*
X74541402Y-72919747D01*
X74561107Y-72905133D01*
X74582151Y-72892520D01*
X74604329Y-72882030D01*
X74627429Y-72873765D01*
X74651227Y-72867804D01*
X74675496Y-72864204D01*
X74700000Y-72863000D01*
X75375000Y-72863000D01*
X75399504Y-72864204D01*
X75399504Y-72864204D01*
G37*
D17*
X75037500Y-73588000D03*
%TD*%
D12*
%TO.C,R7*%
G36*
X66770505Y-61713204D02*
X66794773Y-61716804D01*
X66818572Y-61722765D01*
X66841671Y-61731030D01*
X66863850Y-61741520D01*
X66884893Y-61754132D01*
X66904599Y-61768747D01*
X66922777Y-61785223D01*
X66939253Y-61803401D01*
X66953868Y-61823107D01*
X66966480Y-61844150D01*
X66976970Y-61866329D01*
X66985235Y-61889428D01*
X66991196Y-61913227D01*
X66994796Y-61937495D01*
X66996000Y-61961999D01*
X66996000Y-62862001D01*
X66994796Y-62886505D01*
X66991196Y-62910773D01*
X66985235Y-62934572D01*
X66976970Y-62957671D01*
X66966480Y-62979850D01*
X66953868Y-63000893D01*
X66939253Y-63020599D01*
X66922777Y-63038777D01*
X66904599Y-63055253D01*
X66884893Y-63069868D01*
X66863850Y-63082480D01*
X66841671Y-63092970D01*
X66818572Y-63101235D01*
X66794773Y-63107196D01*
X66770505Y-63110796D01*
X66746001Y-63112000D01*
X66045999Y-63112000D01*
X66021495Y-63110796D01*
X65997227Y-63107196D01*
X65973428Y-63101235D01*
X65950329Y-63092970D01*
X65928150Y-63082480D01*
X65907107Y-63069868D01*
X65887401Y-63055253D01*
X65869223Y-63038777D01*
X65852747Y-63020599D01*
X65838132Y-63000893D01*
X65825520Y-62979850D01*
X65815030Y-62957671D01*
X65806765Y-62934572D01*
X65800804Y-62910773D01*
X65797204Y-62886505D01*
X65796000Y-62862001D01*
X65796000Y-61961999D01*
X65797204Y-61937495D01*
X65800804Y-61913227D01*
X65806765Y-61889428D01*
X65815030Y-61866329D01*
X65825520Y-61844150D01*
X65838132Y-61823107D01*
X65852747Y-61803401D01*
X65869223Y-61785223D01*
X65887401Y-61768747D01*
X65907107Y-61754132D01*
X65928150Y-61741520D01*
X65950329Y-61731030D01*
X65973428Y-61722765D01*
X65997227Y-61716804D01*
X66021495Y-61713204D01*
X66045999Y-61712000D01*
X66746001Y-61712000D01*
X66770505Y-61713204D01*
X66770505Y-61713204D01*
G37*
D18*
X66396000Y-62412000D03*
D12*
G36*
X68770505Y-61713204D02*
X68794773Y-61716804D01*
X68818572Y-61722765D01*
X68841671Y-61731030D01*
X68863850Y-61741520D01*
X68884893Y-61754132D01*
X68904599Y-61768747D01*
X68922777Y-61785223D01*
X68939253Y-61803401D01*
X68953868Y-61823107D01*
X68966480Y-61844150D01*
X68976970Y-61866329D01*
X68985235Y-61889428D01*
X68991196Y-61913227D01*
X68994796Y-61937495D01*
X68996000Y-61961999D01*
X68996000Y-62862001D01*
X68994796Y-62886505D01*
X68991196Y-62910773D01*
X68985235Y-62934572D01*
X68976970Y-62957671D01*
X68966480Y-62979850D01*
X68953868Y-63000893D01*
X68939253Y-63020599D01*
X68922777Y-63038777D01*
X68904599Y-63055253D01*
X68884893Y-63069868D01*
X68863850Y-63082480D01*
X68841671Y-63092970D01*
X68818572Y-63101235D01*
X68794773Y-63107196D01*
X68770505Y-63110796D01*
X68746001Y-63112000D01*
X68045999Y-63112000D01*
X68021495Y-63110796D01*
X67997227Y-63107196D01*
X67973428Y-63101235D01*
X67950329Y-63092970D01*
X67928150Y-63082480D01*
X67907107Y-63069868D01*
X67887401Y-63055253D01*
X67869223Y-63038777D01*
X67852747Y-63020599D01*
X67838132Y-63000893D01*
X67825520Y-62979850D01*
X67815030Y-62957671D01*
X67806765Y-62934572D01*
X67800804Y-62910773D01*
X67797204Y-62886505D01*
X67796000Y-62862001D01*
X67796000Y-61961999D01*
X67797204Y-61937495D01*
X67800804Y-61913227D01*
X67806765Y-61889428D01*
X67815030Y-61866329D01*
X67825520Y-61844150D01*
X67838132Y-61823107D01*
X67852747Y-61803401D01*
X67869223Y-61785223D01*
X67887401Y-61768747D01*
X67907107Y-61754132D01*
X67928150Y-61741520D01*
X67950329Y-61731030D01*
X67973428Y-61722765D01*
X67997227Y-61716804D01*
X68021495Y-61713204D01*
X68045999Y-61712000D01*
X68746001Y-61712000D01*
X68770505Y-61713204D01*
X68770505Y-61713204D01*
G37*
D18*
X68396000Y-62412000D03*
%TD*%
D12*
%TO.C,R6*%
G36*
X68754505Y-64507204D02*
X68778773Y-64510804D01*
X68802572Y-64516765D01*
X68825671Y-64525030D01*
X68847850Y-64535520D01*
X68868893Y-64548132D01*
X68888599Y-64562747D01*
X68906777Y-64579223D01*
X68923253Y-64597401D01*
X68937868Y-64617107D01*
X68950480Y-64638150D01*
X68960970Y-64660329D01*
X68969235Y-64683428D01*
X68975196Y-64707227D01*
X68978796Y-64731495D01*
X68980000Y-64755999D01*
X68980000Y-65656001D01*
X68978796Y-65680505D01*
X68975196Y-65704773D01*
X68969235Y-65728572D01*
X68960970Y-65751671D01*
X68950480Y-65773850D01*
X68937868Y-65794893D01*
X68923253Y-65814599D01*
X68906777Y-65832777D01*
X68888599Y-65849253D01*
X68868893Y-65863868D01*
X68847850Y-65876480D01*
X68825671Y-65886970D01*
X68802572Y-65895235D01*
X68778773Y-65901196D01*
X68754505Y-65904796D01*
X68730001Y-65906000D01*
X68029999Y-65906000D01*
X68005495Y-65904796D01*
X67981227Y-65901196D01*
X67957428Y-65895235D01*
X67934329Y-65886970D01*
X67912150Y-65876480D01*
X67891107Y-65863868D01*
X67871401Y-65849253D01*
X67853223Y-65832777D01*
X67836747Y-65814599D01*
X67822132Y-65794893D01*
X67809520Y-65773850D01*
X67799030Y-65751671D01*
X67790765Y-65728572D01*
X67784804Y-65704773D01*
X67781204Y-65680505D01*
X67780000Y-65656001D01*
X67780000Y-64755999D01*
X67781204Y-64731495D01*
X67784804Y-64707227D01*
X67790765Y-64683428D01*
X67799030Y-64660329D01*
X67809520Y-64638150D01*
X67822132Y-64617107D01*
X67836747Y-64597401D01*
X67853223Y-64579223D01*
X67871401Y-64562747D01*
X67891107Y-64548132D01*
X67912150Y-64535520D01*
X67934329Y-64525030D01*
X67957428Y-64516765D01*
X67981227Y-64510804D01*
X68005495Y-64507204D01*
X68029999Y-64506000D01*
X68730001Y-64506000D01*
X68754505Y-64507204D01*
X68754505Y-64507204D01*
G37*
D18*
X68380000Y-65206000D03*
D12*
G36*
X66754505Y-64507204D02*
X66778773Y-64510804D01*
X66802572Y-64516765D01*
X66825671Y-64525030D01*
X66847850Y-64535520D01*
X66868893Y-64548132D01*
X66888599Y-64562747D01*
X66906777Y-64579223D01*
X66923253Y-64597401D01*
X66937868Y-64617107D01*
X66950480Y-64638150D01*
X66960970Y-64660329D01*
X66969235Y-64683428D01*
X66975196Y-64707227D01*
X66978796Y-64731495D01*
X66980000Y-64755999D01*
X66980000Y-65656001D01*
X66978796Y-65680505D01*
X66975196Y-65704773D01*
X66969235Y-65728572D01*
X66960970Y-65751671D01*
X66950480Y-65773850D01*
X66937868Y-65794893D01*
X66923253Y-65814599D01*
X66906777Y-65832777D01*
X66888599Y-65849253D01*
X66868893Y-65863868D01*
X66847850Y-65876480D01*
X66825671Y-65886970D01*
X66802572Y-65895235D01*
X66778773Y-65901196D01*
X66754505Y-65904796D01*
X66730001Y-65906000D01*
X66029999Y-65906000D01*
X66005495Y-65904796D01*
X65981227Y-65901196D01*
X65957428Y-65895235D01*
X65934329Y-65886970D01*
X65912150Y-65876480D01*
X65891107Y-65863868D01*
X65871401Y-65849253D01*
X65853223Y-65832777D01*
X65836747Y-65814599D01*
X65822132Y-65794893D01*
X65809520Y-65773850D01*
X65799030Y-65751671D01*
X65790765Y-65728572D01*
X65784804Y-65704773D01*
X65781204Y-65680505D01*
X65780000Y-65656001D01*
X65780000Y-64755999D01*
X65781204Y-64731495D01*
X65784804Y-64707227D01*
X65790765Y-64683428D01*
X65799030Y-64660329D01*
X65809520Y-64638150D01*
X65822132Y-64617107D01*
X65836747Y-64597401D01*
X65853223Y-64579223D01*
X65871401Y-64562747D01*
X65891107Y-64548132D01*
X65912150Y-64535520D01*
X65934329Y-64525030D01*
X65957428Y-64516765D01*
X65981227Y-64510804D01*
X66005495Y-64507204D01*
X66029999Y-64506000D01*
X66730001Y-64506000D01*
X66754505Y-64507204D01*
X66754505Y-64507204D01*
G37*
D18*
X66380000Y-65206000D03*
%TD*%
D12*
%TO.C,R5*%
G36*
X66770505Y-72889204D02*
X66794773Y-72892804D01*
X66818572Y-72898765D01*
X66841671Y-72907030D01*
X66863850Y-72917520D01*
X66884893Y-72930132D01*
X66904599Y-72944747D01*
X66922777Y-72961223D01*
X66939253Y-72979401D01*
X66953868Y-72999107D01*
X66966480Y-73020150D01*
X66976970Y-73042329D01*
X66985235Y-73065428D01*
X66991196Y-73089227D01*
X66994796Y-73113495D01*
X66996000Y-73137999D01*
X66996000Y-74038001D01*
X66994796Y-74062505D01*
X66991196Y-74086773D01*
X66985235Y-74110572D01*
X66976970Y-74133671D01*
X66966480Y-74155850D01*
X66953868Y-74176893D01*
X66939253Y-74196599D01*
X66922777Y-74214777D01*
X66904599Y-74231253D01*
X66884893Y-74245868D01*
X66863850Y-74258480D01*
X66841671Y-74268970D01*
X66818572Y-74277235D01*
X66794773Y-74283196D01*
X66770505Y-74286796D01*
X66746001Y-74288000D01*
X66045999Y-74288000D01*
X66021495Y-74286796D01*
X65997227Y-74283196D01*
X65973428Y-74277235D01*
X65950329Y-74268970D01*
X65928150Y-74258480D01*
X65907107Y-74245868D01*
X65887401Y-74231253D01*
X65869223Y-74214777D01*
X65852747Y-74196599D01*
X65838132Y-74176893D01*
X65825520Y-74155850D01*
X65815030Y-74133671D01*
X65806765Y-74110572D01*
X65800804Y-74086773D01*
X65797204Y-74062505D01*
X65796000Y-74038001D01*
X65796000Y-73137999D01*
X65797204Y-73113495D01*
X65800804Y-73089227D01*
X65806765Y-73065428D01*
X65815030Y-73042329D01*
X65825520Y-73020150D01*
X65838132Y-72999107D01*
X65852747Y-72979401D01*
X65869223Y-72961223D01*
X65887401Y-72944747D01*
X65907107Y-72930132D01*
X65928150Y-72917520D01*
X65950329Y-72907030D01*
X65973428Y-72898765D01*
X65997227Y-72892804D01*
X66021495Y-72889204D01*
X66045999Y-72888000D01*
X66746001Y-72888000D01*
X66770505Y-72889204D01*
X66770505Y-72889204D01*
G37*
D18*
X66396000Y-73588000D03*
D12*
G36*
X68770505Y-72889204D02*
X68794773Y-72892804D01*
X68818572Y-72898765D01*
X68841671Y-72907030D01*
X68863850Y-72917520D01*
X68884893Y-72930132D01*
X68904599Y-72944747D01*
X68922777Y-72961223D01*
X68939253Y-72979401D01*
X68953868Y-72999107D01*
X68966480Y-73020150D01*
X68976970Y-73042329D01*
X68985235Y-73065428D01*
X68991196Y-73089227D01*
X68994796Y-73113495D01*
X68996000Y-73137999D01*
X68996000Y-74038001D01*
X68994796Y-74062505D01*
X68991196Y-74086773D01*
X68985235Y-74110572D01*
X68976970Y-74133671D01*
X68966480Y-74155850D01*
X68953868Y-74176893D01*
X68939253Y-74196599D01*
X68922777Y-74214777D01*
X68904599Y-74231253D01*
X68884893Y-74245868D01*
X68863850Y-74258480D01*
X68841671Y-74268970D01*
X68818572Y-74277235D01*
X68794773Y-74283196D01*
X68770505Y-74286796D01*
X68746001Y-74288000D01*
X68045999Y-74288000D01*
X68021495Y-74286796D01*
X67997227Y-74283196D01*
X67973428Y-74277235D01*
X67950329Y-74268970D01*
X67928150Y-74258480D01*
X67907107Y-74245868D01*
X67887401Y-74231253D01*
X67869223Y-74214777D01*
X67852747Y-74196599D01*
X67838132Y-74176893D01*
X67825520Y-74155850D01*
X67815030Y-74133671D01*
X67806765Y-74110572D01*
X67800804Y-74086773D01*
X67797204Y-74062505D01*
X67796000Y-74038001D01*
X67796000Y-73137999D01*
X67797204Y-73113495D01*
X67800804Y-73089227D01*
X67806765Y-73065428D01*
X67815030Y-73042329D01*
X67825520Y-73020150D01*
X67838132Y-72999107D01*
X67852747Y-72979401D01*
X67869223Y-72961223D01*
X67887401Y-72944747D01*
X67907107Y-72930132D01*
X67928150Y-72917520D01*
X67950329Y-72907030D01*
X67973428Y-72898765D01*
X67997227Y-72892804D01*
X68021495Y-72889204D01*
X68045999Y-72888000D01*
X68746001Y-72888000D01*
X68770505Y-72889204D01*
X68770505Y-72889204D01*
G37*
D18*
X68396000Y-73588000D03*
%TD*%
D12*
%TO.C,R4*%
G36*
X80200505Y-60443204D02*
X80224773Y-60446804D01*
X80248572Y-60452765D01*
X80271671Y-60461030D01*
X80293850Y-60471520D01*
X80314893Y-60484132D01*
X80334599Y-60498747D01*
X80352777Y-60515223D01*
X80369253Y-60533401D01*
X80383868Y-60553107D01*
X80396480Y-60574150D01*
X80406970Y-60596329D01*
X80415235Y-60619428D01*
X80421196Y-60643227D01*
X80424796Y-60667495D01*
X80426000Y-60691999D01*
X80426000Y-61592001D01*
X80424796Y-61616505D01*
X80421196Y-61640773D01*
X80415235Y-61664572D01*
X80406970Y-61687671D01*
X80396480Y-61709850D01*
X80383868Y-61730893D01*
X80369253Y-61750599D01*
X80352777Y-61768777D01*
X80334599Y-61785253D01*
X80314893Y-61799868D01*
X80293850Y-61812480D01*
X80271671Y-61822970D01*
X80248572Y-61831235D01*
X80224773Y-61837196D01*
X80200505Y-61840796D01*
X80176001Y-61842000D01*
X79475999Y-61842000D01*
X79451495Y-61840796D01*
X79427227Y-61837196D01*
X79403428Y-61831235D01*
X79380329Y-61822970D01*
X79358150Y-61812480D01*
X79337107Y-61799868D01*
X79317401Y-61785253D01*
X79299223Y-61768777D01*
X79282747Y-61750599D01*
X79268132Y-61730893D01*
X79255520Y-61709850D01*
X79245030Y-61687671D01*
X79236765Y-61664572D01*
X79230804Y-61640773D01*
X79227204Y-61616505D01*
X79226000Y-61592001D01*
X79226000Y-60691999D01*
X79227204Y-60667495D01*
X79230804Y-60643227D01*
X79236765Y-60619428D01*
X79245030Y-60596329D01*
X79255520Y-60574150D01*
X79268132Y-60553107D01*
X79282747Y-60533401D01*
X79299223Y-60515223D01*
X79317401Y-60498747D01*
X79337107Y-60484132D01*
X79358150Y-60471520D01*
X79380329Y-60461030D01*
X79403428Y-60452765D01*
X79427227Y-60446804D01*
X79451495Y-60443204D01*
X79475999Y-60442000D01*
X80176001Y-60442000D01*
X80200505Y-60443204D01*
X80200505Y-60443204D01*
G37*
D18*
X79826000Y-61142000D03*
D12*
G36*
X78200505Y-60443204D02*
X78224773Y-60446804D01*
X78248572Y-60452765D01*
X78271671Y-60461030D01*
X78293850Y-60471520D01*
X78314893Y-60484132D01*
X78334599Y-60498747D01*
X78352777Y-60515223D01*
X78369253Y-60533401D01*
X78383868Y-60553107D01*
X78396480Y-60574150D01*
X78406970Y-60596329D01*
X78415235Y-60619428D01*
X78421196Y-60643227D01*
X78424796Y-60667495D01*
X78426000Y-60691999D01*
X78426000Y-61592001D01*
X78424796Y-61616505D01*
X78421196Y-61640773D01*
X78415235Y-61664572D01*
X78406970Y-61687671D01*
X78396480Y-61709850D01*
X78383868Y-61730893D01*
X78369253Y-61750599D01*
X78352777Y-61768777D01*
X78334599Y-61785253D01*
X78314893Y-61799868D01*
X78293850Y-61812480D01*
X78271671Y-61822970D01*
X78248572Y-61831235D01*
X78224773Y-61837196D01*
X78200505Y-61840796D01*
X78176001Y-61842000D01*
X77475999Y-61842000D01*
X77451495Y-61840796D01*
X77427227Y-61837196D01*
X77403428Y-61831235D01*
X77380329Y-61822970D01*
X77358150Y-61812480D01*
X77337107Y-61799868D01*
X77317401Y-61785253D01*
X77299223Y-61768777D01*
X77282747Y-61750599D01*
X77268132Y-61730893D01*
X77255520Y-61709850D01*
X77245030Y-61687671D01*
X77236765Y-61664572D01*
X77230804Y-61640773D01*
X77227204Y-61616505D01*
X77226000Y-61592001D01*
X77226000Y-60691999D01*
X77227204Y-60667495D01*
X77230804Y-60643227D01*
X77236765Y-60619428D01*
X77245030Y-60596329D01*
X77255520Y-60574150D01*
X77268132Y-60553107D01*
X77282747Y-60533401D01*
X77299223Y-60515223D01*
X77317401Y-60498747D01*
X77337107Y-60484132D01*
X77358150Y-60471520D01*
X77380329Y-60461030D01*
X77403428Y-60452765D01*
X77427227Y-60446804D01*
X77451495Y-60443204D01*
X77475999Y-60442000D01*
X78176001Y-60442000D01*
X78200505Y-60443204D01*
X78200505Y-60443204D01*
G37*
D18*
X77826000Y-61142000D03*
%TD*%
D12*
%TO.C,R3*%
G36*
X66770505Y-70095204D02*
X66794773Y-70098804D01*
X66818572Y-70104765D01*
X66841671Y-70113030D01*
X66863850Y-70123520D01*
X66884893Y-70136132D01*
X66904599Y-70150747D01*
X66922777Y-70167223D01*
X66939253Y-70185401D01*
X66953868Y-70205107D01*
X66966480Y-70226150D01*
X66976970Y-70248329D01*
X66985235Y-70271428D01*
X66991196Y-70295227D01*
X66994796Y-70319495D01*
X66996000Y-70343999D01*
X66996000Y-71244001D01*
X66994796Y-71268505D01*
X66991196Y-71292773D01*
X66985235Y-71316572D01*
X66976970Y-71339671D01*
X66966480Y-71361850D01*
X66953868Y-71382893D01*
X66939253Y-71402599D01*
X66922777Y-71420777D01*
X66904599Y-71437253D01*
X66884893Y-71451868D01*
X66863850Y-71464480D01*
X66841671Y-71474970D01*
X66818572Y-71483235D01*
X66794773Y-71489196D01*
X66770505Y-71492796D01*
X66746001Y-71494000D01*
X66045999Y-71494000D01*
X66021495Y-71492796D01*
X65997227Y-71489196D01*
X65973428Y-71483235D01*
X65950329Y-71474970D01*
X65928150Y-71464480D01*
X65907107Y-71451868D01*
X65887401Y-71437253D01*
X65869223Y-71420777D01*
X65852747Y-71402599D01*
X65838132Y-71382893D01*
X65825520Y-71361850D01*
X65815030Y-71339671D01*
X65806765Y-71316572D01*
X65800804Y-71292773D01*
X65797204Y-71268505D01*
X65796000Y-71244001D01*
X65796000Y-70343999D01*
X65797204Y-70319495D01*
X65800804Y-70295227D01*
X65806765Y-70271428D01*
X65815030Y-70248329D01*
X65825520Y-70226150D01*
X65838132Y-70205107D01*
X65852747Y-70185401D01*
X65869223Y-70167223D01*
X65887401Y-70150747D01*
X65907107Y-70136132D01*
X65928150Y-70123520D01*
X65950329Y-70113030D01*
X65973428Y-70104765D01*
X65997227Y-70098804D01*
X66021495Y-70095204D01*
X66045999Y-70094000D01*
X66746001Y-70094000D01*
X66770505Y-70095204D01*
X66770505Y-70095204D01*
G37*
D18*
X66396000Y-70794000D03*
D12*
G36*
X68770505Y-70095204D02*
X68794773Y-70098804D01*
X68818572Y-70104765D01*
X68841671Y-70113030D01*
X68863850Y-70123520D01*
X68884893Y-70136132D01*
X68904599Y-70150747D01*
X68922777Y-70167223D01*
X68939253Y-70185401D01*
X68953868Y-70205107D01*
X68966480Y-70226150D01*
X68976970Y-70248329D01*
X68985235Y-70271428D01*
X68991196Y-70295227D01*
X68994796Y-70319495D01*
X68996000Y-70343999D01*
X68996000Y-71244001D01*
X68994796Y-71268505D01*
X68991196Y-71292773D01*
X68985235Y-71316572D01*
X68976970Y-71339671D01*
X68966480Y-71361850D01*
X68953868Y-71382893D01*
X68939253Y-71402599D01*
X68922777Y-71420777D01*
X68904599Y-71437253D01*
X68884893Y-71451868D01*
X68863850Y-71464480D01*
X68841671Y-71474970D01*
X68818572Y-71483235D01*
X68794773Y-71489196D01*
X68770505Y-71492796D01*
X68746001Y-71494000D01*
X68045999Y-71494000D01*
X68021495Y-71492796D01*
X67997227Y-71489196D01*
X67973428Y-71483235D01*
X67950329Y-71474970D01*
X67928150Y-71464480D01*
X67907107Y-71451868D01*
X67887401Y-71437253D01*
X67869223Y-71420777D01*
X67852747Y-71402599D01*
X67838132Y-71382893D01*
X67825520Y-71361850D01*
X67815030Y-71339671D01*
X67806765Y-71316572D01*
X67800804Y-71292773D01*
X67797204Y-71268505D01*
X67796000Y-71244001D01*
X67796000Y-70343999D01*
X67797204Y-70319495D01*
X67800804Y-70295227D01*
X67806765Y-70271428D01*
X67815030Y-70248329D01*
X67825520Y-70226150D01*
X67838132Y-70205107D01*
X67852747Y-70185401D01*
X67869223Y-70167223D01*
X67887401Y-70150747D01*
X67907107Y-70136132D01*
X67928150Y-70123520D01*
X67950329Y-70113030D01*
X67973428Y-70104765D01*
X67997227Y-70098804D01*
X68021495Y-70095204D01*
X68045999Y-70094000D01*
X68746001Y-70094000D01*
X68770505Y-70095204D01*
X68770505Y-70095204D01*
G37*
D18*
X68396000Y-70794000D03*
%TD*%
M02*
