%TF.GenerationSoftware,KiCad,Pcbnew,5.0.2+dfsg1-1*%
%TF.CreationDate,2021-04-27T11:46:40+02:00*%
%TF.ProjectId,eTprox,65547072-6f78-42e6-9b69-6361645f7063,v02*%
%TF.SameCoordinates,Original*%
%TF.FileFunction,Soldermask,Bot*%
%TF.FilePolarity,Negative*%
%FSLAX46Y46*%
G04 Gerber Fmt 4.6, Leading zero omitted, Abs format (unit mm)*
G04 Created by KiCad (PCBNEW 5.0.2+dfsg1-1) date mar. 27 avril 2021 11:46:40 CEST*
%MOMM*%
%LPD*%
G01*
G04 APERTURE LIST*
%ADD10C,0.300000*%
%ADD11C,0.200000*%
%ADD12C,0.100000*%
G04 APERTURE END LIST*
D10*
X80986571Y-74449142D02*
X81138357Y-74520571D01*
X81424071Y-74520571D01*
X81558000Y-74449142D01*
X81611571Y-74306285D01*
X81540142Y-73734857D01*
X81450857Y-73592000D01*
X81299071Y-73520571D01*
X81013357Y-73520571D01*
X80879428Y-73592000D01*
X80825857Y-73734857D01*
X80843714Y-73877714D01*
X81575857Y-74020571D01*
X80308000Y-73020571D02*
X79450857Y-73020571D01*
X80066928Y-74520571D02*
X79879428Y-73020571D01*
X79013357Y-73520571D02*
X79200857Y-75020571D01*
X79022285Y-73592000D02*
X78870500Y-73520571D01*
X78584785Y-73520571D01*
X78450857Y-73592000D01*
X78388357Y-73663428D01*
X78334785Y-73806285D01*
X78388357Y-74234857D01*
X78477642Y-74377714D01*
X78558000Y-74449142D01*
X78709785Y-74520571D01*
X78995500Y-74520571D01*
X79129428Y-74449142D01*
X77781214Y-74520571D02*
X77656214Y-73520571D01*
X77691928Y-73806285D02*
X77602642Y-73663428D01*
X77522285Y-73592000D01*
X77370500Y-73520571D01*
X77227642Y-73520571D01*
X76638357Y-74520571D02*
X76772285Y-74449142D01*
X76834785Y-74377714D01*
X76888357Y-74234857D01*
X76834785Y-73806285D01*
X76745500Y-73663428D01*
X76665142Y-73592000D01*
X76513357Y-73520571D01*
X76299071Y-73520571D01*
X76165142Y-73592000D01*
X76102642Y-73663428D01*
X76049071Y-73806285D01*
X76102642Y-74234857D01*
X76191928Y-74377714D01*
X76272285Y-74449142D01*
X76424071Y-74520571D01*
X76638357Y-74520571D01*
X75638357Y-74520571D02*
X74727642Y-73520571D01*
X75513357Y-73520571D02*
X74852642Y-74520571D01*
D11*
X80947047Y-76024761D02*
X81048238Y-76072380D01*
X81238714Y-76072380D01*
X81328000Y-76024761D01*
X81363714Y-75929523D01*
X81316095Y-75548571D01*
X81256571Y-75453333D01*
X81155380Y-75405714D01*
X80964904Y-75405714D01*
X80875619Y-75453333D01*
X80839904Y-75548571D01*
X80851809Y-75643809D01*
X81339904Y-75739047D01*
X80494666Y-75072380D02*
X79923238Y-75072380D01*
X80333952Y-76072380D02*
X80208952Y-75072380D01*
X79328000Y-76024761D02*
X79429190Y-76072380D01*
X79619666Y-76072380D01*
X79708952Y-76024761D01*
X79744666Y-75929523D01*
X79697047Y-75548571D01*
X79637523Y-75453333D01*
X79536333Y-75405714D01*
X79345857Y-75405714D01*
X79256571Y-75453333D01*
X79220857Y-75548571D01*
X79232761Y-75643809D01*
X79720857Y-75739047D01*
X78953000Y-76072380D02*
X78345857Y-75405714D01*
X78869666Y-75405714D02*
X78429190Y-76072380D01*
X78107761Y-75405714D02*
X77726809Y-75405714D01*
X77923238Y-75072380D02*
X78030380Y-75929523D01*
X77994666Y-76024761D01*
X77905380Y-76072380D01*
X77810142Y-76072380D01*
X77476809Y-76072380D02*
X77393476Y-75405714D01*
X77351809Y-75072380D02*
X77405380Y-75120000D01*
X77363714Y-75167619D01*
X77310142Y-75120000D01*
X77351809Y-75072380D01*
X77363714Y-75167619D01*
X76857761Y-76072380D02*
X76947047Y-76024761D01*
X76982761Y-75929523D01*
X76875619Y-75072380D01*
X76089904Y-76024761D02*
X76191095Y-76072380D01*
X76381571Y-76072380D01*
X76470857Y-76024761D01*
X76506571Y-75929523D01*
X76458952Y-75548571D01*
X76399428Y-75453333D01*
X76298238Y-75405714D01*
X76107761Y-75405714D01*
X76018476Y-75453333D01*
X75982761Y-75548571D01*
X75994666Y-75643809D01*
X76482761Y-75739047D01*
X74857761Y-76072380D02*
X74732761Y-75072380D01*
X74351809Y-75072380D01*
X74262523Y-75120000D01*
X74220857Y-75167619D01*
X74185142Y-75262857D01*
X74203000Y-75405714D01*
X74262523Y-75500952D01*
X74316095Y-75548571D01*
X74417285Y-75596190D01*
X74798238Y-75596190D01*
X73857761Y-76072380D02*
X73774428Y-75405714D01*
X73798238Y-75596190D02*
X73738714Y-75500952D01*
X73685142Y-75453333D01*
X73583952Y-75405714D01*
X73488714Y-75405714D01*
X73095857Y-76072380D02*
X73185142Y-76024761D01*
X73226809Y-75977142D01*
X73262523Y-75881904D01*
X73226809Y-75596190D01*
X73167285Y-75500952D01*
X73113714Y-75453333D01*
X73012523Y-75405714D01*
X72869666Y-75405714D01*
X72780380Y-75453333D01*
X72738714Y-75500952D01*
X72703000Y-75596190D01*
X72738714Y-75881904D01*
X72798238Y-75977142D01*
X72851809Y-76024761D01*
X72953000Y-76072380D01*
X73095857Y-76072380D01*
X72429190Y-76072380D02*
X71822047Y-75405714D01*
X72345857Y-75405714D02*
X71905380Y-76072380D01*
X71524428Y-76072380D02*
X71441095Y-75405714D01*
X71399428Y-75072380D02*
X71453000Y-75120000D01*
X71411333Y-75167619D01*
X71357761Y-75120000D01*
X71399428Y-75072380D01*
X71411333Y-75167619D01*
X71048238Y-76072380D02*
X70964904Y-75405714D01*
X70976809Y-75500952D02*
X70923238Y-75453333D01*
X70822047Y-75405714D01*
X70679190Y-75405714D01*
X70589904Y-75453333D01*
X70554190Y-75548571D01*
X70619666Y-76072380D01*
X70554190Y-75548571D02*
X70494666Y-75453333D01*
X70393476Y-75405714D01*
X70250619Y-75405714D01*
X70161333Y-75453333D01*
X70125619Y-75548571D01*
X70191095Y-76072380D01*
X69714904Y-76072380D02*
X69631571Y-75405714D01*
X69589904Y-75072380D02*
X69643476Y-75120000D01*
X69601809Y-75167619D01*
X69548238Y-75120000D01*
X69589904Y-75072380D01*
X69601809Y-75167619D01*
X69298238Y-75405714D02*
X68917285Y-75405714D01*
X69113714Y-75072380D02*
X69220857Y-75929523D01*
X69185142Y-76024761D01*
X69095857Y-76072380D01*
X69000619Y-76072380D01*
X68679190Y-75405714D02*
X68524428Y-76072380D01*
X68203000Y-75405714D02*
X68524428Y-76072380D01*
X68649428Y-76310476D01*
X68703000Y-76358095D01*
X68804190Y-76405714D01*
X67185142Y-76024761D02*
X67048238Y-76072380D01*
X66810142Y-76072380D01*
X66708952Y-76024761D01*
X66655380Y-75977142D01*
X66595857Y-75881904D01*
X66583952Y-75786666D01*
X66619666Y-75691428D01*
X66661333Y-75643809D01*
X66750619Y-75596190D01*
X66935142Y-75548571D01*
X67024428Y-75500952D01*
X67066095Y-75453333D01*
X67101809Y-75358095D01*
X67089904Y-75262857D01*
X67030380Y-75167619D01*
X66976809Y-75120000D01*
X66875619Y-75072380D01*
X66637523Y-75072380D01*
X66500619Y-75120000D01*
X66203000Y-75405714D02*
X66095857Y-76072380D01*
X65845857Y-75596190D01*
X65714904Y-76072380D01*
X65441095Y-75405714D01*
X65143476Y-76072380D02*
X65060142Y-75405714D01*
X65018476Y-75072380D02*
X65072047Y-75120000D01*
X65030380Y-75167619D01*
X64976809Y-75120000D01*
X65018476Y-75072380D01*
X65030380Y-75167619D01*
X64726809Y-75405714D02*
X64345857Y-75405714D01*
X64542285Y-75072380D02*
X64649428Y-75929523D01*
X64613714Y-76024761D01*
X64524428Y-76072380D01*
X64429190Y-76072380D01*
X63661333Y-76024761D02*
X63762523Y-76072380D01*
X63953000Y-76072380D01*
X64042285Y-76024761D01*
X64083952Y-75977142D01*
X64119666Y-75881904D01*
X64083952Y-75596190D01*
X64024428Y-75500952D01*
X63970857Y-75453333D01*
X63869666Y-75405714D01*
X63679190Y-75405714D01*
X63589904Y-75453333D01*
X63238714Y-76072380D02*
X63113714Y-75072380D01*
X62810142Y-76072380D02*
X62744666Y-75548571D01*
X62780380Y-75453333D01*
X62869666Y-75405714D01*
X63012523Y-75405714D01*
X63113714Y-75453333D01*
X63167285Y-75500952D01*
D12*
G36*
X86537241Y-76197785D02*
X86660301Y-76248759D01*
X86771053Y-76322761D01*
X86865239Y-76416947D01*
X86939241Y-76527699D01*
X86990215Y-76650759D01*
X87016200Y-76781399D01*
X87016200Y-76914601D01*
X86990215Y-77045241D01*
X86939241Y-77168301D01*
X86865239Y-77279053D01*
X86771053Y-77373239D01*
X86660301Y-77447241D01*
X86537241Y-77498215D01*
X86406601Y-77524200D01*
X86273399Y-77524200D01*
X86142759Y-77498215D01*
X86019699Y-77447241D01*
X85908947Y-77373239D01*
X85814761Y-77279053D01*
X85740759Y-77168301D01*
X85689785Y-77045241D01*
X85663800Y-76914601D01*
X85663800Y-76781399D01*
X85689785Y-76650759D01*
X85740759Y-76527699D01*
X85814761Y-76416947D01*
X85908947Y-76322761D01*
X86019699Y-76248759D01*
X86142759Y-76197785D01*
X86273399Y-76171800D01*
X86406601Y-76171800D01*
X86537241Y-76197785D01*
X86537241Y-76197785D01*
G37*
G36*
X89446114Y-71708934D02*
X89651907Y-71729203D01*
X89915959Y-71809302D01*
X90047986Y-71849352D01*
X90094188Y-71874048D01*
X90413012Y-72044463D01*
X90732961Y-72307039D01*
X90995537Y-72626988D01*
X91138503Y-72894459D01*
X91190648Y-72992014D01*
X91190648Y-72992015D01*
X91310797Y-73388093D01*
X91351366Y-73800000D01*
X91310797Y-74211907D01*
X91294640Y-74265168D01*
X91190648Y-74607986D01*
X91162301Y-74661019D01*
X90995537Y-74973012D01*
X90732961Y-75292961D01*
X90413012Y-75555537D01*
X90160959Y-75690262D01*
X90047986Y-75750648D01*
X89915959Y-75790698D01*
X89651907Y-75870797D01*
X89446114Y-75891066D01*
X89343219Y-75901200D01*
X89136781Y-75901200D01*
X89033886Y-75891066D01*
X88828093Y-75870797D01*
X88564041Y-75790698D01*
X88432014Y-75750648D01*
X88383511Y-75724722D01*
X88359795Y-75712046D01*
X88350115Y-75707395D01*
X85920373Y-74666077D01*
X85908068Y-74660073D01*
X85903249Y-74657421D01*
X85902502Y-74656909D01*
X85890716Y-74649747D01*
X85874837Y-74641259D01*
X85740795Y-74551696D01*
X85719642Y-74534336D01*
X85605664Y-74420358D01*
X85588304Y-74399205D01*
X85498743Y-74265168D01*
X85485853Y-74241050D01*
X85424159Y-74092109D01*
X85422370Y-74086211D01*
X85422367Y-74086204D01*
X85418010Y-74071840D01*
X85418009Y-74071833D01*
X85416218Y-74065930D01*
X85384769Y-73907825D01*
X85382088Y-73880604D01*
X85382088Y-73719396D01*
X85384769Y-73692175D01*
X85416218Y-73534070D01*
X85418009Y-73528167D01*
X85418010Y-73528160D01*
X85422367Y-73513796D01*
X85422370Y-73513789D01*
X85424159Y-73507891D01*
X85485853Y-73358950D01*
X85498743Y-73334832D01*
X85588304Y-73200795D01*
X85605664Y-73179642D01*
X85719642Y-73065664D01*
X85740795Y-73048304D01*
X85874833Y-72958743D01*
X85891115Y-72950040D01*
X85901950Y-72943524D01*
X85904270Y-72941964D01*
X85908635Y-72939596D01*
X85920194Y-72933999D01*
X88350115Y-71892605D01*
X88359795Y-71887954D01*
X88385812Y-71874048D01*
X88432014Y-71849352D01*
X88564041Y-71809302D01*
X88828093Y-71729203D01*
X89033886Y-71708934D01*
X89136781Y-71698800D01*
X89343219Y-71698800D01*
X89446114Y-71708934D01*
X89446114Y-71708934D01*
G37*
G36*
X86537241Y-70249785D02*
X86660301Y-70300759D01*
X86771053Y-70374761D01*
X86865239Y-70468947D01*
X86939241Y-70579699D01*
X86990215Y-70702759D01*
X87016200Y-70833399D01*
X87016200Y-70966601D01*
X86990215Y-71097241D01*
X86939241Y-71220301D01*
X86865239Y-71331053D01*
X86771053Y-71425239D01*
X86660301Y-71499241D01*
X86537241Y-71550215D01*
X86406601Y-71576200D01*
X86273399Y-71576200D01*
X86142759Y-71550215D01*
X86019699Y-71499241D01*
X85908947Y-71425239D01*
X85814761Y-71331053D01*
X85740759Y-71220301D01*
X85689785Y-71097241D01*
X85663800Y-70966601D01*
X85663800Y-70833399D01*
X85689785Y-70702759D01*
X85740759Y-70579699D01*
X85814761Y-70468947D01*
X85908947Y-70374761D01*
X86019699Y-70300759D01*
X86142759Y-70249785D01*
X86273399Y-70223800D01*
X86406601Y-70223800D01*
X86537241Y-70249785D01*
X86537241Y-70249785D01*
G37*
G36*
X63889241Y-70227785D02*
X64012301Y-70278759D01*
X64123053Y-70352761D01*
X64217239Y-70446947D01*
X64291241Y-70557699D01*
X64342215Y-70680759D01*
X64368200Y-70811399D01*
X64368200Y-70944601D01*
X64342215Y-71075241D01*
X64291241Y-71198301D01*
X64217239Y-71309053D01*
X64123053Y-71403239D01*
X64012301Y-71477241D01*
X63889241Y-71528215D01*
X63758601Y-71554200D01*
X63625399Y-71554200D01*
X63494759Y-71528215D01*
X63371699Y-71477241D01*
X63260947Y-71403239D01*
X63166761Y-71309053D01*
X63092759Y-71198301D01*
X63041785Y-71075241D01*
X63015800Y-70944601D01*
X63015800Y-70811399D01*
X63041785Y-70680759D01*
X63092759Y-70557699D01*
X63166761Y-70446947D01*
X63260947Y-70352761D01*
X63371699Y-70278759D01*
X63494759Y-70227785D01*
X63625399Y-70201800D01*
X63758601Y-70201800D01*
X63889241Y-70227785D01*
X63889241Y-70227785D01*
G37*
G36*
X80744835Y-69577932D02*
X80779275Y-69588379D01*
X80811009Y-69605342D01*
X80838828Y-69628172D01*
X80861658Y-69655991D01*
X80878621Y-69687725D01*
X80889068Y-69722165D01*
X80893200Y-69764117D01*
X80893200Y-71235883D01*
X80889068Y-71277835D01*
X80878621Y-71312275D01*
X80861658Y-71344009D01*
X80838828Y-71371828D01*
X80811009Y-71394658D01*
X80779275Y-71411621D01*
X80744835Y-71422068D01*
X80702883Y-71426200D01*
X78981117Y-71426200D01*
X78939165Y-71422068D01*
X78904725Y-71411621D01*
X78872991Y-71394658D01*
X78845172Y-71371828D01*
X78822342Y-71344009D01*
X78805379Y-71312275D01*
X78794932Y-71277835D01*
X78790800Y-71235883D01*
X78790800Y-69764117D01*
X78794932Y-69722165D01*
X78805379Y-69687725D01*
X78822342Y-69655991D01*
X78845172Y-69628172D01*
X78872991Y-69605342D01*
X78904725Y-69588379D01*
X78939165Y-69577932D01*
X78981117Y-69573800D01*
X80702883Y-69573800D01*
X80744835Y-69577932D01*
X80744835Y-69577932D01*
G37*
G36*
X89446114Y-65908934D02*
X89651907Y-65929203D01*
X89915959Y-66009302D01*
X90047986Y-66049352D01*
X90113797Y-66084529D01*
X90413012Y-66244463D01*
X90732961Y-66507039D01*
X90995537Y-66826988D01*
X91127461Y-67073800D01*
X91190648Y-67192014D01*
X91190648Y-67192015D01*
X91310797Y-67588093D01*
X91351366Y-68000000D01*
X91310797Y-68411907D01*
X91294640Y-68465168D01*
X91190648Y-68807986D01*
X91162301Y-68861019D01*
X90995537Y-69173012D01*
X90732961Y-69492961D01*
X90413012Y-69755537D01*
X90160959Y-69890262D01*
X90047986Y-69950648D01*
X90004695Y-69963780D01*
X89651907Y-70070797D01*
X89446114Y-70091066D01*
X89343219Y-70101200D01*
X89136781Y-70101200D01*
X89033886Y-70091066D01*
X88828093Y-70070797D01*
X88475305Y-69963780D01*
X88432014Y-69950648D01*
X88383511Y-69924722D01*
X88359795Y-69912046D01*
X88350115Y-69907395D01*
X85920373Y-68866077D01*
X85908068Y-68860073D01*
X85903249Y-68857421D01*
X85902502Y-68856909D01*
X85890716Y-68849747D01*
X85874837Y-68841259D01*
X85740795Y-68751696D01*
X85719642Y-68734336D01*
X85605664Y-68620358D01*
X85588304Y-68599205D01*
X85498743Y-68465168D01*
X85485853Y-68441050D01*
X85424159Y-68292109D01*
X85422370Y-68286211D01*
X85422367Y-68286204D01*
X85418010Y-68271840D01*
X85418009Y-68271833D01*
X85416218Y-68265930D01*
X85384769Y-68107825D01*
X85382088Y-68080604D01*
X85382088Y-67919396D01*
X85384769Y-67892175D01*
X85416218Y-67734070D01*
X85418009Y-67728167D01*
X85418010Y-67728160D01*
X85422367Y-67713796D01*
X85422370Y-67713789D01*
X85424159Y-67707891D01*
X85485853Y-67558950D01*
X85498743Y-67534832D01*
X85588304Y-67400795D01*
X85605664Y-67379642D01*
X85719642Y-67265664D01*
X85740795Y-67248304D01*
X85874833Y-67158743D01*
X85891115Y-67150040D01*
X85901950Y-67143524D01*
X85904270Y-67141964D01*
X85908635Y-67139596D01*
X85920194Y-67133999D01*
X88350115Y-66092605D01*
X88359795Y-66087954D01*
X88400960Y-66065951D01*
X88432014Y-66049352D01*
X88564041Y-66009302D01*
X88828093Y-65929203D01*
X89033886Y-65908934D01*
X89136781Y-65898800D01*
X89343219Y-65898800D01*
X89446114Y-65908934D01*
X89446114Y-65908934D01*
G37*
G36*
X60998114Y-65908934D02*
X61203907Y-65929203D01*
X61467959Y-66009302D01*
X61599986Y-66049352D01*
X61631040Y-66065951D01*
X61672205Y-66087954D01*
X61681885Y-66092605D01*
X64111627Y-67133923D01*
X64123932Y-67139927D01*
X64128751Y-67142579D01*
X64129498Y-67143091D01*
X64141284Y-67150253D01*
X64157163Y-67158741D01*
X64291205Y-67248304D01*
X64312358Y-67265664D01*
X64426336Y-67379642D01*
X64443696Y-67400795D01*
X64533257Y-67534832D01*
X64546147Y-67558950D01*
X64607841Y-67707891D01*
X64609630Y-67713789D01*
X64609633Y-67713796D01*
X64613990Y-67728160D01*
X64613991Y-67728167D01*
X64615782Y-67734070D01*
X64647231Y-67892175D01*
X64649912Y-67919396D01*
X64649912Y-68080604D01*
X64647231Y-68107825D01*
X64615782Y-68265930D01*
X64613991Y-68271833D01*
X64613990Y-68271840D01*
X64609633Y-68286204D01*
X64609630Y-68286211D01*
X64607841Y-68292109D01*
X64546147Y-68441050D01*
X64533257Y-68465168D01*
X64443696Y-68599205D01*
X64426336Y-68620358D01*
X64312358Y-68734336D01*
X64291205Y-68751696D01*
X64157167Y-68841257D01*
X64140885Y-68849960D01*
X64130050Y-68856476D01*
X64127730Y-68858036D01*
X64123365Y-68860404D01*
X64111806Y-68866001D01*
X61681885Y-69907395D01*
X61672205Y-69912046D01*
X61648489Y-69924722D01*
X61599986Y-69950648D01*
X61556695Y-69963780D01*
X61203907Y-70070797D01*
X60998114Y-70091066D01*
X60895219Y-70101200D01*
X60688781Y-70101200D01*
X60585886Y-70091066D01*
X60380093Y-70070797D01*
X60027305Y-69963780D01*
X59984014Y-69950648D01*
X59871041Y-69890262D01*
X59618988Y-69755537D01*
X59299039Y-69492961D01*
X59036463Y-69173012D01*
X58869699Y-68861019D01*
X58841352Y-68807986D01*
X58737360Y-68465168D01*
X58721203Y-68411907D01*
X58680634Y-68000000D01*
X58721203Y-67588093D01*
X58841352Y-67192015D01*
X58841352Y-67192014D01*
X58904539Y-67073800D01*
X59036463Y-66826988D01*
X59299039Y-66507039D01*
X59618988Y-66244463D01*
X59918203Y-66084529D01*
X59984014Y-66049352D01*
X60116041Y-66009302D01*
X60380093Y-65929203D01*
X60585886Y-65908934D01*
X60688781Y-65898800D01*
X60895219Y-65898800D01*
X60998114Y-65908934D01*
X60998114Y-65908934D01*
G37*
G36*
X80148563Y-67087201D02*
X80148566Y-67087202D01*
X80148567Y-67087202D01*
X80323156Y-67140163D01*
X80323158Y-67140164D01*
X80323161Y-67140165D01*
X80484059Y-67226166D01*
X80625091Y-67341909D01*
X80740834Y-67482941D01*
X80826835Y-67643839D01*
X80826836Y-67643842D01*
X80826837Y-67643844D01*
X80879798Y-67818433D01*
X80879799Y-67818437D01*
X80897681Y-68000000D01*
X80879799Y-68181563D01*
X80879798Y-68181566D01*
X80879798Y-68181567D01*
X80848057Y-68286204D01*
X80826835Y-68356161D01*
X80740834Y-68517059D01*
X80625091Y-68658091D01*
X80484059Y-68773834D01*
X80323161Y-68859835D01*
X80323158Y-68859836D01*
X80323156Y-68859837D01*
X80148567Y-68912798D01*
X80148566Y-68912798D01*
X80148563Y-68912799D01*
X80012500Y-68926200D01*
X79671500Y-68926200D01*
X79535437Y-68912799D01*
X79535434Y-68912798D01*
X79535433Y-68912798D01*
X79360844Y-68859837D01*
X79360842Y-68859836D01*
X79360839Y-68859835D01*
X79199941Y-68773834D01*
X79058909Y-68658091D01*
X78943166Y-68517059D01*
X78857165Y-68356161D01*
X78835944Y-68286204D01*
X78804202Y-68181567D01*
X78804202Y-68181566D01*
X78804201Y-68181563D01*
X78786319Y-68000000D01*
X78804201Y-67818437D01*
X78804202Y-67818433D01*
X78857163Y-67643844D01*
X78857164Y-67643842D01*
X78857165Y-67643839D01*
X78943166Y-67482941D01*
X79058909Y-67341909D01*
X79199941Y-67226166D01*
X79360839Y-67140165D01*
X79360842Y-67140164D01*
X79360844Y-67140163D01*
X79535433Y-67087202D01*
X79535434Y-67087202D01*
X79535437Y-67087201D01*
X79671500Y-67073800D01*
X80012500Y-67073800D01*
X80148563Y-67087201D01*
X80148563Y-67087201D01*
G37*
G36*
X80148563Y-64587201D02*
X80148566Y-64587202D01*
X80148567Y-64587202D01*
X80323156Y-64640163D01*
X80323158Y-64640164D01*
X80323161Y-64640165D01*
X80484059Y-64726166D01*
X80625091Y-64841909D01*
X80740834Y-64982941D01*
X80826835Y-65143839D01*
X80879799Y-65318437D01*
X80897681Y-65500000D01*
X80879799Y-65681563D01*
X80879798Y-65681566D01*
X80879798Y-65681567D01*
X80839560Y-65814215D01*
X80826835Y-65856161D01*
X80740834Y-66017059D01*
X80625091Y-66158091D01*
X80484059Y-66273834D01*
X80323161Y-66359835D01*
X80323158Y-66359836D01*
X80323156Y-66359837D01*
X80148567Y-66412798D01*
X80148566Y-66412798D01*
X80148563Y-66412799D01*
X80012500Y-66426200D01*
X79671500Y-66426200D01*
X79535437Y-66412799D01*
X79535434Y-66412798D01*
X79535433Y-66412798D01*
X79360844Y-66359837D01*
X79360842Y-66359836D01*
X79360839Y-66359835D01*
X79199941Y-66273834D01*
X79058909Y-66158091D01*
X78943166Y-66017059D01*
X78857165Y-65856161D01*
X78844441Y-65814215D01*
X78804202Y-65681567D01*
X78804202Y-65681566D01*
X78804201Y-65681563D01*
X78786319Y-65500000D01*
X78804201Y-65318437D01*
X78857165Y-65143839D01*
X78943166Y-64982941D01*
X79058909Y-64841909D01*
X79199941Y-64726166D01*
X79360839Y-64640165D01*
X79360842Y-64640164D01*
X79360844Y-64640163D01*
X79535433Y-64587202D01*
X79535434Y-64587202D01*
X79535437Y-64587201D01*
X79671500Y-64573800D01*
X80012500Y-64573800D01*
X80148563Y-64587201D01*
X80148563Y-64587201D01*
G37*
G36*
X86537241Y-64513785D02*
X86660301Y-64564759D01*
X86771053Y-64638761D01*
X86865239Y-64732947D01*
X86939241Y-64843699D01*
X86990215Y-64966759D01*
X87016200Y-65097399D01*
X87016200Y-65230601D01*
X86990215Y-65361241D01*
X86939241Y-65484301D01*
X86865239Y-65595053D01*
X86771053Y-65689239D01*
X86660301Y-65763241D01*
X86537241Y-65814215D01*
X86406601Y-65840200D01*
X86273399Y-65840200D01*
X86142759Y-65814215D01*
X86019699Y-65763241D01*
X85908947Y-65689239D01*
X85814761Y-65595053D01*
X85740759Y-65484301D01*
X85689785Y-65361241D01*
X85663800Y-65230601D01*
X85663800Y-65097399D01*
X85689785Y-64966759D01*
X85740759Y-64843699D01*
X85814761Y-64732947D01*
X85908947Y-64638761D01*
X86019699Y-64564759D01*
X86142759Y-64513785D01*
X86273399Y-64487800D01*
X86406601Y-64487800D01*
X86537241Y-64513785D01*
X86537241Y-64513785D01*
G37*
G36*
X63889241Y-64385785D02*
X64012301Y-64436759D01*
X64123053Y-64510761D01*
X64217239Y-64604947D01*
X64291241Y-64715699D01*
X64342215Y-64838759D01*
X64368200Y-64969399D01*
X64368200Y-65102601D01*
X64342215Y-65233241D01*
X64291241Y-65356301D01*
X64217239Y-65467053D01*
X64123053Y-65561239D01*
X64012301Y-65635241D01*
X63889241Y-65686215D01*
X63758601Y-65712200D01*
X63625399Y-65712200D01*
X63494759Y-65686215D01*
X63371699Y-65635241D01*
X63260947Y-65561239D01*
X63166761Y-65467053D01*
X63092759Y-65356301D01*
X63041785Y-65233241D01*
X63015800Y-65102601D01*
X63015800Y-64969399D01*
X63041785Y-64838759D01*
X63092759Y-64715699D01*
X63166761Y-64604947D01*
X63260947Y-64510761D01*
X63371699Y-64436759D01*
X63494759Y-64385785D01*
X63625399Y-64359800D01*
X63758601Y-64359800D01*
X63889241Y-64385785D01*
X63889241Y-64385785D01*
G37*
G36*
X89446114Y-60108934D02*
X89651907Y-60129203D01*
X89915959Y-60209302D01*
X90047986Y-60249352D01*
X90094188Y-60274048D01*
X90413012Y-60444463D01*
X90732961Y-60707039D01*
X90995537Y-61026988D01*
X91138503Y-61294458D01*
X91190648Y-61392014D01*
X91190648Y-61392015D01*
X91310797Y-61788093D01*
X91351366Y-62200000D01*
X91310797Y-62611907D01*
X91294640Y-62665168D01*
X91190648Y-63007986D01*
X91162301Y-63061019D01*
X90995537Y-63373012D01*
X90732961Y-63692961D01*
X90413012Y-63955537D01*
X90160959Y-64090262D01*
X90047986Y-64150648D01*
X89915959Y-64190698D01*
X89651907Y-64270797D01*
X89446114Y-64291066D01*
X89343219Y-64301200D01*
X89136781Y-64301200D01*
X89033886Y-64291066D01*
X88828093Y-64270797D01*
X88564041Y-64190698D01*
X88432014Y-64150648D01*
X88383511Y-64124722D01*
X88359795Y-64112046D01*
X88350115Y-64107395D01*
X85920373Y-63066077D01*
X85908068Y-63060073D01*
X85903249Y-63057421D01*
X85902502Y-63056909D01*
X85890716Y-63049747D01*
X85874837Y-63041259D01*
X85740795Y-62951696D01*
X85719642Y-62934336D01*
X85605664Y-62820358D01*
X85588304Y-62799205D01*
X85498743Y-62665168D01*
X85485853Y-62641050D01*
X85424159Y-62492109D01*
X85422370Y-62486211D01*
X85422367Y-62486204D01*
X85418010Y-62471840D01*
X85418009Y-62471833D01*
X85416218Y-62465930D01*
X85384769Y-62307825D01*
X85382088Y-62280604D01*
X85382088Y-62119396D01*
X85384769Y-62092175D01*
X85416218Y-61934070D01*
X85418009Y-61928167D01*
X85418010Y-61928160D01*
X85422367Y-61913796D01*
X85422370Y-61913789D01*
X85424159Y-61907891D01*
X85485853Y-61758950D01*
X85498743Y-61734832D01*
X85588304Y-61600795D01*
X85605664Y-61579642D01*
X85719642Y-61465664D01*
X85740795Y-61448304D01*
X85874833Y-61358743D01*
X85891115Y-61350040D01*
X85901950Y-61343524D01*
X85904270Y-61341964D01*
X85908635Y-61339596D01*
X85920194Y-61333999D01*
X88350115Y-60292605D01*
X88359795Y-60287954D01*
X88385812Y-60274048D01*
X88432014Y-60249352D01*
X88564041Y-60209302D01*
X88828093Y-60129203D01*
X89033886Y-60108934D01*
X89136781Y-60098800D01*
X89343219Y-60098800D01*
X89446114Y-60108934D01*
X89446114Y-60108934D01*
G37*
G36*
X86537241Y-58671785D02*
X86660301Y-58722759D01*
X86771053Y-58796761D01*
X86865239Y-58890947D01*
X86939241Y-59001699D01*
X86990215Y-59124759D01*
X87016200Y-59255399D01*
X87016200Y-59388601D01*
X86990215Y-59519241D01*
X86939241Y-59642301D01*
X86865239Y-59753053D01*
X86771053Y-59847239D01*
X86660301Y-59921241D01*
X86537241Y-59972215D01*
X86406601Y-59998200D01*
X86273399Y-59998200D01*
X86142759Y-59972215D01*
X86019699Y-59921241D01*
X85908947Y-59847239D01*
X85814761Y-59753053D01*
X85740759Y-59642301D01*
X85689785Y-59519241D01*
X85663800Y-59388601D01*
X85663800Y-59255399D01*
X85689785Y-59124759D01*
X85740759Y-59001699D01*
X85814761Y-58890947D01*
X85908947Y-58796761D01*
X86019699Y-58722759D01*
X86142759Y-58671785D01*
X86273399Y-58645800D01*
X86406601Y-58645800D01*
X86537241Y-58671785D01*
X86537241Y-58671785D01*
G37*
M02*
