%TF.GenerationSoftware,KiCad,Pcbnew,5.0.2+dfsg1-1*%
%TF.CreationDate,2021-04-27T11:46:40+02:00*%
%TF.ProjectId,eTprox,65547072-6f78-42e6-9b69-6361645f7063,v02*%
%TF.SameCoordinates,Original*%
%TF.FileFunction,Legend,Top*%
%TF.FilePolarity,Positive*%
%FSLAX46Y46*%
G04 Gerber Fmt 4.6, Leading zero omitted, Abs format (unit mm)*
G04 Created by KiCad (PCBNEW 5.0.2+dfsg1-1) date mar. 27 avril 2021 11:46:40 CEST*
%MOMM*%
%LPD*%
G01*
G04 APERTURE LIST*
%ADD10C,0.300000*%
%ADD11C,0.120000*%
%ADD12C,0.150000*%
G04 APERTURE END LIST*
D10*
X68801714Y-49981428D02*
X68873142Y-49910000D01*
X69016000Y-49838571D01*
X69373142Y-49838571D01*
X69516000Y-49910000D01*
X69587428Y-49981428D01*
X69658857Y-50124285D01*
X69658857Y-50267142D01*
X69587428Y-50481428D01*
X68730285Y-51338571D01*
X69658857Y-51338571D01*
X70516000Y-50481428D02*
X70373142Y-50410000D01*
X70301714Y-50338571D01*
X70230285Y-50195714D01*
X70230285Y-50124285D01*
X70301714Y-49981428D01*
X70373142Y-49910000D01*
X70516000Y-49838571D01*
X70801714Y-49838571D01*
X70944571Y-49910000D01*
X71016000Y-49981428D01*
X71087428Y-50124285D01*
X71087428Y-50195714D01*
X71016000Y-50338571D01*
X70944571Y-50410000D01*
X70801714Y-50481428D01*
X70516000Y-50481428D01*
X70373142Y-50552857D01*
X70301714Y-50624285D01*
X70230285Y-50767142D01*
X70230285Y-51052857D01*
X70301714Y-51195714D01*
X70373142Y-51267142D01*
X70516000Y-51338571D01*
X70801714Y-51338571D01*
X70944571Y-51267142D01*
X71016000Y-51195714D01*
X71087428Y-51052857D01*
X71087428Y-50767142D01*
X71016000Y-50624285D01*
X70944571Y-50552857D01*
X70801714Y-50481428D01*
X71801714Y-51267142D02*
X71801714Y-51338571D01*
X71730285Y-51481428D01*
X71658857Y-51552857D01*
X73087428Y-50338571D02*
X73087428Y-51338571D01*
X72730285Y-49767142D02*
X72373142Y-50838571D01*
X73301714Y-50838571D01*
X74516000Y-50338571D02*
X74516000Y-51338571D01*
X74158857Y-49767142D02*
X73801714Y-50838571D01*
X74730285Y-50838571D01*
X75516000Y-50481428D02*
X75373142Y-50410000D01*
X75301714Y-50338571D01*
X75230285Y-50195714D01*
X75230285Y-50124285D01*
X75301714Y-49981428D01*
X75373142Y-49910000D01*
X75516000Y-49838571D01*
X75801714Y-49838571D01*
X75944571Y-49910000D01*
X76016000Y-49981428D01*
X76087428Y-50124285D01*
X76087428Y-50195714D01*
X76016000Y-50338571D01*
X75944571Y-50410000D01*
X75801714Y-50481428D01*
X75516000Y-50481428D01*
X75373142Y-50552857D01*
X75301714Y-50624285D01*
X75230285Y-50767142D01*
X75230285Y-51052857D01*
X75301714Y-51195714D01*
X75373142Y-51267142D01*
X75516000Y-51338571D01*
X75801714Y-51338571D01*
X75944571Y-51267142D01*
X76016000Y-51195714D01*
X76087428Y-51052857D01*
X76087428Y-50767142D01*
X76016000Y-50624285D01*
X75944571Y-50552857D01*
X75801714Y-50481428D01*
X77873142Y-51338571D02*
X77873142Y-50338571D01*
X77873142Y-50481428D02*
X77944571Y-50410000D01*
X78087428Y-50338571D01*
X78301714Y-50338571D01*
X78444571Y-50410000D01*
X78516000Y-50552857D01*
X78516000Y-51338571D01*
X78516000Y-50552857D02*
X78587428Y-50410000D01*
X78730285Y-50338571D01*
X78944571Y-50338571D01*
X79087428Y-50410000D01*
X79158857Y-50552857D01*
X79158857Y-51338571D01*
X79873142Y-51338571D02*
X79873142Y-50338571D01*
X79873142Y-50481428D02*
X79944571Y-50410000D01*
X80087428Y-50338571D01*
X80301714Y-50338571D01*
X80444571Y-50410000D01*
X80516000Y-50552857D01*
X80516000Y-51338571D01*
X80516000Y-50552857D02*
X80587428Y-50410000D01*
X80730285Y-50338571D01*
X80944571Y-50338571D01*
X81087428Y-50410000D01*
X81158857Y-50552857D01*
X81158857Y-51338571D01*
X60792000Y-52760000D02*
X89240000Y-52760000D01*
X60792000Y-57840000D02*
X60792000Y-52173579D01*
X89240000Y-57840000D02*
X89240000Y-52173579D01*
X89240000Y-52760000D02*
X88113496Y-53346421D01*
X89240000Y-52760000D02*
X88113496Y-52173579D01*
X60792000Y-52760000D02*
X61918504Y-53346421D01*
X60792000Y-52760000D02*
X61918504Y-52173579D01*
X99638571Y-61658714D02*
X99710000Y-61730142D01*
X99781428Y-61873000D01*
X99781428Y-62230142D01*
X99710000Y-62373000D01*
X99638571Y-62444428D01*
X99495714Y-62515857D01*
X99352857Y-62515857D01*
X99138571Y-62444428D01*
X98281428Y-61587285D01*
X98281428Y-62515857D01*
X99781428Y-63444428D02*
X99781428Y-63587285D01*
X99710000Y-63730142D01*
X99638571Y-63801571D01*
X99495714Y-63873000D01*
X99210000Y-63944428D01*
X98852857Y-63944428D01*
X98567142Y-63873000D01*
X98424285Y-63801571D01*
X98352857Y-63730142D01*
X98281428Y-63587285D01*
X98281428Y-63444428D01*
X98352857Y-63301571D01*
X98424285Y-63230142D01*
X98567142Y-63158714D01*
X98852857Y-63087285D01*
X99210000Y-63087285D01*
X99495714Y-63158714D01*
X99638571Y-63230142D01*
X99710000Y-63301571D01*
X99781428Y-63444428D01*
X98352857Y-64658714D02*
X98281428Y-64658714D01*
X98138571Y-64587285D01*
X98067142Y-64515857D01*
X99781428Y-65587285D02*
X99781428Y-65730142D01*
X99710000Y-65873000D01*
X99638571Y-65944428D01*
X99495714Y-66015857D01*
X99210000Y-66087285D01*
X98852857Y-66087285D01*
X98567142Y-66015857D01*
X98424285Y-65944428D01*
X98352857Y-65873000D01*
X98281428Y-65730142D01*
X98281428Y-65587285D01*
X98352857Y-65444428D01*
X98424285Y-65373000D01*
X98567142Y-65301571D01*
X98852857Y-65230142D01*
X99210000Y-65230142D01*
X99495714Y-65301571D01*
X99638571Y-65373000D01*
X99710000Y-65444428D01*
X99781428Y-65587285D01*
X99781428Y-67373000D02*
X99781428Y-67087285D01*
X99710000Y-66944428D01*
X99638571Y-66873000D01*
X99424285Y-66730142D01*
X99138571Y-66658714D01*
X98567142Y-66658714D01*
X98424285Y-66730142D01*
X98352857Y-66801571D01*
X98281428Y-66944428D01*
X98281428Y-67230142D01*
X98352857Y-67373000D01*
X98424285Y-67444428D01*
X98567142Y-67515857D01*
X98924285Y-67515857D01*
X99067142Y-67444428D01*
X99138571Y-67373000D01*
X99210000Y-67230142D01*
X99210000Y-66944428D01*
X99138571Y-66801571D01*
X99067142Y-66730142D01*
X98924285Y-66658714D01*
X99781428Y-68801571D02*
X99781428Y-68515857D01*
X99710000Y-68373000D01*
X99638571Y-68301571D01*
X99424285Y-68158714D01*
X99138571Y-68087285D01*
X98567142Y-68087285D01*
X98424285Y-68158714D01*
X98352857Y-68230142D01*
X98281428Y-68373000D01*
X98281428Y-68658714D01*
X98352857Y-68801571D01*
X98424285Y-68873000D01*
X98567142Y-68944428D01*
X98924285Y-68944428D01*
X99067142Y-68873000D01*
X99138571Y-68801571D01*
X99210000Y-68658714D01*
X99210000Y-68373000D01*
X99138571Y-68230142D01*
X99067142Y-68158714D01*
X98924285Y-68087285D01*
X98281428Y-70730142D02*
X99281428Y-70730142D01*
X99138571Y-70730142D02*
X99210000Y-70801571D01*
X99281428Y-70944428D01*
X99281428Y-71158714D01*
X99210000Y-71301571D01*
X99067142Y-71373000D01*
X98281428Y-71373000D01*
X99067142Y-71373000D02*
X99210000Y-71444428D01*
X99281428Y-71587285D01*
X99281428Y-71801571D01*
X99210000Y-71944428D01*
X99067142Y-72015857D01*
X98281428Y-72015857D01*
X98281428Y-72730142D02*
X99281428Y-72730142D01*
X99138571Y-72730142D02*
X99210000Y-72801571D01*
X99281428Y-72944428D01*
X99281428Y-73158714D01*
X99210000Y-73301571D01*
X99067142Y-73373000D01*
X98281428Y-73373000D01*
X99067142Y-73373000D02*
X99210000Y-73444428D01*
X99281428Y-73587285D01*
X99281428Y-73801571D01*
X99210000Y-73944428D01*
X99067142Y-74015857D01*
X98281428Y-74015857D01*
X96860000Y-57840000D02*
X96860000Y-77906000D01*
X89240000Y-57840000D02*
X97446421Y-57840000D01*
X89240000Y-77906000D02*
X97446421Y-77906000D01*
X96860000Y-77906000D02*
X96273579Y-76779496D01*
X96860000Y-77906000D02*
X97446421Y-76779496D01*
X96860000Y-57840000D02*
X96273579Y-58966504D01*
X96860000Y-57840000D02*
X97446421Y-58966504D01*
D11*
%TO.C,J2*%
X89152000Y-68000000D02*
X89152000Y-73060000D01*
X89152000Y-73060000D02*
X77432000Y-73060000D01*
X77432000Y-73060000D02*
X77432000Y-71640000D01*
X77432000Y-71640000D02*
X81932000Y-71640000D01*
X81932000Y-71640000D02*
X81932000Y-68000000D01*
X89152000Y-68000000D02*
X89152000Y-62940000D01*
X89152000Y-62940000D02*
X77432000Y-62940000D01*
X77432000Y-62940000D02*
X77432000Y-64360000D01*
X77432000Y-64360000D02*
X81932000Y-64360000D01*
X81932000Y-64360000D02*
X81932000Y-68000000D01*
X83042000Y-70750000D02*
X88542000Y-70750000D01*
X88542000Y-70750000D02*
X88542000Y-70250000D01*
X88542000Y-70250000D02*
X83042000Y-70250000D01*
X83042000Y-70250000D02*
X83042000Y-70750000D01*
X83042000Y-68250000D02*
X88542000Y-68250000D01*
X88542000Y-68250000D02*
X88542000Y-67750000D01*
X88542000Y-67750000D02*
X83042000Y-67750000D01*
X83042000Y-67750000D02*
X83042000Y-68250000D01*
X83042000Y-65750000D02*
X88542000Y-65750000D01*
X88542000Y-65750000D02*
X88542000Y-65250000D01*
X88542000Y-65250000D02*
X83042000Y-65250000D01*
X83042000Y-65250000D02*
X83042000Y-65750000D01*
X78342000Y-70500000D02*
X77742000Y-70800000D01*
X77742000Y-70800000D02*
X77742000Y-70200000D01*
X77742000Y-70200000D02*
X78342000Y-70500000D01*
%TO.C,RV1*%
X76620000Y-59538000D02*
X76620000Y-64778000D01*
X71380000Y-59538000D02*
X71380000Y-64778000D01*
X76620000Y-59538000D02*
X75240000Y-59538000D01*
X72760000Y-59538000D02*
X71380000Y-59538000D01*
X76620000Y-64778000D02*
X76039000Y-64778000D01*
X74260000Y-64778000D02*
X73740000Y-64778000D01*
X71960000Y-64778000D02*
X71380000Y-64778000D01*
%TO.C,U1*%
X74900000Y-66390000D02*
X73100000Y-66390000D01*
X73100000Y-69610000D02*
X76050000Y-69610000D01*
%TO.C,D1*%
X66405000Y-68960000D02*
X69265000Y-68960000D01*
X69265000Y-68960000D02*
X69265000Y-67040000D01*
X69265000Y-67040000D02*
X66405000Y-67040000D01*
%TO.C,C1*%
X73738748Y-72853000D02*
X74261252Y-72853000D01*
X73738748Y-74323000D02*
X74261252Y-74323000D01*
%TO.C,R7*%
X67168936Y-61677000D02*
X67623064Y-61677000D01*
X67168936Y-63147000D02*
X67623064Y-63147000D01*
%TO.C,R6*%
X67152936Y-65941000D02*
X67607064Y-65941000D01*
X67152936Y-64471000D02*
X67607064Y-64471000D01*
%TO.C,R5*%
X67168936Y-72853000D02*
X67623064Y-72853000D01*
X67168936Y-74323000D02*
X67623064Y-74323000D01*
%TO.C,R4*%
X78598936Y-61877000D02*
X79053064Y-61877000D01*
X78598936Y-60407000D02*
X79053064Y-60407000D01*
%TO.C,R3*%
X67168936Y-70059000D02*
X67623064Y-70059000D01*
X67168936Y-71529000D02*
X67623064Y-71529000D01*
%TO.C,Antenna*%
D12*
X62228666Y-65173904D02*
X62228666Y-64697714D01*
X62514380Y-65269142D02*
X61514380Y-64935809D01*
X62514380Y-64602476D01*
X61847714Y-64269142D02*
X62514380Y-64269142D01*
X61942952Y-64269142D02*
X61895333Y-64221523D01*
X61847714Y-64126285D01*
X61847714Y-63983428D01*
X61895333Y-63888190D01*
X61990571Y-63840571D01*
X62514380Y-63840571D01*
X61847714Y-63507238D02*
X61847714Y-63126285D01*
X61514380Y-63364380D02*
X62371523Y-63364380D01*
X62466761Y-63316761D01*
X62514380Y-63221523D01*
X62514380Y-63126285D01*
X62466761Y-62412000D02*
X62514380Y-62507238D01*
X62514380Y-62697714D01*
X62466761Y-62792952D01*
X62371523Y-62840571D01*
X61990571Y-62840571D01*
X61895333Y-62792952D01*
X61847714Y-62697714D01*
X61847714Y-62507238D01*
X61895333Y-62412000D01*
X61990571Y-62364380D01*
X62085809Y-62364380D01*
X62181047Y-62840571D01*
X61847714Y-61935809D02*
X62514380Y-61935809D01*
X61942952Y-61935809D02*
X61895333Y-61888190D01*
X61847714Y-61792952D01*
X61847714Y-61650095D01*
X61895333Y-61554857D01*
X61990571Y-61507238D01*
X62514380Y-61507238D01*
X61847714Y-61031047D02*
X62514380Y-61031047D01*
X61942952Y-61031047D02*
X61895333Y-60983428D01*
X61847714Y-60888190D01*
X61847714Y-60745333D01*
X61895333Y-60650095D01*
X61990571Y-60602476D01*
X62514380Y-60602476D01*
X62514380Y-59697714D02*
X61990571Y-59697714D01*
X61895333Y-59745333D01*
X61847714Y-59840571D01*
X61847714Y-60031047D01*
X61895333Y-60126285D01*
X62466761Y-59697714D02*
X62514380Y-59792952D01*
X62514380Y-60031047D01*
X62466761Y-60126285D01*
X62371523Y-60173904D01*
X62276285Y-60173904D01*
X62181047Y-60126285D01*
X62133428Y-60031047D01*
X62133428Y-59792952D01*
X62085809Y-59697714D01*
%TO.C,RV1*%
X73523809Y-62519904D02*
X73257142Y-62138952D01*
X73066666Y-62519904D02*
X73066666Y-61719904D01*
X73371428Y-61719904D01*
X73447619Y-61758000D01*
X73485714Y-61796095D01*
X73523809Y-61872285D01*
X73523809Y-61986571D01*
X73485714Y-62062761D01*
X73447619Y-62100857D01*
X73371428Y-62138952D01*
X73066666Y-62138952D01*
X73752380Y-61719904D02*
X74019047Y-62519904D01*
X74285714Y-61719904D01*
X74971428Y-62519904D02*
X74514285Y-62519904D01*
X74742857Y-62519904D02*
X74742857Y-61719904D01*
X74666666Y-61834190D01*
X74590476Y-61910380D01*
X74514285Y-61948476D01*
%TO.C,U1*%
X73390476Y-70101904D02*
X73390476Y-70749523D01*
X73428571Y-70825714D01*
X73466666Y-70863809D01*
X73542857Y-70901904D01*
X73695238Y-70901904D01*
X73771428Y-70863809D01*
X73809523Y-70825714D01*
X73847619Y-70749523D01*
X73847619Y-70101904D01*
X74647619Y-70901904D02*
X74190476Y-70901904D01*
X74419047Y-70901904D02*
X74419047Y-70101904D01*
X74342857Y-70216190D01*
X74266666Y-70292380D01*
X74190476Y-70330476D01*
%TO.C,D1*%
X69608523Y-68361904D02*
X69608523Y-67561904D01*
X69799000Y-67561904D01*
X69913285Y-67600000D01*
X69989476Y-67676190D01*
X70027571Y-67752380D01*
X70065666Y-67904761D01*
X70065666Y-68019047D01*
X70027571Y-68171428D01*
X69989476Y-68247619D01*
X69913285Y-68323809D01*
X69799000Y-68361904D01*
X69608523Y-68361904D01*
X70827571Y-68361904D02*
X70370428Y-68361904D01*
X70599000Y-68361904D02*
X70599000Y-67561904D01*
X70522809Y-67676190D01*
X70446619Y-67752380D01*
X70370428Y-67790476D01*
%TO.C,C1*%
X73866666Y-75651714D02*
X73828571Y-75689809D01*
X73714285Y-75727904D01*
X73638095Y-75727904D01*
X73523809Y-75689809D01*
X73447619Y-75613619D01*
X73409523Y-75537428D01*
X73371428Y-75385047D01*
X73371428Y-75270761D01*
X73409523Y-75118380D01*
X73447619Y-75042190D01*
X73523809Y-74966000D01*
X73638095Y-74927904D01*
X73714285Y-74927904D01*
X73828571Y-74966000D01*
X73866666Y-75004095D01*
X74628571Y-75727904D02*
X74171428Y-75727904D01*
X74400000Y-75727904D02*
X74400000Y-74927904D01*
X74323809Y-75042190D01*
X74247619Y-75118380D01*
X74171428Y-75156476D01*
%TO.C,R7*%
X70056666Y-62793904D02*
X69790000Y-62412952D01*
X69599523Y-62793904D02*
X69599523Y-61993904D01*
X69904285Y-61993904D01*
X69980476Y-62032000D01*
X70018571Y-62070095D01*
X70056666Y-62146285D01*
X70056666Y-62260571D01*
X70018571Y-62336761D01*
X69980476Y-62374857D01*
X69904285Y-62412952D01*
X69599523Y-62412952D01*
X70323333Y-61993904D02*
X70856666Y-61993904D01*
X70513809Y-62793904D01*
%TO.C,R6*%
X70040666Y-65567904D02*
X69774000Y-65186952D01*
X69583523Y-65567904D02*
X69583523Y-64767904D01*
X69888285Y-64767904D01*
X69964476Y-64806000D01*
X70002571Y-64844095D01*
X70040666Y-64920285D01*
X70040666Y-65034571D01*
X70002571Y-65110761D01*
X69964476Y-65148857D01*
X69888285Y-65186952D01*
X69583523Y-65186952D01*
X70726380Y-64767904D02*
X70574000Y-64767904D01*
X70497809Y-64806000D01*
X70459714Y-64844095D01*
X70383523Y-64958380D01*
X70345428Y-65110761D01*
X70345428Y-65415523D01*
X70383523Y-65491714D01*
X70421619Y-65529809D01*
X70497809Y-65567904D01*
X70650190Y-65567904D01*
X70726380Y-65529809D01*
X70764476Y-65491714D01*
X70802571Y-65415523D01*
X70802571Y-65225047D01*
X70764476Y-65148857D01*
X70726380Y-65110761D01*
X70650190Y-65072666D01*
X70497809Y-65072666D01*
X70421619Y-65110761D01*
X70383523Y-65148857D01*
X70345428Y-65225047D01*
%TO.C,R5*%
X70056666Y-73949904D02*
X69790000Y-73568952D01*
X69599523Y-73949904D02*
X69599523Y-73149904D01*
X69904285Y-73149904D01*
X69980476Y-73188000D01*
X70018571Y-73226095D01*
X70056666Y-73302285D01*
X70056666Y-73416571D01*
X70018571Y-73492761D01*
X69980476Y-73530857D01*
X69904285Y-73568952D01*
X69599523Y-73568952D01*
X70780476Y-73149904D02*
X70399523Y-73149904D01*
X70361428Y-73530857D01*
X70399523Y-73492761D01*
X70475714Y-73454666D01*
X70666190Y-73454666D01*
X70742380Y-73492761D01*
X70780476Y-73530857D01*
X70818571Y-73607047D01*
X70818571Y-73797523D01*
X70780476Y-73873714D01*
X70742380Y-73911809D01*
X70666190Y-73949904D01*
X70475714Y-73949904D01*
X70399523Y-73911809D01*
X70361428Y-73873714D01*
%TO.C,R4*%
X78692666Y-59979904D02*
X78426000Y-59598952D01*
X78235523Y-59979904D02*
X78235523Y-59179904D01*
X78540285Y-59179904D01*
X78616476Y-59218000D01*
X78654571Y-59256095D01*
X78692666Y-59332285D01*
X78692666Y-59446571D01*
X78654571Y-59522761D01*
X78616476Y-59560857D01*
X78540285Y-59598952D01*
X78235523Y-59598952D01*
X79378380Y-59446571D02*
X79378380Y-59979904D01*
X79187904Y-59141809D02*
X78997428Y-59713238D01*
X79492666Y-59713238D01*
%TO.C,R3*%
X70056666Y-71155904D02*
X69790000Y-70774952D01*
X69599523Y-71155904D02*
X69599523Y-70355904D01*
X69904285Y-70355904D01*
X69980476Y-70394000D01*
X70018571Y-70432095D01*
X70056666Y-70508285D01*
X70056666Y-70622571D01*
X70018571Y-70698761D01*
X69980476Y-70736857D01*
X69904285Y-70774952D01*
X69599523Y-70774952D01*
X70323333Y-70355904D02*
X70818571Y-70355904D01*
X70551904Y-70660666D01*
X70666190Y-70660666D01*
X70742380Y-70698761D01*
X70780476Y-70736857D01*
X70818571Y-70813047D01*
X70818571Y-71003523D01*
X70780476Y-71079714D01*
X70742380Y-71117809D01*
X70666190Y-71155904D01*
X70437619Y-71155904D01*
X70361428Y-71117809D01*
X70323333Y-71079714D01*
%TD*%
M02*
