%TF.GenerationSoftware,KiCad,Pcbnew,5.0.2+dfsg1-1*%
%TF.CreationDate,2021-04-27T11:46:40+02:00*%
%TF.ProjectId,eTprox,65547072-6f78-42e6-9b69-6361645f7063,v02*%
%TF.SameCoordinates,Original*%
%TF.FileFunction,Legend,Bot*%
%TF.FilePolarity,Positive*%
%FSLAX46Y46*%
G04 Gerber Fmt 4.6, Leading zero omitted, Abs format (unit mm)*
G04 Created by KiCad (PCBNEW 5.0.2+dfsg1-1) date mar. 27 avril 2021 11:46:40 CEST*
%MOMM*%
%LPD*%
G01*
G04 APERTURE LIST*
%ADD10C,0.300000*%
%ADD11C,0.200000*%
G04 APERTURE END LIST*
D10*
X81517095Y-58941047D02*
X80545666Y-58941047D01*
X81031380Y-60641047D02*
X81031380Y-58941047D01*
X79979000Y-60641047D02*
X79979000Y-59507714D01*
X79979000Y-58941047D02*
X80059952Y-59022000D01*
X79979000Y-59102952D01*
X79898047Y-59022000D01*
X79979000Y-58941047D01*
X79979000Y-59102952D01*
X79169476Y-60641047D02*
X79169476Y-59507714D01*
X79169476Y-59669619D02*
X79088523Y-59588666D01*
X78926619Y-59507714D01*
X78683761Y-59507714D01*
X78521857Y-59588666D01*
X78440904Y-59750571D01*
X78440904Y-60641047D01*
X78440904Y-59750571D02*
X78359952Y-59588666D01*
X78198047Y-59507714D01*
X77955190Y-59507714D01*
X77793285Y-59588666D01*
X77712333Y-59750571D01*
X77712333Y-60641047D01*
X76255190Y-60560095D02*
X76417095Y-60641047D01*
X76740904Y-60641047D01*
X76902809Y-60560095D01*
X76983761Y-60398190D01*
X76983761Y-59750571D01*
X76902809Y-59588666D01*
X76740904Y-59507714D01*
X76417095Y-59507714D01*
X76255190Y-59588666D01*
X76174238Y-59750571D01*
X76174238Y-59912476D01*
X76983761Y-60074380D01*
X75202809Y-60641047D02*
X75364714Y-60560095D01*
X75445666Y-60398190D01*
X75445666Y-58941047D01*
X73826619Y-60641047D02*
X73826619Y-59750571D01*
X73907571Y-59588666D01*
X74069476Y-59507714D01*
X74393285Y-59507714D01*
X74555190Y-59588666D01*
X73826619Y-60560095D02*
X73988523Y-60641047D01*
X74393285Y-60641047D01*
X74555190Y-60560095D01*
X74636142Y-60398190D01*
X74636142Y-60236285D01*
X74555190Y-60074380D01*
X74393285Y-59993428D01*
X73988523Y-59993428D01*
X73826619Y-59912476D01*
X73017095Y-60641047D02*
X73017095Y-58941047D01*
X73017095Y-59588666D02*
X72855190Y-59507714D01*
X72531380Y-59507714D01*
X72369476Y-59588666D01*
X72288523Y-59669619D01*
X72207571Y-59831523D01*
X72207571Y-60317238D01*
X72288523Y-60479142D01*
X72369476Y-60560095D01*
X72531380Y-60641047D01*
X72855190Y-60641047D01*
X73017095Y-60560095D01*
D11*
X79156476Y-62515142D02*
X79204095Y-62562761D01*
X79346952Y-62610380D01*
X79442190Y-62610380D01*
X79585047Y-62562761D01*
X79680285Y-62467523D01*
X79727904Y-62372285D01*
X79775523Y-62181809D01*
X79775523Y-62038952D01*
X79727904Y-61848476D01*
X79680285Y-61753238D01*
X79585047Y-61658000D01*
X79442190Y-61610380D01*
X79346952Y-61610380D01*
X79204095Y-61658000D01*
X79156476Y-61705619D01*
X78727904Y-62086571D02*
X78394571Y-62086571D01*
X78251714Y-62610380D02*
X78727904Y-62610380D01*
X78727904Y-61610380D01*
X78251714Y-61610380D01*
X77251714Y-62610380D02*
X77585047Y-62134190D01*
X77823142Y-62610380D02*
X77823142Y-61610380D01*
X77442190Y-61610380D01*
X77346952Y-61658000D01*
X77299333Y-61705619D01*
X77251714Y-61800857D01*
X77251714Y-61943714D01*
X77299333Y-62038952D01*
X77346952Y-62086571D01*
X77442190Y-62134190D01*
X77823142Y-62134190D01*
X76823142Y-62610380D02*
X76823142Y-61610380D01*
X76251714Y-62610380D01*
X76251714Y-61610380D01*
X74823142Y-61610380D02*
X74632666Y-61610380D01*
X74537428Y-61658000D01*
X74442190Y-61753238D01*
X74394571Y-61943714D01*
X74394571Y-62277047D01*
X74442190Y-62467523D01*
X74537428Y-62562761D01*
X74632666Y-62610380D01*
X74823142Y-62610380D01*
X74918380Y-62562761D01*
X75013619Y-62467523D01*
X75061238Y-62277047D01*
X75061238Y-61943714D01*
X75013619Y-61753238D01*
X74918380Y-61658000D01*
X74823142Y-61610380D01*
X73966000Y-62610380D02*
X73966000Y-61610380D01*
X73966000Y-62086571D02*
X73394571Y-62086571D01*
X73394571Y-62610380D02*
X73394571Y-61610380D01*
X72442190Y-62610380D02*
X72918380Y-62610380D01*
X72918380Y-61610380D01*
M02*
