%TF.GenerationSoftware,KiCad,Pcbnew,5.0.2+dfsg1-1*%
%TF.CreationDate,2021-04-27T11:46:40+02:00*%
%TF.ProjectId,eTprox,65547072-6f78-42e6-9b69-6361645f7063,v02*%
%TF.SameCoordinates,Original*%
%TF.FileFunction,Copper,L1,Top*%
%TF.FilePolarity,Positive*%
%FSLAX46Y46*%
G04 Gerber Fmt 4.6, Leading zero omitted, Abs format (unit mm)*
G04 Created by KiCad (PCBNEW 5.0.2+dfsg1-1) date mar. 27 avril 2021 11:46:40 CEST*
%MOMM*%
%LPD*%
G01*
G04 APERTURE LIST*
%TA.AperFunction,Conductor*%
%ADD10C,0.100000*%
%TD*%
%TA.AperFunction,ComponentPad*%
%ADD11C,1.700000*%
%TD*%
%TA.AperFunction,ComponentPad*%
%ADD12O,1.950000X1.700000*%
%TD*%
%TA.AperFunction,ComponentPad*%
%ADD13C,1.200000*%
%TD*%
%TA.AperFunction,ComponentPad*%
%ADD14O,4.050000X4.050000*%
%TD*%
%TA.AperFunction,ComponentPad*%
%ADD15C,1.770000*%
%TD*%
%TA.AperFunction,SMDPad,CuDef*%
%ADD16R,1.300000X2.000000*%
%TD*%
%TA.AperFunction,SMDPad,CuDef*%
%ADD17R,2.000000X2.000000*%
%TD*%
%TA.AperFunction,SMDPad,CuDef*%
%ADD18R,1.560000X0.650000*%
%TD*%
%TA.AperFunction,SMDPad,CuDef*%
%ADD19C,1.150000*%
%TD*%
%TA.AperFunction,SMDPad,CuDef*%
%ADD20C,1.175000*%
%TD*%
%TA.AperFunction,SMDPad,CuDef*%
%ADD21C,1.200000*%
%TD*%
%TA.AperFunction,ViaPad*%
%ADD22C,0.800000*%
%TD*%
%TA.AperFunction,Conductor*%
%ADD23C,0.250000*%
%TD*%
%TA.AperFunction,Conductor*%
%ADD24C,0.254000*%
%TD*%
G04 APERTURE END LIST*
D10*
%TO.N,GND*%
%TO.C,J2*%
G36*
X80591504Y-69651204D02*
X80615773Y-69654804D01*
X80639571Y-69660765D01*
X80662671Y-69669030D01*
X80684849Y-69679520D01*
X80705893Y-69692133D01*
X80725598Y-69706747D01*
X80743777Y-69723223D01*
X80760253Y-69741402D01*
X80774867Y-69761107D01*
X80787480Y-69782151D01*
X80797970Y-69804329D01*
X80806235Y-69827429D01*
X80812196Y-69851227D01*
X80815796Y-69875496D01*
X80817000Y-69900000D01*
X80817000Y-71100000D01*
X80815796Y-71124504D01*
X80812196Y-71148773D01*
X80806235Y-71172571D01*
X80797970Y-71195671D01*
X80787480Y-71217849D01*
X80774867Y-71238893D01*
X80760253Y-71258598D01*
X80743777Y-71276777D01*
X80725598Y-71293253D01*
X80705893Y-71307867D01*
X80684849Y-71320480D01*
X80662671Y-71330970D01*
X80639571Y-71339235D01*
X80615773Y-71345196D01*
X80591504Y-71348796D01*
X80567000Y-71350000D01*
X79117000Y-71350000D01*
X79092496Y-71348796D01*
X79068227Y-71345196D01*
X79044429Y-71339235D01*
X79021329Y-71330970D01*
X78999151Y-71320480D01*
X78978107Y-71307867D01*
X78958402Y-71293253D01*
X78940223Y-71276777D01*
X78923747Y-71258598D01*
X78909133Y-71238893D01*
X78896520Y-71217849D01*
X78886030Y-71195671D01*
X78877765Y-71172571D01*
X78871804Y-71148773D01*
X78868204Y-71124504D01*
X78867000Y-71100000D01*
X78867000Y-69900000D01*
X78868204Y-69875496D01*
X78871804Y-69851227D01*
X78877765Y-69827429D01*
X78886030Y-69804329D01*
X78896520Y-69782151D01*
X78909133Y-69761107D01*
X78923747Y-69741402D01*
X78940223Y-69723223D01*
X78958402Y-69706747D01*
X78978107Y-69692133D01*
X78999151Y-69679520D01*
X79021329Y-69669030D01*
X79044429Y-69660765D01*
X79068227Y-69654804D01*
X79092496Y-69651204D01*
X79117000Y-69650000D01*
X80567000Y-69650000D01*
X80591504Y-69651204D01*
X80591504Y-69651204D01*
G37*
D11*
%TD*%
%TO.P,J2,1*%
%TO.N,GND*%
X79842000Y-70500000D03*
D12*
%TO.P,J2,2*%
%TO.N,SIG*%
X79842000Y-68000000D03*
%TO.P,J2,3*%
%TO.N,VCC*%
X79842000Y-65500000D03*
%TD*%
D13*
%TO.P,Antenna,5*%
%TO.N,N/C*%
X63692000Y-70878000D03*
X63692000Y-65036000D03*
D14*
%TO.P,Antenna,1*%
%TO.N,Net-(Antenna1-Pad1)*%
X60792000Y-68000000D03*
D15*
X63692000Y-68000000D03*
D10*
%TD*%
%TO.N,Net-(Antenna1-Pad1)*%
%TO.C,Antenna*%
G36*
X61443441Y-66172868D02*
X61447709Y-66158799D01*
X61454640Y-66145832D01*
X61463967Y-66134467D01*
X61475332Y-66125140D01*
X61488299Y-66118209D01*
X61502368Y-66113941D01*
X61517000Y-66112500D01*
X61531632Y-66113941D01*
X61546544Y-66118564D01*
X64053571Y-67193004D01*
X64070386Y-67199969D01*
X64072666Y-67201188D01*
X64084044Y-67206064D01*
X64096925Y-67213152D01*
X64100191Y-67215900D01*
X64146981Y-67240910D01*
X64219194Y-67289161D01*
X64286330Y-67344258D01*
X64347742Y-67405670D01*
X64402839Y-67472806D01*
X64451090Y-67545019D01*
X64492031Y-67621614D01*
X64525266Y-67701852D01*
X64550478Y-67784963D01*
X64567421Y-67870144D01*
X64575934Y-67956575D01*
X64575934Y-68043425D01*
X64567421Y-68129856D01*
X64550478Y-68215037D01*
X64525266Y-68298148D01*
X64492031Y-68378386D01*
X64451090Y-68454981D01*
X64402839Y-68527194D01*
X64347742Y-68594330D01*
X64286330Y-68655742D01*
X64219194Y-68710839D01*
X64146981Y-68759090D01*
X64100045Y-68784178D01*
X64096168Y-68787360D01*
X64084044Y-68793936D01*
X64072666Y-68798812D01*
X64070386Y-68800031D01*
X64053571Y-68806996D01*
X61546544Y-69881436D01*
X61532528Y-69885875D01*
X61517914Y-69887494D01*
X61503266Y-69886232D01*
X61489146Y-69882136D01*
X61476096Y-69875364D01*
X61464618Y-69866176D01*
X61455152Y-69854925D01*
X61448064Y-69842044D01*
X61443625Y-69828028D01*
X61442000Y-69812500D01*
X61442000Y-66187500D01*
X61443441Y-66172868D01*
X61443441Y-66172868D01*
G37*
D16*
%TO.P,RV1,1*%
%TO.N,VCC*%
X75150000Y-64158000D03*
D17*
%TO.P,RV1,2*%
%TO.N,Net-(R4-Pad1)*%
X74000000Y-60158000D03*
D16*
%TO.P,RV1,3*%
%TO.N,GND*%
X72850000Y-64158000D03*
%TD*%
D15*
%TO.P,J1,3*%
%TO.N,GND*%
X86340000Y-73800000D03*
D10*
%TD*%
%TO.N,GND*%
%TO.C,J1*%
G36*
X88588559Y-75627132D02*
X88584291Y-75641201D01*
X88577360Y-75654168D01*
X88568033Y-75665533D01*
X88556668Y-75674860D01*
X88543701Y-75681791D01*
X88529632Y-75686059D01*
X88515000Y-75687500D01*
X88500368Y-75686059D01*
X88485456Y-75681436D01*
X85978429Y-74606996D01*
X85961614Y-74600031D01*
X85959334Y-74598812D01*
X85947956Y-74593936D01*
X85935075Y-74586848D01*
X85931809Y-74584100D01*
X85885019Y-74559090D01*
X85812806Y-74510839D01*
X85745670Y-74455742D01*
X85684258Y-74394330D01*
X85629161Y-74327194D01*
X85580910Y-74254981D01*
X85539969Y-74178386D01*
X85506734Y-74098148D01*
X85481522Y-74015037D01*
X85464579Y-73929856D01*
X85456066Y-73843425D01*
X85456066Y-73756575D01*
X85464579Y-73670144D01*
X85481522Y-73584963D01*
X85506734Y-73501852D01*
X85539969Y-73421614D01*
X85580910Y-73345019D01*
X85629161Y-73272806D01*
X85684258Y-73205670D01*
X85745670Y-73144258D01*
X85812806Y-73089161D01*
X85885019Y-73040910D01*
X85931955Y-73015822D01*
X85935832Y-73012640D01*
X85947956Y-73006064D01*
X85959334Y-73001188D01*
X85961614Y-72999969D01*
X85978429Y-72993004D01*
X88485456Y-71918564D01*
X88499472Y-71914125D01*
X88514086Y-71912506D01*
X88528734Y-71913768D01*
X88542854Y-71917864D01*
X88555904Y-71924636D01*
X88567382Y-71933824D01*
X88576848Y-71945075D01*
X88583936Y-71957956D01*
X88588375Y-71971972D01*
X88590000Y-71987500D01*
X88590000Y-75612500D01*
X88588559Y-75627132D01*
X88588559Y-75627132D01*
G37*
D15*
%TO.P,J1,2*%
%TO.N,SIG*%
X86340000Y-68000000D03*
D10*
%TD*%
%TO.N,SIG*%
%TO.C,J1*%
G36*
X88588559Y-69827132D02*
X88584291Y-69841201D01*
X88577360Y-69854168D01*
X88568033Y-69865533D01*
X88556668Y-69874860D01*
X88543701Y-69881791D01*
X88529632Y-69886059D01*
X88515000Y-69887500D01*
X88500368Y-69886059D01*
X88485456Y-69881436D01*
X85978429Y-68806996D01*
X85961614Y-68800031D01*
X85959334Y-68798812D01*
X85947956Y-68793936D01*
X85935075Y-68786848D01*
X85931809Y-68784100D01*
X85885019Y-68759090D01*
X85812806Y-68710839D01*
X85745670Y-68655742D01*
X85684258Y-68594330D01*
X85629161Y-68527194D01*
X85580910Y-68454981D01*
X85539969Y-68378386D01*
X85506734Y-68298148D01*
X85481522Y-68215037D01*
X85464579Y-68129856D01*
X85456066Y-68043425D01*
X85456066Y-67956575D01*
X85464579Y-67870144D01*
X85481522Y-67784963D01*
X85506734Y-67701852D01*
X85539969Y-67621614D01*
X85580910Y-67545019D01*
X85629161Y-67472806D01*
X85684258Y-67405670D01*
X85745670Y-67344258D01*
X85812806Y-67289161D01*
X85885019Y-67240910D01*
X85931955Y-67215822D01*
X85935832Y-67212640D01*
X85947956Y-67206064D01*
X85959334Y-67201188D01*
X85961614Y-67199969D01*
X85978429Y-67193004D01*
X88485456Y-66118564D01*
X88499472Y-66114125D01*
X88514086Y-66112506D01*
X88528734Y-66113768D01*
X88542854Y-66117864D01*
X88555904Y-66124636D01*
X88567382Y-66133824D01*
X88576848Y-66145075D01*
X88583936Y-66157956D01*
X88588375Y-66171972D01*
X88590000Y-66187500D01*
X88590000Y-69812500D01*
X88588559Y-69827132D01*
X88588559Y-69827132D01*
G37*
D15*
%TO.P,J1,1*%
%TO.N,VCC*%
X86340000Y-62200000D03*
D10*
%TD*%
%TO.N,VCC*%
%TO.C,J1*%
G36*
X88588559Y-64027132D02*
X88584291Y-64041201D01*
X88577360Y-64054168D01*
X88568033Y-64065533D01*
X88556668Y-64074860D01*
X88543701Y-64081791D01*
X88529632Y-64086059D01*
X88515000Y-64087500D01*
X88500368Y-64086059D01*
X88485456Y-64081436D01*
X85978429Y-63006996D01*
X85961614Y-63000031D01*
X85959334Y-62998812D01*
X85947956Y-62993936D01*
X85935075Y-62986848D01*
X85931809Y-62984100D01*
X85885019Y-62959090D01*
X85812806Y-62910839D01*
X85745670Y-62855742D01*
X85684258Y-62794330D01*
X85629161Y-62727194D01*
X85580910Y-62654981D01*
X85539969Y-62578386D01*
X85506734Y-62498148D01*
X85481522Y-62415037D01*
X85464579Y-62329856D01*
X85456066Y-62243425D01*
X85456066Y-62156575D01*
X85464579Y-62070144D01*
X85481522Y-61984963D01*
X85506734Y-61901852D01*
X85539969Y-61821614D01*
X85580910Y-61745019D01*
X85629161Y-61672806D01*
X85684258Y-61605670D01*
X85745670Y-61544258D01*
X85812806Y-61489161D01*
X85885019Y-61440910D01*
X85931955Y-61415822D01*
X85935832Y-61412640D01*
X85947956Y-61406064D01*
X85959334Y-61401188D01*
X85961614Y-61399969D01*
X85978429Y-61393004D01*
X88485456Y-60318564D01*
X88499472Y-60314125D01*
X88514086Y-60312506D01*
X88528734Y-60313768D01*
X88542854Y-60317864D01*
X88555904Y-60324636D01*
X88567382Y-60333824D01*
X88576848Y-60345075D01*
X88583936Y-60357956D01*
X88588375Y-60371972D01*
X88590000Y-60387500D01*
X88590000Y-64012500D01*
X88588559Y-64027132D01*
X88588559Y-64027132D01*
G37*
D14*
%TO.P,J1,2*%
%TO.N,SIG*%
X89240000Y-68000000D03*
%TO.P,J1,3*%
%TO.N,GND*%
X89240000Y-73800000D03*
%TO.P,J1,1*%
%TO.N,VCC*%
X89240000Y-62200000D03*
D13*
%TO.P,J1,5*%
%TO.N,N/C*%
X86340000Y-70900000D03*
X86340000Y-65164000D03*
X86340000Y-76848000D03*
X86340000Y-59322000D03*
%TD*%
D18*
%TO.P,U1,1*%
%TO.N,Net-(R3-Pad2)*%
X75350000Y-68950000D03*
%TO.P,U1,2*%
%TO.N,GND*%
X75350000Y-68000000D03*
%TO.P,U1,3*%
%TO.N,Net-(R4-Pad2)*%
X75350000Y-67050000D03*
%TO.P,U1,4*%
%TO.N,SIG*%
X72650000Y-67050000D03*
%TO.P,U1,6*%
%TO.N,Net-(R5-Pad1)*%
X72650000Y-68950000D03*
%TO.P,U1,5*%
%TO.N,VCC*%
X72650000Y-68000000D03*
%TD*%
D10*
%TO.N,VCC*%
%TO.C,D1*%
G36*
X68779505Y-67301204D02*
X68803773Y-67304804D01*
X68827572Y-67310765D01*
X68850671Y-67319030D01*
X68872850Y-67329520D01*
X68893893Y-67342132D01*
X68913599Y-67356747D01*
X68931777Y-67373223D01*
X68948253Y-67391401D01*
X68962868Y-67411107D01*
X68975480Y-67432150D01*
X68985970Y-67454329D01*
X68994235Y-67477428D01*
X69000196Y-67501227D01*
X69003796Y-67525495D01*
X69005000Y-67549999D01*
X69005000Y-68450001D01*
X69003796Y-68474505D01*
X69000196Y-68498773D01*
X68994235Y-68522572D01*
X68985970Y-68545671D01*
X68975480Y-68567850D01*
X68962868Y-68588893D01*
X68948253Y-68608599D01*
X68931777Y-68626777D01*
X68913599Y-68643253D01*
X68893893Y-68657868D01*
X68872850Y-68670480D01*
X68850671Y-68680970D01*
X68827572Y-68689235D01*
X68803773Y-68695196D01*
X68779505Y-68698796D01*
X68755001Y-68700000D01*
X68104999Y-68700000D01*
X68080495Y-68698796D01*
X68056227Y-68695196D01*
X68032428Y-68689235D01*
X68009329Y-68680970D01*
X67987150Y-68670480D01*
X67966107Y-68657868D01*
X67946401Y-68643253D01*
X67928223Y-68626777D01*
X67911747Y-68608599D01*
X67897132Y-68588893D01*
X67884520Y-68567850D01*
X67874030Y-68545671D01*
X67865765Y-68522572D01*
X67859804Y-68498773D01*
X67856204Y-68474505D01*
X67855000Y-68450001D01*
X67855000Y-67549999D01*
X67856204Y-67525495D01*
X67859804Y-67501227D01*
X67865765Y-67477428D01*
X67874030Y-67454329D01*
X67884520Y-67432150D01*
X67897132Y-67411107D01*
X67911747Y-67391401D01*
X67928223Y-67373223D01*
X67946401Y-67356747D01*
X67966107Y-67342132D01*
X67987150Y-67329520D01*
X68009329Y-67319030D01*
X68032428Y-67310765D01*
X68056227Y-67304804D01*
X68080495Y-67301204D01*
X68104999Y-67300000D01*
X68755001Y-67300000D01*
X68779505Y-67301204D01*
X68779505Y-67301204D01*
G37*
D19*
%TD*%
%TO.P,D1,1*%
%TO.N,VCC*%
X68430000Y-68000000D03*
D10*
%TO.N,Net-(D1-Pad2)*%
%TO.C,D1*%
G36*
X66729505Y-67301204D02*
X66753773Y-67304804D01*
X66777572Y-67310765D01*
X66800671Y-67319030D01*
X66822850Y-67329520D01*
X66843893Y-67342132D01*
X66863599Y-67356747D01*
X66881777Y-67373223D01*
X66898253Y-67391401D01*
X66912868Y-67411107D01*
X66925480Y-67432150D01*
X66935970Y-67454329D01*
X66944235Y-67477428D01*
X66950196Y-67501227D01*
X66953796Y-67525495D01*
X66955000Y-67549999D01*
X66955000Y-68450001D01*
X66953796Y-68474505D01*
X66950196Y-68498773D01*
X66944235Y-68522572D01*
X66935970Y-68545671D01*
X66925480Y-68567850D01*
X66912868Y-68588893D01*
X66898253Y-68608599D01*
X66881777Y-68626777D01*
X66863599Y-68643253D01*
X66843893Y-68657868D01*
X66822850Y-68670480D01*
X66800671Y-68680970D01*
X66777572Y-68689235D01*
X66753773Y-68695196D01*
X66729505Y-68698796D01*
X66705001Y-68700000D01*
X66054999Y-68700000D01*
X66030495Y-68698796D01*
X66006227Y-68695196D01*
X65982428Y-68689235D01*
X65959329Y-68680970D01*
X65937150Y-68670480D01*
X65916107Y-68657868D01*
X65896401Y-68643253D01*
X65878223Y-68626777D01*
X65861747Y-68608599D01*
X65847132Y-68588893D01*
X65834520Y-68567850D01*
X65824030Y-68545671D01*
X65815765Y-68522572D01*
X65809804Y-68498773D01*
X65806204Y-68474505D01*
X65805000Y-68450001D01*
X65805000Y-67549999D01*
X65806204Y-67525495D01*
X65809804Y-67501227D01*
X65815765Y-67477428D01*
X65824030Y-67454329D01*
X65834520Y-67432150D01*
X65847132Y-67411107D01*
X65861747Y-67391401D01*
X65878223Y-67373223D01*
X65896401Y-67356747D01*
X65916107Y-67342132D01*
X65937150Y-67329520D01*
X65959329Y-67319030D01*
X65982428Y-67310765D01*
X66006227Y-67304804D01*
X66030495Y-67301204D01*
X66054999Y-67300000D01*
X66705001Y-67300000D01*
X66729505Y-67301204D01*
X66729505Y-67301204D01*
G37*
D19*
%TD*%
%TO.P,D1,2*%
%TO.N,Net-(D1-Pad2)*%
X66380000Y-68000000D03*
D10*
%TO.N,VCC*%
%TO.C,C1*%
G36*
X73324504Y-72864204D02*
X73348773Y-72867804D01*
X73372571Y-72873765D01*
X73395671Y-72882030D01*
X73417849Y-72892520D01*
X73438893Y-72905133D01*
X73458598Y-72919747D01*
X73476777Y-72936223D01*
X73493253Y-72954402D01*
X73507867Y-72974107D01*
X73520480Y-72995151D01*
X73530970Y-73017329D01*
X73539235Y-73040429D01*
X73545196Y-73064227D01*
X73548796Y-73088496D01*
X73550000Y-73113000D01*
X73550000Y-74063000D01*
X73548796Y-74087504D01*
X73545196Y-74111773D01*
X73539235Y-74135571D01*
X73530970Y-74158671D01*
X73520480Y-74180849D01*
X73507867Y-74201893D01*
X73493253Y-74221598D01*
X73476777Y-74239777D01*
X73458598Y-74256253D01*
X73438893Y-74270867D01*
X73417849Y-74283480D01*
X73395671Y-74293970D01*
X73372571Y-74302235D01*
X73348773Y-74308196D01*
X73324504Y-74311796D01*
X73300000Y-74313000D01*
X72625000Y-74313000D01*
X72600496Y-74311796D01*
X72576227Y-74308196D01*
X72552429Y-74302235D01*
X72529329Y-74293970D01*
X72507151Y-74283480D01*
X72486107Y-74270867D01*
X72466402Y-74256253D01*
X72448223Y-74239777D01*
X72431747Y-74221598D01*
X72417133Y-74201893D01*
X72404520Y-74180849D01*
X72394030Y-74158671D01*
X72385765Y-74135571D01*
X72379804Y-74111773D01*
X72376204Y-74087504D01*
X72375000Y-74063000D01*
X72375000Y-73113000D01*
X72376204Y-73088496D01*
X72379804Y-73064227D01*
X72385765Y-73040429D01*
X72394030Y-73017329D01*
X72404520Y-72995151D01*
X72417133Y-72974107D01*
X72431747Y-72954402D01*
X72448223Y-72936223D01*
X72466402Y-72919747D01*
X72486107Y-72905133D01*
X72507151Y-72892520D01*
X72529329Y-72882030D01*
X72552429Y-72873765D01*
X72576227Y-72867804D01*
X72600496Y-72864204D01*
X72625000Y-72863000D01*
X73300000Y-72863000D01*
X73324504Y-72864204D01*
X73324504Y-72864204D01*
G37*
D20*
%TD*%
%TO.P,C1,1*%
%TO.N,VCC*%
X72962500Y-73588000D03*
D10*
%TO.N,GND*%
%TO.C,C1*%
G36*
X75399504Y-72864204D02*
X75423773Y-72867804D01*
X75447571Y-72873765D01*
X75470671Y-72882030D01*
X75492849Y-72892520D01*
X75513893Y-72905133D01*
X75533598Y-72919747D01*
X75551777Y-72936223D01*
X75568253Y-72954402D01*
X75582867Y-72974107D01*
X75595480Y-72995151D01*
X75605970Y-73017329D01*
X75614235Y-73040429D01*
X75620196Y-73064227D01*
X75623796Y-73088496D01*
X75625000Y-73113000D01*
X75625000Y-74063000D01*
X75623796Y-74087504D01*
X75620196Y-74111773D01*
X75614235Y-74135571D01*
X75605970Y-74158671D01*
X75595480Y-74180849D01*
X75582867Y-74201893D01*
X75568253Y-74221598D01*
X75551777Y-74239777D01*
X75533598Y-74256253D01*
X75513893Y-74270867D01*
X75492849Y-74283480D01*
X75470671Y-74293970D01*
X75447571Y-74302235D01*
X75423773Y-74308196D01*
X75399504Y-74311796D01*
X75375000Y-74313000D01*
X74700000Y-74313000D01*
X74675496Y-74311796D01*
X74651227Y-74308196D01*
X74627429Y-74302235D01*
X74604329Y-74293970D01*
X74582151Y-74283480D01*
X74561107Y-74270867D01*
X74541402Y-74256253D01*
X74523223Y-74239777D01*
X74506747Y-74221598D01*
X74492133Y-74201893D01*
X74479520Y-74180849D01*
X74469030Y-74158671D01*
X74460765Y-74135571D01*
X74454804Y-74111773D01*
X74451204Y-74087504D01*
X74450000Y-74063000D01*
X74450000Y-73113000D01*
X74451204Y-73088496D01*
X74454804Y-73064227D01*
X74460765Y-73040429D01*
X74469030Y-73017329D01*
X74479520Y-72995151D01*
X74492133Y-72974107D01*
X74506747Y-72954402D01*
X74523223Y-72936223D01*
X74541402Y-72919747D01*
X74561107Y-72905133D01*
X74582151Y-72892520D01*
X74604329Y-72882030D01*
X74627429Y-72873765D01*
X74651227Y-72867804D01*
X74675496Y-72864204D01*
X74700000Y-72863000D01*
X75375000Y-72863000D01*
X75399504Y-72864204D01*
X75399504Y-72864204D01*
G37*
D20*
%TD*%
%TO.P,C1,2*%
%TO.N,GND*%
X75037500Y-73588000D03*
D10*
%TO.N,VCC*%
%TO.C,R7*%
G36*
X66770505Y-61713204D02*
X66794773Y-61716804D01*
X66818572Y-61722765D01*
X66841671Y-61731030D01*
X66863850Y-61741520D01*
X66884893Y-61754132D01*
X66904599Y-61768747D01*
X66922777Y-61785223D01*
X66939253Y-61803401D01*
X66953868Y-61823107D01*
X66966480Y-61844150D01*
X66976970Y-61866329D01*
X66985235Y-61889428D01*
X66991196Y-61913227D01*
X66994796Y-61937495D01*
X66996000Y-61961999D01*
X66996000Y-62862001D01*
X66994796Y-62886505D01*
X66991196Y-62910773D01*
X66985235Y-62934572D01*
X66976970Y-62957671D01*
X66966480Y-62979850D01*
X66953868Y-63000893D01*
X66939253Y-63020599D01*
X66922777Y-63038777D01*
X66904599Y-63055253D01*
X66884893Y-63069868D01*
X66863850Y-63082480D01*
X66841671Y-63092970D01*
X66818572Y-63101235D01*
X66794773Y-63107196D01*
X66770505Y-63110796D01*
X66746001Y-63112000D01*
X66045999Y-63112000D01*
X66021495Y-63110796D01*
X65997227Y-63107196D01*
X65973428Y-63101235D01*
X65950329Y-63092970D01*
X65928150Y-63082480D01*
X65907107Y-63069868D01*
X65887401Y-63055253D01*
X65869223Y-63038777D01*
X65852747Y-63020599D01*
X65838132Y-63000893D01*
X65825520Y-62979850D01*
X65815030Y-62957671D01*
X65806765Y-62934572D01*
X65800804Y-62910773D01*
X65797204Y-62886505D01*
X65796000Y-62862001D01*
X65796000Y-61961999D01*
X65797204Y-61937495D01*
X65800804Y-61913227D01*
X65806765Y-61889428D01*
X65815030Y-61866329D01*
X65825520Y-61844150D01*
X65838132Y-61823107D01*
X65852747Y-61803401D01*
X65869223Y-61785223D01*
X65887401Y-61768747D01*
X65907107Y-61754132D01*
X65928150Y-61741520D01*
X65950329Y-61731030D01*
X65973428Y-61722765D01*
X65997227Y-61716804D01*
X66021495Y-61713204D01*
X66045999Y-61712000D01*
X66746001Y-61712000D01*
X66770505Y-61713204D01*
X66770505Y-61713204D01*
G37*
D21*
%TD*%
%TO.P,R7,1*%
%TO.N,VCC*%
X66396000Y-62412000D03*
D10*
%TO.N,SIG*%
%TO.C,R7*%
G36*
X68770505Y-61713204D02*
X68794773Y-61716804D01*
X68818572Y-61722765D01*
X68841671Y-61731030D01*
X68863850Y-61741520D01*
X68884893Y-61754132D01*
X68904599Y-61768747D01*
X68922777Y-61785223D01*
X68939253Y-61803401D01*
X68953868Y-61823107D01*
X68966480Y-61844150D01*
X68976970Y-61866329D01*
X68985235Y-61889428D01*
X68991196Y-61913227D01*
X68994796Y-61937495D01*
X68996000Y-61961999D01*
X68996000Y-62862001D01*
X68994796Y-62886505D01*
X68991196Y-62910773D01*
X68985235Y-62934572D01*
X68976970Y-62957671D01*
X68966480Y-62979850D01*
X68953868Y-63000893D01*
X68939253Y-63020599D01*
X68922777Y-63038777D01*
X68904599Y-63055253D01*
X68884893Y-63069868D01*
X68863850Y-63082480D01*
X68841671Y-63092970D01*
X68818572Y-63101235D01*
X68794773Y-63107196D01*
X68770505Y-63110796D01*
X68746001Y-63112000D01*
X68045999Y-63112000D01*
X68021495Y-63110796D01*
X67997227Y-63107196D01*
X67973428Y-63101235D01*
X67950329Y-63092970D01*
X67928150Y-63082480D01*
X67907107Y-63069868D01*
X67887401Y-63055253D01*
X67869223Y-63038777D01*
X67852747Y-63020599D01*
X67838132Y-63000893D01*
X67825520Y-62979850D01*
X67815030Y-62957671D01*
X67806765Y-62934572D01*
X67800804Y-62910773D01*
X67797204Y-62886505D01*
X67796000Y-62862001D01*
X67796000Y-61961999D01*
X67797204Y-61937495D01*
X67800804Y-61913227D01*
X67806765Y-61889428D01*
X67815030Y-61866329D01*
X67825520Y-61844150D01*
X67838132Y-61823107D01*
X67852747Y-61803401D01*
X67869223Y-61785223D01*
X67887401Y-61768747D01*
X67907107Y-61754132D01*
X67928150Y-61741520D01*
X67950329Y-61731030D01*
X67973428Y-61722765D01*
X67997227Y-61716804D01*
X68021495Y-61713204D01*
X68045999Y-61712000D01*
X68746001Y-61712000D01*
X68770505Y-61713204D01*
X68770505Y-61713204D01*
G37*
D21*
%TD*%
%TO.P,R7,2*%
%TO.N,SIG*%
X68396000Y-62412000D03*
D10*
%TO.N,SIG*%
%TO.C,R6*%
G36*
X68754505Y-64507204D02*
X68778773Y-64510804D01*
X68802572Y-64516765D01*
X68825671Y-64525030D01*
X68847850Y-64535520D01*
X68868893Y-64548132D01*
X68888599Y-64562747D01*
X68906777Y-64579223D01*
X68923253Y-64597401D01*
X68937868Y-64617107D01*
X68950480Y-64638150D01*
X68960970Y-64660329D01*
X68969235Y-64683428D01*
X68975196Y-64707227D01*
X68978796Y-64731495D01*
X68980000Y-64755999D01*
X68980000Y-65656001D01*
X68978796Y-65680505D01*
X68975196Y-65704773D01*
X68969235Y-65728572D01*
X68960970Y-65751671D01*
X68950480Y-65773850D01*
X68937868Y-65794893D01*
X68923253Y-65814599D01*
X68906777Y-65832777D01*
X68888599Y-65849253D01*
X68868893Y-65863868D01*
X68847850Y-65876480D01*
X68825671Y-65886970D01*
X68802572Y-65895235D01*
X68778773Y-65901196D01*
X68754505Y-65904796D01*
X68730001Y-65906000D01*
X68029999Y-65906000D01*
X68005495Y-65904796D01*
X67981227Y-65901196D01*
X67957428Y-65895235D01*
X67934329Y-65886970D01*
X67912150Y-65876480D01*
X67891107Y-65863868D01*
X67871401Y-65849253D01*
X67853223Y-65832777D01*
X67836747Y-65814599D01*
X67822132Y-65794893D01*
X67809520Y-65773850D01*
X67799030Y-65751671D01*
X67790765Y-65728572D01*
X67784804Y-65704773D01*
X67781204Y-65680505D01*
X67780000Y-65656001D01*
X67780000Y-64755999D01*
X67781204Y-64731495D01*
X67784804Y-64707227D01*
X67790765Y-64683428D01*
X67799030Y-64660329D01*
X67809520Y-64638150D01*
X67822132Y-64617107D01*
X67836747Y-64597401D01*
X67853223Y-64579223D01*
X67871401Y-64562747D01*
X67891107Y-64548132D01*
X67912150Y-64535520D01*
X67934329Y-64525030D01*
X67957428Y-64516765D01*
X67981227Y-64510804D01*
X68005495Y-64507204D01*
X68029999Y-64506000D01*
X68730001Y-64506000D01*
X68754505Y-64507204D01*
X68754505Y-64507204D01*
G37*
D21*
%TD*%
%TO.P,R6,2*%
%TO.N,SIG*%
X68380000Y-65206000D03*
D10*
%TO.N,Net-(D1-Pad2)*%
%TO.C,R6*%
G36*
X66754505Y-64507204D02*
X66778773Y-64510804D01*
X66802572Y-64516765D01*
X66825671Y-64525030D01*
X66847850Y-64535520D01*
X66868893Y-64548132D01*
X66888599Y-64562747D01*
X66906777Y-64579223D01*
X66923253Y-64597401D01*
X66937868Y-64617107D01*
X66950480Y-64638150D01*
X66960970Y-64660329D01*
X66969235Y-64683428D01*
X66975196Y-64707227D01*
X66978796Y-64731495D01*
X66980000Y-64755999D01*
X66980000Y-65656001D01*
X66978796Y-65680505D01*
X66975196Y-65704773D01*
X66969235Y-65728572D01*
X66960970Y-65751671D01*
X66950480Y-65773850D01*
X66937868Y-65794893D01*
X66923253Y-65814599D01*
X66906777Y-65832777D01*
X66888599Y-65849253D01*
X66868893Y-65863868D01*
X66847850Y-65876480D01*
X66825671Y-65886970D01*
X66802572Y-65895235D01*
X66778773Y-65901196D01*
X66754505Y-65904796D01*
X66730001Y-65906000D01*
X66029999Y-65906000D01*
X66005495Y-65904796D01*
X65981227Y-65901196D01*
X65957428Y-65895235D01*
X65934329Y-65886970D01*
X65912150Y-65876480D01*
X65891107Y-65863868D01*
X65871401Y-65849253D01*
X65853223Y-65832777D01*
X65836747Y-65814599D01*
X65822132Y-65794893D01*
X65809520Y-65773850D01*
X65799030Y-65751671D01*
X65790765Y-65728572D01*
X65784804Y-65704773D01*
X65781204Y-65680505D01*
X65780000Y-65656001D01*
X65780000Y-64755999D01*
X65781204Y-64731495D01*
X65784804Y-64707227D01*
X65790765Y-64683428D01*
X65799030Y-64660329D01*
X65809520Y-64638150D01*
X65822132Y-64617107D01*
X65836747Y-64597401D01*
X65853223Y-64579223D01*
X65871401Y-64562747D01*
X65891107Y-64548132D01*
X65912150Y-64535520D01*
X65934329Y-64525030D01*
X65957428Y-64516765D01*
X65981227Y-64510804D01*
X66005495Y-64507204D01*
X66029999Y-64506000D01*
X66730001Y-64506000D01*
X66754505Y-64507204D01*
X66754505Y-64507204D01*
G37*
D21*
%TD*%
%TO.P,R6,1*%
%TO.N,Net-(D1-Pad2)*%
X66380000Y-65206000D03*
D10*
%TO.N,Net-(R5-Pad1)*%
%TO.C,R5*%
G36*
X66770505Y-72889204D02*
X66794773Y-72892804D01*
X66818572Y-72898765D01*
X66841671Y-72907030D01*
X66863850Y-72917520D01*
X66884893Y-72930132D01*
X66904599Y-72944747D01*
X66922777Y-72961223D01*
X66939253Y-72979401D01*
X66953868Y-72999107D01*
X66966480Y-73020150D01*
X66976970Y-73042329D01*
X66985235Y-73065428D01*
X66991196Y-73089227D01*
X66994796Y-73113495D01*
X66996000Y-73137999D01*
X66996000Y-74038001D01*
X66994796Y-74062505D01*
X66991196Y-74086773D01*
X66985235Y-74110572D01*
X66976970Y-74133671D01*
X66966480Y-74155850D01*
X66953868Y-74176893D01*
X66939253Y-74196599D01*
X66922777Y-74214777D01*
X66904599Y-74231253D01*
X66884893Y-74245868D01*
X66863850Y-74258480D01*
X66841671Y-74268970D01*
X66818572Y-74277235D01*
X66794773Y-74283196D01*
X66770505Y-74286796D01*
X66746001Y-74288000D01*
X66045999Y-74288000D01*
X66021495Y-74286796D01*
X65997227Y-74283196D01*
X65973428Y-74277235D01*
X65950329Y-74268970D01*
X65928150Y-74258480D01*
X65907107Y-74245868D01*
X65887401Y-74231253D01*
X65869223Y-74214777D01*
X65852747Y-74196599D01*
X65838132Y-74176893D01*
X65825520Y-74155850D01*
X65815030Y-74133671D01*
X65806765Y-74110572D01*
X65800804Y-74086773D01*
X65797204Y-74062505D01*
X65796000Y-74038001D01*
X65796000Y-73137999D01*
X65797204Y-73113495D01*
X65800804Y-73089227D01*
X65806765Y-73065428D01*
X65815030Y-73042329D01*
X65825520Y-73020150D01*
X65838132Y-72999107D01*
X65852747Y-72979401D01*
X65869223Y-72961223D01*
X65887401Y-72944747D01*
X65907107Y-72930132D01*
X65928150Y-72917520D01*
X65950329Y-72907030D01*
X65973428Y-72898765D01*
X65997227Y-72892804D01*
X66021495Y-72889204D01*
X66045999Y-72888000D01*
X66746001Y-72888000D01*
X66770505Y-72889204D01*
X66770505Y-72889204D01*
G37*
D21*
%TD*%
%TO.P,R5,1*%
%TO.N,Net-(R5-Pad1)*%
X66396000Y-73588000D03*
D10*
%TO.N,VCC*%
%TO.C,R5*%
G36*
X68770505Y-72889204D02*
X68794773Y-72892804D01*
X68818572Y-72898765D01*
X68841671Y-72907030D01*
X68863850Y-72917520D01*
X68884893Y-72930132D01*
X68904599Y-72944747D01*
X68922777Y-72961223D01*
X68939253Y-72979401D01*
X68953868Y-72999107D01*
X68966480Y-73020150D01*
X68976970Y-73042329D01*
X68985235Y-73065428D01*
X68991196Y-73089227D01*
X68994796Y-73113495D01*
X68996000Y-73137999D01*
X68996000Y-74038001D01*
X68994796Y-74062505D01*
X68991196Y-74086773D01*
X68985235Y-74110572D01*
X68976970Y-74133671D01*
X68966480Y-74155850D01*
X68953868Y-74176893D01*
X68939253Y-74196599D01*
X68922777Y-74214777D01*
X68904599Y-74231253D01*
X68884893Y-74245868D01*
X68863850Y-74258480D01*
X68841671Y-74268970D01*
X68818572Y-74277235D01*
X68794773Y-74283196D01*
X68770505Y-74286796D01*
X68746001Y-74288000D01*
X68045999Y-74288000D01*
X68021495Y-74286796D01*
X67997227Y-74283196D01*
X67973428Y-74277235D01*
X67950329Y-74268970D01*
X67928150Y-74258480D01*
X67907107Y-74245868D01*
X67887401Y-74231253D01*
X67869223Y-74214777D01*
X67852747Y-74196599D01*
X67838132Y-74176893D01*
X67825520Y-74155850D01*
X67815030Y-74133671D01*
X67806765Y-74110572D01*
X67800804Y-74086773D01*
X67797204Y-74062505D01*
X67796000Y-74038001D01*
X67796000Y-73137999D01*
X67797204Y-73113495D01*
X67800804Y-73089227D01*
X67806765Y-73065428D01*
X67815030Y-73042329D01*
X67825520Y-73020150D01*
X67838132Y-72999107D01*
X67852747Y-72979401D01*
X67869223Y-72961223D01*
X67887401Y-72944747D01*
X67907107Y-72930132D01*
X67928150Y-72917520D01*
X67950329Y-72907030D01*
X67973428Y-72898765D01*
X67997227Y-72892804D01*
X68021495Y-72889204D01*
X68045999Y-72888000D01*
X68746001Y-72888000D01*
X68770505Y-72889204D01*
X68770505Y-72889204D01*
G37*
D21*
%TD*%
%TO.P,R5,2*%
%TO.N,VCC*%
X68396000Y-73588000D03*
D10*
%TO.N,Net-(R4-Pad2)*%
%TO.C,R4*%
G36*
X80200505Y-60443204D02*
X80224773Y-60446804D01*
X80248572Y-60452765D01*
X80271671Y-60461030D01*
X80293850Y-60471520D01*
X80314893Y-60484132D01*
X80334599Y-60498747D01*
X80352777Y-60515223D01*
X80369253Y-60533401D01*
X80383868Y-60553107D01*
X80396480Y-60574150D01*
X80406970Y-60596329D01*
X80415235Y-60619428D01*
X80421196Y-60643227D01*
X80424796Y-60667495D01*
X80426000Y-60691999D01*
X80426000Y-61592001D01*
X80424796Y-61616505D01*
X80421196Y-61640773D01*
X80415235Y-61664572D01*
X80406970Y-61687671D01*
X80396480Y-61709850D01*
X80383868Y-61730893D01*
X80369253Y-61750599D01*
X80352777Y-61768777D01*
X80334599Y-61785253D01*
X80314893Y-61799868D01*
X80293850Y-61812480D01*
X80271671Y-61822970D01*
X80248572Y-61831235D01*
X80224773Y-61837196D01*
X80200505Y-61840796D01*
X80176001Y-61842000D01*
X79475999Y-61842000D01*
X79451495Y-61840796D01*
X79427227Y-61837196D01*
X79403428Y-61831235D01*
X79380329Y-61822970D01*
X79358150Y-61812480D01*
X79337107Y-61799868D01*
X79317401Y-61785253D01*
X79299223Y-61768777D01*
X79282747Y-61750599D01*
X79268132Y-61730893D01*
X79255520Y-61709850D01*
X79245030Y-61687671D01*
X79236765Y-61664572D01*
X79230804Y-61640773D01*
X79227204Y-61616505D01*
X79226000Y-61592001D01*
X79226000Y-60691999D01*
X79227204Y-60667495D01*
X79230804Y-60643227D01*
X79236765Y-60619428D01*
X79245030Y-60596329D01*
X79255520Y-60574150D01*
X79268132Y-60553107D01*
X79282747Y-60533401D01*
X79299223Y-60515223D01*
X79317401Y-60498747D01*
X79337107Y-60484132D01*
X79358150Y-60471520D01*
X79380329Y-60461030D01*
X79403428Y-60452765D01*
X79427227Y-60446804D01*
X79451495Y-60443204D01*
X79475999Y-60442000D01*
X80176001Y-60442000D01*
X80200505Y-60443204D01*
X80200505Y-60443204D01*
G37*
D21*
%TD*%
%TO.P,R4,2*%
%TO.N,Net-(R4-Pad2)*%
X79826000Y-61142000D03*
D10*
%TO.N,Net-(R4-Pad1)*%
%TO.C,R4*%
G36*
X78200505Y-60443204D02*
X78224773Y-60446804D01*
X78248572Y-60452765D01*
X78271671Y-60461030D01*
X78293850Y-60471520D01*
X78314893Y-60484132D01*
X78334599Y-60498747D01*
X78352777Y-60515223D01*
X78369253Y-60533401D01*
X78383868Y-60553107D01*
X78396480Y-60574150D01*
X78406970Y-60596329D01*
X78415235Y-60619428D01*
X78421196Y-60643227D01*
X78424796Y-60667495D01*
X78426000Y-60691999D01*
X78426000Y-61592001D01*
X78424796Y-61616505D01*
X78421196Y-61640773D01*
X78415235Y-61664572D01*
X78406970Y-61687671D01*
X78396480Y-61709850D01*
X78383868Y-61730893D01*
X78369253Y-61750599D01*
X78352777Y-61768777D01*
X78334599Y-61785253D01*
X78314893Y-61799868D01*
X78293850Y-61812480D01*
X78271671Y-61822970D01*
X78248572Y-61831235D01*
X78224773Y-61837196D01*
X78200505Y-61840796D01*
X78176001Y-61842000D01*
X77475999Y-61842000D01*
X77451495Y-61840796D01*
X77427227Y-61837196D01*
X77403428Y-61831235D01*
X77380329Y-61822970D01*
X77358150Y-61812480D01*
X77337107Y-61799868D01*
X77317401Y-61785253D01*
X77299223Y-61768777D01*
X77282747Y-61750599D01*
X77268132Y-61730893D01*
X77255520Y-61709850D01*
X77245030Y-61687671D01*
X77236765Y-61664572D01*
X77230804Y-61640773D01*
X77227204Y-61616505D01*
X77226000Y-61592001D01*
X77226000Y-60691999D01*
X77227204Y-60667495D01*
X77230804Y-60643227D01*
X77236765Y-60619428D01*
X77245030Y-60596329D01*
X77255520Y-60574150D01*
X77268132Y-60553107D01*
X77282747Y-60533401D01*
X77299223Y-60515223D01*
X77317401Y-60498747D01*
X77337107Y-60484132D01*
X77358150Y-60471520D01*
X77380329Y-60461030D01*
X77403428Y-60452765D01*
X77427227Y-60446804D01*
X77451495Y-60443204D01*
X77475999Y-60442000D01*
X78176001Y-60442000D01*
X78200505Y-60443204D01*
X78200505Y-60443204D01*
G37*
D21*
%TD*%
%TO.P,R4,1*%
%TO.N,Net-(R4-Pad1)*%
X77826000Y-61142000D03*
D10*
%TO.N,Net-(Antenna1-Pad1)*%
%TO.C,R3*%
G36*
X66770505Y-70095204D02*
X66794773Y-70098804D01*
X66818572Y-70104765D01*
X66841671Y-70113030D01*
X66863850Y-70123520D01*
X66884893Y-70136132D01*
X66904599Y-70150747D01*
X66922777Y-70167223D01*
X66939253Y-70185401D01*
X66953868Y-70205107D01*
X66966480Y-70226150D01*
X66976970Y-70248329D01*
X66985235Y-70271428D01*
X66991196Y-70295227D01*
X66994796Y-70319495D01*
X66996000Y-70343999D01*
X66996000Y-71244001D01*
X66994796Y-71268505D01*
X66991196Y-71292773D01*
X66985235Y-71316572D01*
X66976970Y-71339671D01*
X66966480Y-71361850D01*
X66953868Y-71382893D01*
X66939253Y-71402599D01*
X66922777Y-71420777D01*
X66904599Y-71437253D01*
X66884893Y-71451868D01*
X66863850Y-71464480D01*
X66841671Y-71474970D01*
X66818572Y-71483235D01*
X66794773Y-71489196D01*
X66770505Y-71492796D01*
X66746001Y-71494000D01*
X66045999Y-71494000D01*
X66021495Y-71492796D01*
X65997227Y-71489196D01*
X65973428Y-71483235D01*
X65950329Y-71474970D01*
X65928150Y-71464480D01*
X65907107Y-71451868D01*
X65887401Y-71437253D01*
X65869223Y-71420777D01*
X65852747Y-71402599D01*
X65838132Y-71382893D01*
X65825520Y-71361850D01*
X65815030Y-71339671D01*
X65806765Y-71316572D01*
X65800804Y-71292773D01*
X65797204Y-71268505D01*
X65796000Y-71244001D01*
X65796000Y-70343999D01*
X65797204Y-70319495D01*
X65800804Y-70295227D01*
X65806765Y-70271428D01*
X65815030Y-70248329D01*
X65825520Y-70226150D01*
X65838132Y-70205107D01*
X65852747Y-70185401D01*
X65869223Y-70167223D01*
X65887401Y-70150747D01*
X65907107Y-70136132D01*
X65928150Y-70123520D01*
X65950329Y-70113030D01*
X65973428Y-70104765D01*
X65997227Y-70098804D01*
X66021495Y-70095204D01*
X66045999Y-70094000D01*
X66746001Y-70094000D01*
X66770505Y-70095204D01*
X66770505Y-70095204D01*
G37*
D21*
%TD*%
%TO.P,R3,1*%
%TO.N,Net-(Antenna1-Pad1)*%
X66396000Y-70794000D03*
D10*
%TO.N,Net-(R3-Pad2)*%
%TO.C,R3*%
G36*
X68770505Y-70095204D02*
X68794773Y-70098804D01*
X68818572Y-70104765D01*
X68841671Y-70113030D01*
X68863850Y-70123520D01*
X68884893Y-70136132D01*
X68904599Y-70150747D01*
X68922777Y-70167223D01*
X68939253Y-70185401D01*
X68953868Y-70205107D01*
X68966480Y-70226150D01*
X68976970Y-70248329D01*
X68985235Y-70271428D01*
X68991196Y-70295227D01*
X68994796Y-70319495D01*
X68996000Y-70343999D01*
X68996000Y-71244001D01*
X68994796Y-71268505D01*
X68991196Y-71292773D01*
X68985235Y-71316572D01*
X68976970Y-71339671D01*
X68966480Y-71361850D01*
X68953868Y-71382893D01*
X68939253Y-71402599D01*
X68922777Y-71420777D01*
X68904599Y-71437253D01*
X68884893Y-71451868D01*
X68863850Y-71464480D01*
X68841671Y-71474970D01*
X68818572Y-71483235D01*
X68794773Y-71489196D01*
X68770505Y-71492796D01*
X68746001Y-71494000D01*
X68045999Y-71494000D01*
X68021495Y-71492796D01*
X67997227Y-71489196D01*
X67973428Y-71483235D01*
X67950329Y-71474970D01*
X67928150Y-71464480D01*
X67907107Y-71451868D01*
X67887401Y-71437253D01*
X67869223Y-71420777D01*
X67852747Y-71402599D01*
X67838132Y-71382893D01*
X67825520Y-71361850D01*
X67815030Y-71339671D01*
X67806765Y-71316572D01*
X67800804Y-71292773D01*
X67797204Y-71268505D01*
X67796000Y-71244001D01*
X67796000Y-70343999D01*
X67797204Y-70319495D01*
X67800804Y-70295227D01*
X67806765Y-70271428D01*
X67815030Y-70248329D01*
X67825520Y-70226150D01*
X67838132Y-70205107D01*
X67852747Y-70185401D01*
X67869223Y-70167223D01*
X67887401Y-70150747D01*
X67907107Y-70136132D01*
X67928150Y-70123520D01*
X67950329Y-70113030D01*
X67973428Y-70104765D01*
X67997227Y-70098804D01*
X68021495Y-70095204D01*
X68045999Y-70094000D01*
X68746001Y-70094000D01*
X68770505Y-70095204D01*
X68770505Y-70095204D01*
G37*
D21*
%TD*%
%TO.P,R3,2*%
%TO.N,Net-(R3-Pad2)*%
X68396000Y-70794000D03*
D22*
%TO.N,GND*%
X82128000Y-75620000D03*
X84160000Y-64190000D03*
X67650000Y-60126000D03*
%TO.N,VCC*%
X75150022Y-64158000D03*
X70698000Y-73588000D03*
X70698000Y-68000000D03*
%TO.N,SIG*%
X76794000Y-65968000D03*
%TD*%
D23*
%TO.N,GND*%
X86340000Y-73800000D02*
X88814990Y-73800000D01*
%TO.N,Net-(D1-Pad2)*%
X66380000Y-66006000D02*
X66380000Y-68000000D01*
X66380000Y-65206000D02*
X66380000Y-66006000D01*
%TO.N,Net-(R3-Pad2)*%
X75350000Y-69525000D02*
X75350000Y-68950000D01*
X68396000Y-70794000D02*
X74081000Y-70794000D01*
X74081000Y-70794000D02*
X75350000Y-69525000D01*
%TO.N,Net-(R4-Pad2)*%
X79185796Y-61782204D02*
X79826000Y-61142000D01*
X77810000Y-63158000D02*
X79185796Y-61782204D01*
X75350000Y-67050000D02*
X76859002Y-67050000D01*
X77810000Y-66099002D02*
X77810000Y-63158000D01*
X76859002Y-67050000D02*
X77810000Y-66099002D01*
%TO.N,Net-(R5-Pad1)*%
X71620000Y-69525000D02*
X72195000Y-68950000D01*
X72195000Y-68950000D02*
X72650000Y-68950000D01*
X67981100Y-69525000D02*
X71620000Y-69525000D01*
X67420990Y-70085110D02*
X67981100Y-69525000D01*
X67420990Y-72563010D02*
X67420990Y-70085110D01*
X66396000Y-73588000D02*
X67420990Y-72563010D01*
%TO.N,VCC*%
X79842000Y-65500000D02*
X79717000Y-65500000D01*
X75150000Y-64158000D02*
X74928000Y-63936000D01*
X74928000Y-63936000D02*
X74819685Y-63936000D01*
X74928022Y-63936000D02*
X75150022Y-64158000D01*
X74819685Y-63936000D02*
X74928022Y-63936000D01*
X70698000Y-73588000D02*
X72962500Y-73588000D01*
X70698000Y-73588000D02*
X68396000Y-73588000D01*
X68430000Y-68000000D02*
X70698000Y-68000000D01*
X72650000Y-68000000D02*
X70698000Y-68000000D01*
X67806628Y-67376628D02*
X68430000Y-68000000D01*
X67404990Y-66974990D02*
X67806628Y-67376628D01*
X67404990Y-64220990D02*
X67404990Y-66974990D01*
X66396000Y-63212000D02*
X67404990Y-64220990D01*
X66396000Y-62412000D02*
X66396000Y-63212000D01*
X86340000Y-62200000D02*
X88814990Y-62200000D01*
%TO.N,SIG*%
X68380000Y-62428000D02*
X68396000Y-62412000D01*
X68380000Y-65206000D02*
X68380000Y-62428000D01*
X86340000Y-68000000D02*
X88814990Y-68000000D01*
X79717000Y-68000000D02*
X79842000Y-68000000D01*
X74254000Y-65968000D02*
X76794000Y-65968000D01*
X72650000Y-67050000D02*
X73172000Y-67050000D01*
X73172000Y-67050000D02*
X74254000Y-65968000D01*
X69682000Y-65206000D02*
X68380000Y-65206000D01*
X72650000Y-67050000D02*
X71526000Y-67050000D01*
X71526000Y-67050000D02*
X69682000Y-65206000D01*
%TO.N,Net-(Antenna1-Pad1)*%
X66486000Y-70794000D02*
X66650000Y-70794000D01*
X66396000Y-70704000D02*
X66396000Y-70794000D01*
X63692000Y-68000000D02*
X66396000Y-70704000D01*
%TO.N,Net-(R4-Pad1)*%
X76842000Y-60158000D02*
X77826000Y-61142000D01*
X74000000Y-60158000D02*
X76842000Y-60158000D01*
%TD*%
D24*
%TO.N,GND*%
G36*
X85384576Y-58683606D02*
X85213000Y-59097826D01*
X85213000Y-59546174D01*
X85384576Y-59960394D01*
X85701606Y-60277424D01*
X86115826Y-60449000D01*
X86564174Y-60449000D01*
X86978394Y-60277424D01*
X87295424Y-59960394D01*
X87467000Y-59546174D01*
X87467000Y-59097826D01*
X87295424Y-58683606D01*
X87028818Y-58417000D01*
X88663000Y-58417000D01*
X88663000Y-59712776D01*
X88244259Y-59796069D01*
X88072009Y-59911163D01*
X85736293Y-60912184D01*
X85691771Y-60933743D01*
X85679647Y-60940319D01*
X85659201Y-60954070D01*
X85624292Y-60972730D01*
X85480040Y-61069116D01*
X85398616Y-61135940D01*
X85275940Y-61258616D01*
X85209116Y-61340040D01*
X85112730Y-61484292D01*
X85063077Y-61577188D01*
X84996685Y-61737472D01*
X84966107Y-61838272D01*
X84932261Y-62008429D01*
X84921937Y-62113255D01*
X84921937Y-62286745D01*
X84932261Y-62391571D01*
X84966107Y-62561728D01*
X84996685Y-62662528D01*
X85063077Y-62822812D01*
X85112730Y-62915708D01*
X85209116Y-63059960D01*
X85275940Y-63141384D01*
X85398616Y-63264060D01*
X85480040Y-63330884D01*
X85624292Y-63427270D01*
X85658319Y-63445459D01*
X85676031Y-63457607D01*
X85688912Y-63464695D01*
X85736293Y-63487816D01*
X88072009Y-64488837D01*
X88244259Y-64603931D01*
X88663000Y-64687224D01*
X88663000Y-65512776D01*
X88244259Y-65596069D01*
X88072009Y-65711163D01*
X85736293Y-66712184D01*
X85691771Y-66733743D01*
X85679647Y-66740319D01*
X85659201Y-66754070D01*
X85624292Y-66772730D01*
X85480040Y-66869116D01*
X85398616Y-66935940D01*
X85275940Y-67058616D01*
X85209116Y-67140040D01*
X85112730Y-67284292D01*
X85063077Y-67377188D01*
X84996685Y-67537472D01*
X84966107Y-67638272D01*
X84932261Y-67808429D01*
X84921937Y-67913255D01*
X84921937Y-68086745D01*
X84932261Y-68191571D01*
X84966107Y-68361728D01*
X84996685Y-68462528D01*
X85063077Y-68622812D01*
X85112730Y-68715708D01*
X85209116Y-68859960D01*
X85275940Y-68941384D01*
X85398616Y-69064060D01*
X85480040Y-69130884D01*
X85624292Y-69227270D01*
X85658319Y-69245459D01*
X85676031Y-69257607D01*
X85688912Y-69264695D01*
X85736293Y-69287816D01*
X88072009Y-70288837D01*
X88244259Y-70403931D01*
X88663001Y-70487224D01*
X88663001Y-77329000D01*
X87360619Y-77329000D01*
X87467000Y-77072174D01*
X87467000Y-76623826D01*
X87295424Y-76209606D01*
X86978394Y-75892576D01*
X86564174Y-75721000D01*
X86115826Y-75721000D01*
X85701606Y-75892576D01*
X85384576Y-76209606D01*
X85213000Y-76623826D01*
X85213000Y-77072174D01*
X85319381Y-77329000D01*
X61369000Y-77329000D01*
X61369000Y-70653826D01*
X62565000Y-70653826D01*
X62565000Y-71102174D01*
X62736576Y-71516394D01*
X63053606Y-71833424D01*
X63467826Y-72005000D01*
X63916174Y-72005000D01*
X64330394Y-71833424D01*
X64647424Y-71516394D01*
X64819000Y-71102174D01*
X64819000Y-70653826D01*
X64647424Y-70239606D01*
X64330394Y-69922576D01*
X63916174Y-69751000D01*
X63467826Y-69751000D01*
X63053606Y-69922576D01*
X62736576Y-70239606D01*
X62565000Y-70653826D01*
X61369000Y-70653826D01*
X61369000Y-70487224D01*
X61787741Y-70403931D01*
X61959991Y-70288837D01*
X64129137Y-69359203D01*
X65258676Y-70488743D01*
X65258676Y-71244001D01*
X65318607Y-71545296D01*
X65489278Y-71800722D01*
X65744704Y-71971393D01*
X66045999Y-72031324D01*
X66746001Y-72031324D01*
X66768990Y-72026751D01*
X66768990Y-72292943D01*
X66711257Y-72350676D01*
X66045999Y-72350676D01*
X65744704Y-72410607D01*
X65489278Y-72581278D01*
X65318607Y-72836704D01*
X65258676Y-73137999D01*
X65258676Y-74038001D01*
X65318607Y-74339296D01*
X65489278Y-74594722D01*
X65744704Y-74765393D01*
X66045999Y-74825324D01*
X66746001Y-74825324D01*
X67047296Y-74765393D01*
X67302722Y-74594722D01*
X67396000Y-74455122D01*
X67489278Y-74594722D01*
X67744704Y-74765393D01*
X68045999Y-74825324D01*
X68746001Y-74825324D01*
X69047296Y-74765393D01*
X69302722Y-74594722D01*
X69473393Y-74339296D01*
X69493144Y-74240000D01*
X70039024Y-74240000D01*
X70172897Y-74373873D01*
X70513608Y-74515000D01*
X70882392Y-74515000D01*
X71223103Y-74373873D01*
X71356976Y-74240000D01*
X71872883Y-74240000D01*
X71897607Y-74364296D01*
X72068278Y-74619722D01*
X72323704Y-74790393D01*
X72625000Y-74850324D01*
X73300000Y-74850324D01*
X73601296Y-74790393D01*
X73856722Y-74619722D01*
X73877098Y-74589227D01*
X73911673Y-74672699D01*
X74090302Y-74851327D01*
X74323691Y-74948000D01*
X74751750Y-74948000D01*
X74910500Y-74789250D01*
X74910500Y-73715000D01*
X75164500Y-73715000D01*
X75164500Y-74789250D01*
X75323250Y-74948000D01*
X75751309Y-74948000D01*
X75984698Y-74851327D01*
X76163327Y-74672699D01*
X76260000Y-74439310D01*
X76260000Y-73873750D01*
X76101250Y-73715000D01*
X75164500Y-73715000D01*
X74910500Y-73715000D01*
X74890500Y-73715000D01*
X74890500Y-73461000D01*
X74910500Y-73461000D01*
X74910500Y-72386750D01*
X75164500Y-72386750D01*
X75164500Y-73461000D01*
X76101250Y-73461000D01*
X76260000Y-73302250D01*
X76260000Y-72736690D01*
X76163327Y-72503301D01*
X75984698Y-72324673D01*
X75751309Y-72228000D01*
X75323250Y-72228000D01*
X75164500Y-72386750D01*
X74910500Y-72386750D01*
X74751750Y-72228000D01*
X74323691Y-72228000D01*
X74090302Y-72324673D01*
X73911673Y-72503301D01*
X73877098Y-72586773D01*
X73856722Y-72556278D01*
X73601296Y-72385607D01*
X73300000Y-72325676D01*
X72625000Y-72325676D01*
X72323704Y-72385607D01*
X72068278Y-72556278D01*
X71897607Y-72811704D01*
X71872883Y-72936000D01*
X71356976Y-72936000D01*
X71223103Y-72802127D01*
X70882392Y-72661000D01*
X70513608Y-72661000D01*
X70172897Y-72802127D01*
X70039024Y-72936000D01*
X69493144Y-72936000D01*
X69473393Y-72836704D01*
X69302722Y-72581278D01*
X69047296Y-72410607D01*
X68746001Y-72350676D01*
X68072990Y-72350676D01*
X68072990Y-72031324D01*
X68746001Y-72031324D01*
X69047296Y-71971393D01*
X69302722Y-71800722D01*
X69473393Y-71545296D01*
X69493144Y-71446000D01*
X74016790Y-71446000D01*
X74081000Y-71458772D01*
X74145210Y-71446000D01*
X74145214Y-71446000D01*
X74335398Y-71408170D01*
X74551065Y-71264065D01*
X74587440Y-71209626D01*
X75011316Y-70785750D01*
X78232000Y-70785750D01*
X78232000Y-71476309D01*
X78328673Y-71709698D01*
X78507301Y-71888327D01*
X78740690Y-71985000D01*
X79556250Y-71985000D01*
X79715000Y-71826250D01*
X79715000Y-70627000D01*
X79969000Y-70627000D01*
X79969000Y-71826250D01*
X80127750Y-71985000D01*
X80943310Y-71985000D01*
X81176699Y-71888327D01*
X81355327Y-71709698D01*
X81452000Y-71476309D01*
X81452000Y-70785750D01*
X81342076Y-70675826D01*
X85213000Y-70675826D01*
X85213000Y-71124174D01*
X85384576Y-71538394D01*
X85701606Y-71855424D01*
X86115826Y-72027000D01*
X86564174Y-72027000D01*
X86978394Y-71855424D01*
X87295424Y-71538394D01*
X87467000Y-71124174D01*
X87467000Y-70675826D01*
X87295424Y-70261606D01*
X86978394Y-69944576D01*
X86564174Y-69773000D01*
X86115826Y-69773000D01*
X85701606Y-69944576D01*
X85384576Y-70261606D01*
X85213000Y-70675826D01*
X81342076Y-70675826D01*
X81293250Y-70627000D01*
X79969000Y-70627000D01*
X79715000Y-70627000D01*
X78390750Y-70627000D01*
X78232000Y-70785750D01*
X75011316Y-70785750D01*
X75765629Y-70031438D01*
X75820065Y-69995065D01*
X75942169Y-69812324D01*
X76130000Y-69812324D01*
X76335625Y-69771423D01*
X76509945Y-69654945D01*
X76626423Y-69480625D01*
X76667324Y-69275000D01*
X76667324Y-68685702D01*
X76668327Y-68684699D01*
X76765000Y-68451310D01*
X76765000Y-68285750D01*
X76606250Y-68127000D01*
X76327697Y-68127000D01*
X76130000Y-68087676D01*
X75203000Y-68087676D01*
X75203000Y-67912324D01*
X76130000Y-67912324D01*
X76327697Y-67873000D01*
X76606250Y-67873000D01*
X76765000Y-67714250D01*
X76765000Y-67702000D01*
X76794792Y-67702000D01*
X76859002Y-67714772D01*
X76923212Y-67702000D01*
X76923216Y-67702000D01*
X77113400Y-67664170D01*
X77329067Y-67520065D01*
X77365442Y-67465626D01*
X78225629Y-66605440D01*
X78280065Y-66569067D01*
X78424170Y-66353400D01*
X78462000Y-66163216D01*
X78462000Y-66163213D01*
X78471644Y-66114728D01*
X78724238Y-66492762D01*
X79109222Y-66750000D01*
X78724238Y-67007238D01*
X78419894Y-67462721D01*
X78313023Y-68000000D01*
X78419894Y-68537279D01*
X78724238Y-68992762D01*
X78757520Y-69015000D01*
X78740690Y-69015000D01*
X78507301Y-69111673D01*
X78328673Y-69290302D01*
X78232000Y-69523691D01*
X78232000Y-70214250D01*
X78390750Y-70373000D01*
X79715000Y-70373000D01*
X79715000Y-70353000D01*
X79969000Y-70353000D01*
X79969000Y-70373000D01*
X81293250Y-70373000D01*
X81452000Y-70214250D01*
X81452000Y-69523691D01*
X81355327Y-69290302D01*
X81176699Y-69111673D01*
X80943310Y-69015000D01*
X80926480Y-69015000D01*
X80959762Y-68992762D01*
X81264106Y-68537279D01*
X81370977Y-68000000D01*
X81264106Y-67462721D01*
X80959762Y-67007238D01*
X80574778Y-66750000D01*
X80959762Y-66492762D01*
X81264106Y-66037279D01*
X81370977Y-65500000D01*
X81264106Y-64962721D01*
X81248809Y-64939826D01*
X85213000Y-64939826D01*
X85213000Y-65388174D01*
X85384576Y-65802394D01*
X85701606Y-66119424D01*
X86115826Y-66291000D01*
X86564174Y-66291000D01*
X86978394Y-66119424D01*
X87295424Y-65802394D01*
X87467000Y-65388174D01*
X87467000Y-64939826D01*
X87295424Y-64525606D01*
X86978394Y-64208576D01*
X86564174Y-64037000D01*
X86115826Y-64037000D01*
X85701606Y-64208576D01*
X85384576Y-64525606D01*
X85213000Y-64939826D01*
X81248809Y-64939826D01*
X80959762Y-64507238D01*
X80504279Y-64202894D01*
X80102623Y-64123000D01*
X79581377Y-64123000D01*
X79179721Y-64202894D01*
X78724238Y-64507238D01*
X78462000Y-64899705D01*
X78462000Y-63428066D01*
X79510743Y-62379324D01*
X80176001Y-62379324D01*
X80477296Y-62319393D01*
X80732722Y-62148722D01*
X80903393Y-61893296D01*
X80963324Y-61592001D01*
X80963324Y-60691999D01*
X80903393Y-60390704D01*
X80732722Y-60135278D01*
X80477296Y-59964607D01*
X80176001Y-59904676D01*
X79475999Y-59904676D01*
X79174704Y-59964607D01*
X78919278Y-60135278D01*
X78826000Y-60274878D01*
X78732722Y-60135278D01*
X78477296Y-59964607D01*
X78176001Y-59904676D01*
X77510742Y-59904676D01*
X77348440Y-59742374D01*
X77312065Y-59687935D01*
X77096398Y-59543830D01*
X76906214Y-59506000D01*
X76906210Y-59506000D01*
X76842000Y-59493228D01*
X76777790Y-59506000D01*
X75537324Y-59506000D01*
X75537324Y-59158000D01*
X75496423Y-58952375D01*
X75379945Y-58778055D01*
X75205625Y-58661577D01*
X75000000Y-58620676D01*
X73000000Y-58620676D01*
X72794375Y-58661577D01*
X72620055Y-58778055D01*
X72503577Y-58952375D01*
X72462676Y-59158000D01*
X72462676Y-61158000D01*
X72503577Y-61363625D01*
X72620055Y-61537945D01*
X72794375Y-61654423D01*
X73000000Y-61695324D01*
X75000000Y-61695324D01*
X75205625Y-61654423D01*
X75379945Y-61537945D01*
X75496423Y-61363625D01*
X75537324Y-61158000D01*
X75537324Y-60810000D01*
X76571934Y-60810000D01*
X76688676Y-60926742D01*
X76688676Y-61592001D01*
X76748607Y-61893296D01*
X76919278Y-62148722D01*
X77174704Y-62319393D01*
X77475999Y-62379324D01*
X77666610Y-62379324D01*
X77394372Y-62651562D01*
X77339936Y-62687935D01*
X77303562Y-62742372D01*
X77303561Y-62742373D01*
X77195830Y-62903603D01*
X77145228Y-63158000D01*
X77158001Y-63222215D01*
X77158000Y-65115396D01*
X76978392Y-65041000D01*
X76609608Y-65041000D01*
X76337324Y-65153784D01*
X76337324Y-63158000D01*
X76296423Y-62952375D01*
X76179945Y-62778055D01*
X76005625Y-62661577D01*
X75800000Y-62620676D01*
X74500000Y-62620676D01*
X74294375Y-62661577D01*
X74120055Y-62778055D01*
X74064426Y-62861310D01*
X74038327Y-62798302D01*
X73859699Y-62619673D01*
X73626310Y-62523000D01*
X73135750Y-62523000D01*
X72977000Y-62681750D01*
X72977000Y-64031000D01*
X72997000Y-64031000D01*
X72997000Y-64285000D01*
X72977000Y-64285000D01*
X72977000Y-65634250D01*
X73135750Y-65793000D01*
X73506933Y-65793000D01*
X73112258Y-66187676D01*
X71870000Y-66187676D01*
X71664375Y-66228577D01*
X71641757Y-66243690D01*
X70188441Y-64790374D01*
X70152065Y-64735935D01*
X69936398Y-64591830D01*
X69746214Y-64554000D01*
X69746210Y-64554000D01*
X69682000Y-64541228D01*
X69617790Y-64554000D01*
X69477144Y-64554000D01*
X69457393Y-64454704D01*
X69450074Y-64443750D01*
X71565000Y-64443750D01*
X71565000Y-65284309D01*
X71661673Y-65517698D01*
X71840301Y-65696327D01*
X72073690Y-65793000D01*
X72564250Y-65793000D01*
X72723000Y-65634250D01*
X72723000Y-64285000D01*
X71723750Y-64285000D01*
X71565000Y-64443750D01*
X69450074Y-64443750D01*
X69286722Y-64199278D01*
X69032000Y-64029077D01*
X69032000Y-63592436D01*
X69047296Y-63589393D01*
X69302722Y-63418722D01*
X69473393Y-63163296D01*
X69499570Y-63031691D01*
X71565000Y-63031691D01*
X71565000Y-63872250D01*
X71723750Y-64031000D01*
X72723000Y-64031000D01*
X72723000Y-62681750D01*
X72564250Y-62523000D01*
X72073690Y-62523000D01*
X71840301Y-62619673D01*
X71661673Y-62798302D01*
X71565000Y-63031691D01*
X69499570Y-63031691D01*
X69533324Y-62862001D01*
X69533324Y-61961999D01*
X69473393Y-61660704D01*
X69302722Y-61405278D01*
X69047296Y-61234607D01*
X68746001Y-61174676D01*
X68045999Y-61174676D01*
X67744704Y-61234607D01*
X67489278Y-61405278D01*
X67396000Y-61544878D01*
X67302722Y-61405278D01*
X67047296Y-61234607D01*
X66746001Y-61174676D01*
X66045999Y-61174676D01*
X65744704Y-61234607D01*
X65489278Y-61405278D01*
X65318607Y-61660704D01*
X65258676Y-61961999D01*
X65258676Y-62862001D01*
X65318607Y-63163296D01*
X65489278Y-63418722D01*
X65744704Y-63589393D01*
X65882302Y-63616763D01*
X65925936Y-63682065D01*
X65980372Y-63718438D01*
X66230610Y-63968676D01*
X66029999Y-63968676D01*
X65728704Y-64028607D01*
X65473278Y-64199278D01*
X65302607Y-64454704D01*
X65242676Y-64755999D01*
X65242676Y-65656001D01*
X65302607Y-65957296D01*
X65473278Y-66212722D01*
X65728000Y-66382923D01*
X65728000Y-66839782D01*
X65498278Y-66993278D01*
X65327607Y-67248704D01*
X65267676Y-67549999D01*
X65267676Y-68450001D01*
X65318232Y-68704166D01*
X65044923Y-68430856D01*
X65065893Y-68361728D01*
X65099739Y-68191571D01*
X65110063Y-68086745D01*
X65110063Y-67913255D01*
X65099739Y-67808429D01*
X65065893Y-67638272D01*
X65035315Y-67537472D01*
X64968923Y-67377188D01*
X64919270Y-67284292D01*
X64822884Y-67140040D01*
X64756060Y-67058616D01*
X64633384Y-66935940D01*
X64551960Y-66869116D01*
X64407708Y-66772730D01*
X64373681Y-66754541D01*
X64355969Y-66742393D01*
X64343088Y-66735305D01*
X64295707Y-66712184D01*
X61959991Y-65711163D01*
X61787741Y-65596069D01*
X61369000Y-65512776D01*
X61369000Y-64811826D01*
X62565000Y-64811826D01*
X62565000Y-65260174D01*
X62736576Y-65674394D01*
X63053606Y-65991424D01*
X63467826Y-66163000D01*
X63916174Y-66163000D01*
X64330394Y-65991424D01*
X64647424Y-65674394D01*
X64819000Y-65260174D01*
X64819000Y-64811826D01*
X64647424Y-64397606D01*
X64330394Y-64080576D01*
X63916174Y-63909000D01*
X63467826Y-63909000D01*
X63053606Y-64080576D01*
X62736576Y-64397606D01*
X62565000Y-64811826D01*
X61369000Y-64811826D01*
X61369000Y-58417000D01*
X85651182Y-58417000D01*
X85384576Y-58683606D01*
X85384576Y-58683606D01*
G37*
X85384576Y-58683606D02*
X85213000Y-59097826D01*
X85213000Y-59546174D01*
X85384576Y-59960394D01*
X85701606Y-60277424D01*
X86115826Y-60449000D01*
X86564174Y-60449000D01*
X86978394Y-60277424D01*
X87295424Y-59960394D01*
X87467000Y-59546174D01*
X87467000Y-59097826D01*
X87295424Y-58683606D01*
X87028818Y-58417000D01*
X88663000Y-58417000D01*
X88663000Y-59712776D01*
X88244259Y-59796069D01*
X88072009Y-59911163D01*
X85736293Y-60912184D01*
X85691771Y-60933743D01*
X85679647Y-60940319D01*
X85659201Y-60954070D01*
X85624292Y-60972730D01*
X85480040Y-61069116D01*
X85398616Y-61135940D01*
X85275940Y-61258616D01*
X85209116Y-61340040D01*
X85112730Y-61484292D01*
X85063077Y-61577188D01*
X84996685Y-61737472D01*
X84966107Y-61838272D01*
X84932261Y-62008429D01*
X84921937Y-62113255D01*
X84921937Y-62286745D01*
X84932261Y-62391571D01*
X84966107Y-62561728D01*
X84996685Y-62662528D01*
X85063077Y-62822812D01*
X85112730Y-62915708D01*
X85209116Y-63059960D01*
X85275940Y-63141384D01*
X85398616Y-63264060D01*
X85480040Y-63330884D01*
X85624292Y-63427270D01*
X85658319Y-63445459D01*
X85676031Y-63457607D01*
X85688912Y-63464695D01*
X85736293Y-63487816D01*
X88072009Y-64488837D01*
X88244259Y-64603931D01*
X88663000Y-64687224D01*
X88663000Y-65512776D01*
X88244259Y-65596069D01*
X88072009Y-65711163D01*
X85736293Y-66712184D01*
X85691771Y-66733743D01*
X85679647Y-66740319D01*
X85659201Y-66754070D01*
X85624292Y-66772730D01*
X85480040Y-66869116D01*
X85398616Y-66935940D01*
X85275940Y-67058616D01*
X85209116Y-67140040D01*
X85112730Y-67284292D01*
X85063077Y-67377188D01*
X84996685Y-67537472D01*
X84966107Y-67638272D01*
X84932261Y-67808429D01*
X84921937Y-67913255D01*
X84921937Y-68086745D01*
X84932261Y-68191571D01*
X84966107Y-68361728D01*
X84996685Y-68462528D01*
X85063077Y-68622812D01*
X85112730Y-68715708D01*
X85209116Y-68859960D01*
X85275940Y-68941384D01*
X85398616Y-69064060D01*
X85480040Y-69130884D01*
X85624292Y-69227270D01*
X85658319Y-69245459D01*
X85676031Y-69257607D01*
X85688912Y-69264695D01*
X85736293Y-69287816D01*
X88072009Y-70288837D01*
X88244259Y-70403931D01*
X88663001Y-70487224D01*
X88663001Y-77329000D01*
X87360619Y-77329000D01*
X87467000Y-77072174D01*
X87467000Y-76623826D01*
X87295424Y-76209606D01*
X86978394Y-75892576D01*
X86564174Y-75721000D01*
X86115826Y-75721000D01*
X85701606Y-75892576D01*
X85384576Y-76209606D01*
X85213000Y-76623826D01*
X85213000Y-77072174D01*
X85319381Y-77329000D01*
X61369000Y-77329000D01*
X61369000Y-70653826D01*
X62565000Y-70653826D01*
X62565000Y-71102174D01*
X62736576Y-71516394D01*
X63053606Y-71833424D01*
X63467826Y-72005000D01*
X63916174Y-72005000D01*
X64330394Y-71833424D01*
X64647424Y-71516394D01*
X64819000Y-71102174D01*
X64819000Y-70653826D01*
X64647424Y-70239606D01*
X64330394Y-69922576D01*
X63916174Y-69751000D01*
X63467826Y-69751000D01*
X63053606Y-69922576D01*
X62736576Y-70239606D01*
X62565000Y-70653826D01*
X61369000Y-70653826D01*
X61369000Y-70487224D01*
X61787741Y-70403931D01*
X61959991Y-70288837D01*
X64129137Y-69359203D01*
X65258676Y-70488743D01*
X65258676Y-71244001D01*
X65318607Y-71545296D01*
X65489278Y-71800722D01*
X65744704Y-71971393D01*
X66045999Y-72031324D01*
X66746001Y-72031324D01*
X66768990Y-72026751D01*
X66768990Y-72292943D01*
X66711257Y-72350676D01*
X66045999Y-72350676D01*
X65744704Y-72410607D01*
X65489278Y-72581278D01*
X65318607Y-72836704D01*
X65258676Y-73137999D01*
X65258676Y-74038001D01*
X65318607Y-74339296D01*
X65489278Y-74594722D01*
X65744704Y-74765393D01*
X66045999Y-74825324D01*
X66746001Y-74825324D01*
X67047296Y-74765393D01*
X67302722Y-74594722D01*
X67396000Y-74455122D01*
X67489278Y-74594722D01*
X67744704Y-74765393D01*
X68045999Y-74825324D01*
X68746001Y-74825324D01*
X69047296Y-74765393D01*
X69302722Y-74594722D01*
X69473393Y-74339296D01*
X69493144Y-74240000D01*
X70039024Y-74240000D01*
X70172897Y-74373873D01*
X70513608Y-74515000D01*
X70882392Y-74515000D01*
X71223103Y-74373873D01*
X71356976Y-74240000D01*
X71872883Y-74240000D01*
X71897607Y-74364296D01*
X72068278Y-74619722D01*
X72323704Y-74790393D01*
X72625000Y-74850324D01*
X73300000Y-74850324D01*
X73601296Y-74790393D01*
X73856722Y-74619722D01*
X73877098Y-74589227D01*
X73911673Y-74672699D01*
X74090302Y-74851327D01*
X74323691Y-74948000D01*
X74751750Y-74948000D01*
X74910500Y-74789250D01*
X74910500Y-73715000D01*
X75164500Y-73715000D01*
X75164500Y-74789250D01*
X75323250Y-74948000D01*
X75751309Y-74948000D01*
X75984698Y-74851327D01*
X76163327Y-74672699D01*
X76260000Y-74439310D01*
X76260000Y-73873750D01*
X76101250Y-73715000D01*
X75164500Y-73715000D01*
X74910500Y-73715000D01*
X74890500Y-73715000D01*
X74890500Y-73461000D01*
X74910500Y-73461000D01*
X74910500Y-72386750D01*
X75164500Y-72386750D01*
X75164500Y-73461000D01*
X76101250Y-73461000D01*
X76260000Y-73302250D01*
X76260000Y-72736690D01*
X76163327Y-72503301D01*
X75984698Y-72324673D01*
X75751309Y-72228000D01*
X75323250Y-72228000D01*
X75164500Y-72386750D01*
X74910500Y-72386750D01*
X74751750Y-72228000D01*
X74323691Y-72228000D01*
X74090302Y-72324673D01*
X73911673Y-72503301D01*
X73877098Y-72586773D01*
X73856722Y-72556278D01*
X73601296Y-72385607D01*
X73300000Y-72325676D01*
X72625000Y-72325676D01*
X72323704Y-72385607D01*
X72068278Y-72556278D01*
X71897607Y-72811704D01*
X71872883Y-72936000D01*
X71356976Y-72936000D01*
X71223103Y-72802127D01*
X70882392Y-72661000D01*
X70513608Y-72661000D01*
X70172897Y-72802127D01*
X70039024Y-72936000D01*
X69493144Y-72936000D01*
X69473393Y-72836704D01*
X69302722Y-72581278D01*
X69047296Y-72410607D01*
X68746001Y-72350676D01*
X68072990Y-72350676D01*
X68072990Y-72031324D01*
X68746001Y-72031324D01*
X69047296Y-71971393D01*
X69302722Y-71800722D01*
X69473393Y-71545296D01*
X69493144Y-71446000D01*
X74016790Y-71446000D01*
X74081000Y-71458772D01*
X74145210Y-71446000D01*
X74145214Y-71446000D01*
X74335398Y-71408170D01*
X74551065Y-71264065D01*
X74587440Y-71209626D01*
X75011316Y-70785750D01*
X78232000Y-70785750D01*
X78232000Y-71476309D01*
X78328673Y-71709698D01*
X78507301Y-71888327D01*
X78740690Y-71985000D01*
X79556250Y-71985000D01*
X79715000Y-71826250D01*
X79715000Y-70627000D01*
X79969000Y-70627000D01*
X79969000Y-71826250D01*
X80127750Y-71985000D01*
X80943310Y-71985000D01*
X81176699Y-71888327D01*
X81355327Y-71709698D01*
X81452000Y-71476309D01*
X81452000Y-70785750D01*
X81342076Y-70675826D01*
X85213000Y-70675826D01*
X85213000Y-71124174D01*
X85384576Y-71538394D01*
X85701606Y-71855424D01*
X86115826Y-72027000D01*
X86564174Y-72027000D01*
X86978394Y-71855424D01*
X87295424Y-71538394D01*
X87467000Y-71124174D01*
X87467000Y-70675826D01*
X87295424Y-70261606D01*
X86978394Y-69944576D01*
X86564174Y-69773000D01*
X86115826Y-69773000D01*
X85701606Y-69944576D01*
X85384576Y-70261606D01*
X85213000Y-70675826D01*
X81342076Y-70675826D01*
X81293250Y-70627000D01*
X79969000Y-70627000D01*
X79715000Y-70627000D01*
X78390750Y-70627000D01*
X78232000Y-70785750D01*
X75011316Y-70785750D01*
X75765629Y-70031438D01*
X75820065Y-69995065D01*
X75942169Y-69812324D01*
X76130000Y-69812324D01*
X76335625Y-69771423D01*
X76509945Y-69654945D01*
X76626423Y-69480625D01*
X76667324Y-69275000D01*
X76667324Y-68685702D01*
X76668327Y-68684699D01*
X76765000Y-68451310D01*
X76765000Y-68285750D01*
X76606250Y-68127000D01*
X76327697Y-68127000D01*
X76130000Y-68087676D01*
X75203000Y-68087676D01*
X75203000Y-67912324D01*
X76130000Y-67912324D01*
X76327697Y-67873000D01*
X76606250Y-67873000D01*
X76765000Y-67714250D01*
X76765000Y-67702000D01*
X76794792Y-67702000D01*
X76859002Y-67714772D01*
X76923212Y-67702000D01*
X76923216Y-67702000D01*
X77113400Y-67664170D01*
X77329067Y-67520065D01*
X77365442Y-67465626D01*
X78225629Y-66605440D01*
X78280065Y-66569067D01*
X78424170Y-66353400D01*
X78462000Y-66163216D01*
X78462000Y-66163213D01*
X78471644Y-66114728D01*
X78724238Y-66492762D01*
X79109222Y-66750000D01*
X78724238Y-67007238D01*
X78419894Y-67462721D01*
X78313023Y-68000000D01*
X78419894Y-68537279D01*
X78724238Y-68992762D01*
X78757520Y-69015000D01*
X78740690Y-69015000D01*
X78507301Y-69111673D01*
X78328673Y-69290302D01*
X78232000Y-69523691D01*
X78232000Y-70214250D01*
X78390750Y-70373000D01*
X79715000Y-70373000D01*
X79715000Y-70353000D01*
X79969000Y-70353000D01*
X79969000Y-70373000D01*
X81293250Y-70373000D01*
X81452000Y-70214250D01*
X81452000Y-69523691D01*
X81355327Y-69290302D01*
X81176699Y-69111673D01*
X80943310Y-69015000D01*
X80926480Y-69015000D01*
X80959762Y-68992762D01*
X81264106Y-68537279D01*
X81370977Y-68000000D01*
X81264106Y-67462721D01*
X80959762Y-67007238D01*
X80574778Y-66750000D01*
X80959762Y-66492762D01*
X81264106Y-66037279D01*
X81370977Y-65500000D01*
X81264106Y-64962721D01*
X81248809Y-64939826D01*
X85213000Y-64939826D01*
X85213000Y-65388174D01*
X85384576Y-65802394D01*
X85701606Y-66119424D01*
X86115826Y-66291000D01*
X86564174Y-66291000D01*
X86978394Y-66119424D01*
X87295424Y-65802394D01*
X87467000Y-65388174D01*
X87467000Y-64939826D01*
X87295424Y-64525606D01*
X86978394Y-64208576D01*
X86564174Y-64037000D01*
X86115826Y-64037000D01*
X85701606Y-64208576D01*
X85384576Y-64525606D01*
X85213000Y-64939826D01*
X81248809Y-64939826D01*
X80959762Y-64507238D01*
X80504279Y-64202894D01*
X80102623Y-64123000D01*
X79581377Y-64123000D01*
X79179721Y-64202894D01*
X78724238Y-64507238D01*
X78462000Y-64899705D01*
X78462000Y-63428066D01*
X79510743Y-62379324D01*
X80176001Y-62379324D01*
X80477296Y-62319393D01*
X80732722Y-62148722D01*
X80903393Y-61893296D01*
X80963324Y-61592001D01*
X80963324Y-60691999D01*
X80903393Y-60390704D01*
X80732722Y-60135278D01*
X80477296Y-59964607D01*
X80176001Y-59904676D01*
X79475999Y-59904676D01*
X79174704Y-59964607D01*
X78919278Y-60135278D01*
X78826000Y-60274878D01*
X78732722Y-60135278D01*
X78477296Y-59964607D01*
X78176001Y-59904676D01*
X77510742Y-59904676D01*
X77348440Y-59742374D01*
X77312065Y-59687935D01*
X77096398Y-59543830D01*
X76906214Y-59506000D01*
X76906210Y-59506000D01*
X76842000Y-59493228D01*
X76777790Y-59506000D01*
X75537324Y-59506000D01*
X75537324Y-59158000D01*
X75496423Y-58952375D01*
X75379945Y-58778055D01*
X75205625Y-58661577D01*
X75000000Y-58620676D01*
X73000000Y-58620676D01*
X72794375Y-58661577D01*
X72620055Y-58778055D01*
X72503577Y-58952375D01*
X72462676Y-59158000D01*
X72462676Y-61158000D01*
X72503577Y-61363625D01*
X72620055Y-61537945D01*
X72794375Y-61654423D01*
X73000000Y-61695324D01*
X75000000Y-61695324D01*
X75205625Y-61654423D01*
X75379945Y-61537945D01*
X75496423Y-61363625D01*
X75537324Y-61158000D01*
X75537324Y-60810000D01*
X76571934Y-60810000D01*
X76688676Y-60926742D01*
X76688676Y-61592001D01*
X76748607Y-61893296D01*
X76919278Y-62148722D01*
X77174704Y-62319393D01*
X77475999Y-62379324D01*
X77666610Y-62379324D01*
X77394372Y-62651562D01*
X77339936Y-62687935D01*
X77303562Y-62742372D01*
X77303561Y-62742373D01*
X77195830Y-62903603D01*
X77145228Y-63158000D01*
X77158001Y-63222215D01*
X77158000Y-65115396D01*
X76978392Y-65041000D01*
X76609608Y-65041000D01*
X76337324Y-65153784D01*
X76337324Y-63158000D01*
X76296423Y-62952375D01*
X76179945Y-62778055D01*
X76005625Y-62661577D01*
X75800000Y-62620676D01*
X74500000Y-62620676D01*
X74294375Y-62661577D01*
X74120055Y-62778055D01*
X74064426Y-62861310D01*
X74038327Y-62798302D01*
X73859699Y-62619673D01*
X73626310Y-62523000D01*
X73135750Y-62523000D01*
X72977000Y-62681750D01*
X72977000Y-64031000D01*
X72997000Y-64031000D01*
X72997000Y-64285000D01*
X72977000Y-64285000D01*
X72977000Y-65634250D01*
X73135750Y-65793000D01*
X73506933Y-65793000D01*
X73112258Y-66187676D01*
X71870000Y-66187676D01*
X71664375Y-66228577D01*
X71641757Y-66243690D01*
X70188441Y-64790374D01*
X70152065Y-64735935D01*
X69936398Y-64591830D01*
X69746214Y-64554000D01*
X69746210Y-64554000D01*
X69682000Y-64541228D01*
X69617790Y-64554000D01*
X69477144Y-64554000D01*
X69457393Y-64454704D01*
X69450074Y-64443750D01*
X71565000Y-64443750D01*
X71565000Y-65284309D01*
X71661673Y-65517698D01*
X71840301Y-65696327D01*
X72073690Y-65793000D01*
X72564250Y-65793000D01*
X72723000Y-65634250D01*
X72723000Y-64285000D01*
X71723750Y-64285000D01*
X71565000Y-64443750D01*
X69450074Y-64443750D01*
X69286722Y-64199278D01*
X69032000Y-64029077D01*
X69032000Y-63592436D01*
X69047296Y-63589393D01*
X69302722Y-63418722D01*
X69473393Y-63163296D01*
X69499570Y-63031691D01*
X71565000Y-63031691D01*
X71565000Y-63872250D01*
X71723750Y-64031000D01*
X72723000Y-64031000D01*
X72723000Y-62681750D01*
X72564250Y-62523000D01*
X72073690Y-62523000D01*
X71840301Y-62619673D01*
X71661673Y-62798302D01*
X71565000Y-63031691D01*
X69499570Y-63031691D01*
X69533324Y-62862001D01*
X69533324Y-61961999D01*
X69473393Y-61660704D01*
X69302722Y-61405278D01*
X69047296Y-61234607D01*
X68746001Y-61174676D01*
X68045999Y-61174676D01*
X67744704Y-61234607D01*
X67489278Y-61405278D01*
X67396000Y-61544878D01*
X67302722Y-61405278D01*
X67047296Y-61234607D01*
X66746001Y-61174676D01*
X66045999Y-61174676D01*
X65744704Y-61234607D01*
X65489278Y-61405278D01*
X65318607Y-61660704D01*
X65258676Y-61961999D01*
X65258676Y-62862001D01*
X65318607Y-63163296D01*
X65489278Y-63418722D01*
X65744704Y-63589393D01*
X65882302Y-63616763D01*
X65925936Y-63682065D01*
X65980372Y-63718438D01*
X66230610Y-63968676D01*
X66029999Y-63968676D01*
X65728704Y-64028607D01*
X65473278Y-64199278D01*
X65302607Y-64454704D01*
X65242676Y-64755999D01*
X65242676Y-65656001D01*
X65302607Y-65957296D01*
X65473278Y-66212722D01*
X65728000Y-66382923D01*
X65728000Y-66839782D01*
X65498278Y-66993278D01*
X65327607Y-67248704D01*
X65267676Y-67549999D01*
X65267676Y-68450001D01*
X65318232Y-68704166D01*
X65044923Y-68430856D01*
X65065893Y-68361728D01*
X65099739Y-68191571D01*
X65110063Y-68086745D01*
X65110063Y-67913255D01*
X65099739Y-67808429D01*
X65065893Y-67638272D01*
X65035315Y-67537472D01*
X64968923Y-67377188D01*
X64919270Y-67284292D01*
X64822884Y-67140040D01*
X64756060Y-67058616D01*
X64633384Y-66935940D01*
X64551960Y-66869116D01*
X64407708Y-66772730D01*
X64373681Y-66754541D01*
X64355969Y-66742393D01*
X64343088Y-66735305D01*
X64295707Y-66712184D01*
X61959991Y-65711163D01*
X61787741Y-65596069D01*
X61369000Y-65512776D01*
X61369000Y-64811826D01*
X62565000Y-64811826D01*
X62565000Y-65260174D01*
X62736576Y-65674394D01*
X63053606Y-65991424D01*
X63467826Y-66163000D01*
X63916174Y-66163000D01*
X64330394Y-65991424D01*
X64647424Y-65674394D01*
X64819000Y-65260174D01*
X64819000Y-64811826D01*
X64647424Y-64397606D01*
X64330394Y-64080576D01*
X63916174Y-63909000D01*
X63467826Y-63909000D01*
X63053606Y-64080576D01*
X62736576Y-64397606D01*
X62565000Y-64811826D01*
X61369000Y-64811826D01*
X61369000Y-58417000D01*
X85651182Y-58417000D01*
X85384576Y-58683606D01*
%TD*%
M02*
